<?xml version="1.0" encoding="UTF-8" standalone="no"?>
<!DOCTYPE svg PUBLIC "-//W3C//DTD SVG 1.1//EN" "http://www.w3.org/Graphics/SVG/1.1/DTD/svg11.dtd">
<svg width="843" height="142" viewBox="0 0 843 142" version="1.1" xmlns="http://www.w3.org/2000/svg" xmlns:xlink="http://www.w3.org/1999/xlink" xml:space="preserve" xmlns:serif="http://www.serif.com/" style="fill-rule:evenodd;clip-rule:evenodd;stroke-linejoin:round;stroke-miterlimit:2;">
    <g transform="matrix(1,0,0,1,-169.838,-520.133)">
        <g id="Page-1" serif:id="Page 1" transform="matrix(4.16667,0,0,4.16667,0,0)">
            <rect x="0" y="0" width="283.68" height="283.68" style="fill:none;"/>
            <g id="Layer-1" serif:id="Layer 1">
                <g transform="matrix(1,0,0,1,76.5268,137.689)">
                    <path d="M0,8.262L-0.024,7.217L11.25,-4.373L12.27,-4.373L4.665,3.475L4.179,3.961L0,8.262ZM-0.705,-4.373L0.121,-4.373L0.121,12.635L-0.705,12.635L-0.705,-4.373ZM11.784,12.635L3.888,3.645L4.446,3.086L12.805,12.635L11.784,12.635Z" style="fill:white;fill-rule:nonzero;"/>
                </g>
                <g transform="matrix(1,0,0,1,94.8095,133.357)">
                    <path d="M0,17.008L7.872,0L8.674,0L16.546,17.008L15.647,17.008L8.091,0.559L8.455,0.559L0.899,17.008L0,17.008ZM2.721,12.027L3.037,11.322L13.436,11.322L13.752,12.027L2.721,12.027Z" style="fill:white;fill-rule:nonzero;"/>
                </g>
                <g transform="matrix(1,0,0,1,0,0.042)">
                    <path d="M129.596,133.315L130.423,133.315L130.423,150.323L129.596,150.323L129.596,133.315ZM116.841,133.315L117.667,133.315L117.667,150.323L116.841,150.323L116.841,133.315ZM117.521,141.309L129.742,141.309L129.742,142.062L117.521,142.062L117.521,141.309Z" style="fill:white;fill-rule:nonzero;"/>
                </g>
                <g transform="matrix(1,0,0,1,143.439,133.357)">
                    <path d="M0,17.008L-7.629,0L-6.706,0L0.656,16.449L0.195,16.449L7.557,0L8.431,0L0.802,17.008L0,17.008Z" style="fill:white;fill-rule:nonzero;"/>
                </g>
                <g transform="matrix(1,0,0,1,157.449,133.357)">
                    <path d="M0,17.008L0,0L11.152,0L11.152,0.753L0.826,0.753L0.826,16.255L11.492,16.255L11.492,17.008L0,17.008ZM0.68,7.994L10.058,7.994L10.058,8.747L0.68,8.747L0.68,7.994Z" style="fill:white;fill-rule:nonzero;"/>
                </g>
                <g transform="matrix(1,0,0,1,193.365,133.357)">
                    <path d="M0,17.008L0,10.958L0.194,11.517L-6.876,0L-5.977,0L0.632,10.739L0.219,10.739L6.852,0L7.726,0L0.632,11.517L0.826,10.958L0.826,17.008L0,17.008Z" style="fill:white;fill-rule:nonzero;"/>
                </g>
                <g transform="matrix(1,0,0,1,200.927,133.357)">
                    <path d="M0,17.008L7.872,0L8.674,0L16.546,17.008L15.647,17.008L8.091,0.559L8.455,0.559L0.899,17.008L0,17.008ZM2.721,12.027L3.037,11.322L13.436,11.322L13.752,12.027L2.721,12.027Z" style="fill:white;fill-rule:nonzero;"/>
                </g>
                <g transform="matrix(1,0,0,1,221.483,133.357)">
                    <path d="M0,17.008L0,0L0.68,0L13.169,16.036L12.756,16.036L12.756,0L13.582,0L13.582,17.008L12.901,17.008L0.413,0.972L0.826,0.972L0.826,17.008L0,17.008Z" style="fill:white;fill-rule:nonzero;"/>
                </g>
                <g transform="matrix(1,0,0,1,0,0.042)">
                    <rect x="242.093" y="133.315" width="0.826" height="17.008" style="fill:white;"/>
                </g>
                <rect x="40.761" y="124.832" width="2.381" height="34.016" style="fill:white;"/>
                <g transform="matrix(1,0,0,1,55.2066,137.759)">
                    <path d="M0,8.163C-1.072,8.163 -2.02,7.772 -2.845,6.988C-3.67,6.205 -4.082,5.236 -4.082,4.082C-4.082,2.927 -3.67,1.958 -2.845,1.175C-2.02,0.391 -1.072,0 0,0C1.154,0 2.123,0.391 2.907,1.175C3.69,1.958 4.082,2.927 4.082,4.082C4.082,5.236 3.69,6.205 2.907,6.988C2.123,7.772 1.154,8.163 0,8.163" style="fill:white;fill-rule:nonzero;"/>
                </g>
            </g>
        </g>
    </g>
</svg>
