<?xml version="1.0" standalone="no"?>
<!DOCTYPE svg PUBLIC "-//W3C//DTD SVG 1.1//EN" "http://www.w3.org/Graphics/SVG/1.1/DTD/svg11.dtd" >
<svg xmlns="http://www.w3.org/2000/svg" xmlns:xlink="http://www.w3.org/1999/xlink" version="1.1">
<metadata>
Created by FontForge 20170731 at Fri Jan  3 17:41:32 2014
 By Aleksey,,,
Copyright (C) 2013 by Commercial Type. All rights reserved.
</metadata>
<defs>
<font id="DalaMoaRegular" horiz-adv-x="475" >
  <font-face 
    font-family="Dala Moa Regular"
    font-weight="400"
    font-stretch="normal"
    units-per-em="1000"
    panose-1="2 0 0 0 0 0 0 0 0 0"
    ascent="822"
    descent="-178"
    x-height="421"
    cap-height="630"
    bbox="-160 -225 923 921"
    underline-thickness="25"
    underline-position="46"
    unicode-range="U+000D-FB06"
  />
<missing-glyph horiz-adv-x="179" 
 />
    <glyph glyph-name="f_b" unicode="fb" horiz-adv-x="726" 
d="M436 -8q-102 5 -165 26v374h-123v-392h-86v392h-59v29h59v104q0 80 47 116.5t131 45.5v-8q-92 -16 -92 -112v-146h123v181q-27 8 -27 37q0 35 40 40l74 9v-665q31 -17 78 -23v-8zM465 0q64 5 103 59t39 148q0 181 -126 181q-53 0 -99 -34v8q22 29 60 48t83 19
q86 0 129.5 -54t43.5 -152q0 -103 -63 -164t-170 -67v8z" />
    <glyph glyph-name="f_f_b" unicode="ffb" horiz-adv-x="935" 
d="M62 392h-59v29h59v87q0 144 182 164v-8q-96 -17 -96 -112v-131h123v102q0 21 3 39q-26 12 -26 39q0 17 12 28t29 11q13 0 22 -6q43 43 138 55v-9q-91 -16 -91 -113v-146h123v181q-27 7 -27 37q0 33 40 40l73 9v-665q31 -17 78 -23v-8q-110 6 -164 26v374h-123v-392h-87
v392h-123v-392h-86v392zM674 0q64 5 103.5 59t39.5 148q0 181 -126 181q-53 0 -99 -34v8q22 29 60 48t83 19q85 0 128.5 -53.5t43.5 -152.5q0 -103 -63 -164t-170 -67v8z" />
    <glyph glyph-name="f_f_h" unicode="ffh" horiz-adv-x="903" 
d="M62 392h-59v29h59v87q0 144 182 164v-8q-96 -17 -96 -112v-131h123v102q0 21 3 39q-26 12 -26 39q0 17 12 28t29 11q13 0 23 -6q41 41 137 53v-8q-91 -16 -91 -114v-144h123v181q-27 7 -27 37q0 35 42 40l71 9v-688h-86v392h-123v-392h-87v392h-123v-392h-86v392z
M766 294q0 85 -87 85q-43 0 -89 -28v7q25 30 62.5 50t77.5 20q60 0 91 -33.5t31 -91.5v-303h-86v294z" />
    <glyph glyph-name="f_f_k" unicode="ffk" horiz-adv-x="867" 
d="M62 392h-59v29h59v87q0 144 182 164v-8q-96 -17 -96 -112v-131h123v102q0 21 3 39q-26 12 -26 39q0 17 12 28t29 11q13 0 23 -6q41 41 137 53v-8q-91 -16 -91 -114v-144h123v181q-27 7 -27 37q0 35 42 40l71 9v-688h-86v392h-123v-392h-87v392h-123v-392h-86v392zM770 0
q-82 82 -163 199l57 60q41 -62 101.5 -137t102.5 -117v-5h-98zM719 335q18 59 21 86h105q-57 -37 -120 -93z" />
    <glyph glyph-name="f_h" unicode="fh" horiz-adv-x="694" 
d="M62 392h-59v29h59v104q0 80 47 116.5t131 45.5v-8q-92 -16 -92 -112v-146h123v181q-27 8 -27 37q0 35 43 40l71 9v-688h-87v392h-123v-392h-86v392zM556 294q0 85 -86 85q-43 0 -89 -28v7q23 29 61.5 49.5t78.5 20.5q59 0 90.5 -33.5t31.5 -91.5v-303h-87v294z" />
    <glyph glyph-name="f_k" unicode="fk" horiz-adv-x="658" 
d="M561 0q-63 64 -164 199l58 60q41 -62 101.5 -137t102.5 -117v-5h-98zM509 335q18 59 22 86h104q-73 -51 -120 -93zM62 392h-59v29h59v104q0 80 47 116.5t131 45.5v-8q-92 -16 -92 -112v-146h123v181q-27 8 -27 37q0 35 43 40l71 9v-688h-87v392h-123v-392h-86v392z" />
    <glyph glyph-name="f_f" unicode="ff" horiz-adv-x="461" 
d="M271 392h-123v-392h-86v392h-59v29h59v87q0 144 182 164v-8q-96 -17 -96 -112v-131h123v102q0 24 4 39q-27 12 -27 39q0 17 12 28t29 11q14 0 24 -7q44 42 141 54v-8q-96 -17 -96 -114v-144h93v-29h-93v-392h-87v392zM498 575q-17 0 -28.5 11t-11.5 29q0 17 11.5 28.5
t28.5 11.5t29 -11.5t12 -28.5q0 -18 -11.5 -29t-29.5 -11z" />
    <glyph glyph-name="f_i" unicode="fi" horiz-adv-x="413" 
d="M316 545q-21 0 -35 13.5t-14 34.5t14 34.5t35 13.5t35 -13.5t14 -34.5t-14 -34.5t-35 -13.5zM66 0v392h-58v29h58v99q0 81 58 123t151 44v-8q-123 -9 -123 -128v-130h209v-421h-86v392h-123v-392h-86z" />
    <glyph glyph-name="f_l" unicode="fl" horiz-adv-x="411" 
d="M62 392h-59v29h59v104q0 80 47 116.5t131 45.5v-8q-92 -15 -92 -113v-145h123v181q-27 8 -27 37q0 35 43 40l71 9v-688h-87v392h-123v-392h-86v392z" />
    <glyph glyph-name="f_f_i" unicode="ffi" horiz-adv-x="622" 
d="M275 0v392h-123v-392h-86v392h-58v29h58v72q0 81 50.5 125.5t131.5 53.5v-8q-96 -17 -96 -112v-131h123v97q0 21 5 43q-9 3 -16 10q-11 13 -11 30t11.5 28t28.5 11t27 -10q3 3 8.5 7.5t7.5 6.5q58 41 149 43v-8q-56 -4 -89.5 -36t-33.5 -96v-126h208v-421h-86v392h-122
v-392h-87zM527 545q-21 0 -35 13.5t-14 34.5t14 34.5t35 13.5t35 -13.5t14 -34.5t-14 -34.5t-35 -13.5z" />
    <glyph glyph-name="f_f_l" unicode="ffl" horiz-adv-x="620" 
d="M62 392h-59v29h59v87q0 144 182 164v-8q-96 -17 -96 -112v-131h123v102q0 21 3 39q-26 12 -26 39q0 17 12 28t29 11q13 0 23 -6q41 41 137 53v-8q-91 -16 -91 -114v-144h123v181q-27 7 -27 37q0 35 42 40l71 9v-688h-86v392h-123v-392h-87v392h-123v-392h-86v392z" />
    <glyph glyph-name="f_f_j" unicode="ffj" horiz-adv-x="622" 
d="M419 -154q33 11 49 35.5t16 78.5v432h-122v-392h-87v392h-123v-392h-86v392h-58v29h58v87q0 144 182 164v-8q-96 -17 -96 -112v-131h123v97q0 21 5 43q-9 3 -16 10q-11 13 -11 30t11.5 28t28.5 11t27 -10q3 3 8.5 7.5t7.5 6.5q58 41 149 43v-8q-56 -4 -89.5 -36
t-33.5 -96v-126h208v-405q0 -90 -39.5 -128t-111.5 -49v7zM527 545q-21 0 -35 13.5t-14 34.5t14 34.5t35 13.5t35 -13.5t14 -34.5t-14 -34.5t-35 -13.5zM366 -140q-17 0 -28.5 11t-11.5 28t11.5 28.5t28.5 11.5t28.5 -11t11.5 -28t-11.5 -28.5t-28.5 -11.5z" />
    <glyph glyph-name="f_j" unicode="fj" horiz-adv-x="413" 
d="M316 545q-21 0 -35 13.5t-14 34.5t14 34.5t35 13.5t35 -13.5t14 -34.5t-14 -34.5t-35 -13.5zM157 -140q-17 0 -28.5 11t-11.5 28t11.5 28.5t28.5 11.5q16 0 28 -11t12 -28t-12 -28.5t-28 -11.5zM210 -154q33 11 49 35.5t16 78.5v432h-123v-392h-86v392h-58v29h58v99
q0 81 58.5 123t151.5 44v-8q-124 -9 -124 -129v-129h209v-405q0 -90 -39.5 -128t-111.5 -49v7z" />
    <glyph glyph-name=".notdef" horiz-adv-x="179" 
 />
    <glyph glyph-name=".null" horiz-adv-x="0" 
 />
    <glyph glyph-name="nonmarkingreturn" horiz-adv-x="333" 
 />
    <glyph glyph-name="NULL" horiz-adv-x="0" 
 />
    <glyph glyph-name="NULL" horiz-adv-x="0" 
 />
    <glyph glyph-name="CR" unicode="&#xd;" horiz-adv-x="179" 
 />
    <glyph glyph-name="space" unicode=" " horiz-adv-x="179" 
 />
    <glyph glyph-name="exclam" unicode="!" horiz-adv-x="217" 
d="M108 -8q-19 0 -32.5 12.5t-13.5 32.5t13.5 32.5t32.5 12.5q20 0 33.5 -12.5t13.5 -32.5t-13.5 -32.5t-33.5 -12.5zM98 155q-3 81 -19 248.5t-19 226.5h98q-3 -60 -19.5 -227.5t-19.5 -247.5h-21z" />
    <glyph glyph-name="quotedbl" unicode="&#x22;" horiz-adv-x="278" 
d="M68 461q-2 24 -15 100t-15 99h77q-2 -15 -15 -92.5t-15 -106.5h-17zM193 461q-2 24 -15 100t-15 99h77q-2 -15 -15 -92.5t-15 -106.5h-17z" />
    <glyph glyph-name="numbersign" unicode="#" horiz-adv-x="531" 
d="M27 199h97l-5 -21h-96zM62 372h99l-4 -21h-99zM226 550h25l-119 -550h-25zM200 199h99l-5 -21h-98zM236 372h100l-5 -21h-100zM398 550h25l-119 -550h-25zM372 199h100l-5 -21h-99zM409 372h99l-4 -21h-99z" />
    <glyph glyph-name="dollar" unicode="$" horiz-adv-x="409" 
d="M304 103q0 35 -18 55.5t-61 47.5l-24 14l-24 -297h-16l24 307l-33 20q-53 33 -82 67.5t-29 80.5q0 67 42.5 107.5t104.5 46.5v-8q-32 -7 -56 -30t-24 -64q0 -36 19 -58.5t64 -49.5l10 -7l24 295h16l-24 -305l47 -30q56 -33 83 -66t27 -81q0 -73 -48.5 -112t-116.5 -43v8
q37 8 66 32t29 70zM318 447q-15 0 -26 10.5t-11 26.5t11 27t26 11t26 -11t11 -27t-11 -26.5t-26 -10.5zM72 32q-15 0 -26 11t-11 27q0 15 11 26t26 11t26 -11t11 -26q0 -16 -11 -27t-26 -11z" />
    <glyph glyph-name="percent" unicode="%" horiz-adv-x="613" 
d="M150 318q-52 7 -90 42.5t-38 98.5t38.5 98.5t89.5 42.5v-9q-67 -12 -67 -132t67 -132v-9zM178 327q32 6 49.5 40.5t17.5 91.5q0 120 -67 132v9q50 -7 89 -42.5t39 -98.5t-38 -98.5t-90 -42.5v9zM434 -8q-51 7 -89.5 43t-38.5 99t38 98t90 42v-9q-32 -6 -49.5 -40.5
t-17.5 -90.5q0 -121 67 -133v-9zM461 1q68 13 68 133q0 118 -68 131v9q52 -7 90 -42t38 -98t-38.5 -99t-89.5 -43v9zM103 3l390 598l16 -12l-391 -597z" />
    <glyph glyph-name="ampersand" unicode="&#x26;" horiz-adv-x="628" 
d="M213 357q-67 88 -67 150q0 53 37 88.5t93 42.5v-9q-54 -19 -54 -78q0 -30 15 -58.5t56 -85.5l314 -407h-114zM205 -8q-80 0 -126 48.5t-46 125.5q0 53 35.5 103.5t88.5 79.5l4 -8q-57 -42 -57 -129q0 -68 45.5 -119t108.5 -51q65 0 106 39l5 -7q-23 -35 -67.5 -58.5
t-96.5 -23.5zM326 434q25 19 37 41t12 59q0 82 -65 95v9q58 -5 89 -32.5t31 -70.5q0 -37 -29.5 -65.5t-69.5 -41.5zM497 271q29 68 44 126h87q-64 -62 -126 -132z" />
    <glyph glyph-name="quotesingle" unicode="'" horiz-adv-x="153" 
d="M68 461q-2 24 -15 100t-15 99h77q-2 -15 -15 -92.5t-15 -106.5h-17z" />
    <glyph glyph-name="parenleft" unicode="(" horiz-adv-x="262" 
d="M231 -188q-169 186 -169 419q0 240 169 419h16q-113 -188 -113 -419t113 -419h-16z" />
    <glyph glyph-name="parenright" unicode=")" horiz-adv-x="262" 
d="M15 -188q114 190 114 419t-114 419h17q168 -181 168 -419q0 -234 -168 -419h-17z" />
    <glyph glyph-name="asterisk" unicode="*" horiz-adv-x="343" 
d="M60 390l46 42q39 36 46 43l12 -8q-5 -10 -14 -28.5t-13 -27.5q-7 -13 -13.5 -27t-10.5 -22t-3 -8zM42 565l8 -5q7 -4 21.5 -12.5t25.5 -14.5q5 -3 15.5 -9t20.5 -11.5t19 -10.5l-3 -13q-37 5 -62 9q-8 1 -22.5 2t-20.5 3q-14 2 -20 3zM165 512q-8 36 -12 61
q-12 53 -12 62h62l-1 -9q-2 -8 -5 -24t-6 -29q-4 -25 -12 -61h-14zM234 355q-2 4 -8 17q-2 5 -9 18t-10 21l-28 56l12 9q7 -7 46 -43l47 -42zM319 506l-9 -1q-8 -1 -25 -3.5t-28 -3.5q-25 -4 -62 -9l-4 13q9 5 19 10.5t20.5 11.5t15.5 9q11 7 25 15t22 12l8 5z" />
    <glyph glyph-name="plus" unicode="+" horiz-adv-x="429" 
d="M226 210v-148h-23v148h-148v24h148v147h23v-147h148v-24h-148z" />
    <glyph glyph-name="comma" unicode="," horiz-adv-x="196" 
d="M37 -99q6 26 17 98.5t14 87.5h82q-9 -21 -45 -93.5t-45 -92.5h-23z" />
    <glyph glyph-name="hyphen" unicode="-" horiz-adv-x="240" 
d="M43 268h154v-48h-154v48z" />
    <glyph glyph-name="period" unicode="." horiz-adv-x="196" 
d="M98 -8q-21 0 -35 14t-14 35t14 35t35 14t35 -14t14 -35t-14 -35t-35 -14z" />
    <glyph glyph-name="slash" unicode="/" horiz-adv-x="269" 
d="M-69 -171l322 817l23 -9l-322 -817z" />
    <glyph glyph-name="zero" unicode="0" horiz-adv-x="485" 
d="M227 -8q-87 4 -144 67t-57 151q0 89 57 152t144 67v-8q-42 -5 -76 -56t-34 -155t33.5 -154.5t76.5 -55.5v-8zM258 0q43 5 76.5 55.5t33.5 154.5t-34.5 155t-75.5 56v8q86 -4 143 -67t57 -152q0 -88 -57 -151t-143 -67v8z" />
    <glyph glyph-name="one" unicode="1" horiz-adv-x="252" 
d="M-1 375l73 23v-40h-73v17zM99 407l86 24v-431h-86v407z" />
    <glyph glyph-name="two" unicode="2" horiz-adv-x="388" 
d="M106 93q35 27 55.5 45t43 45t32.5 57t10 66q0 45 -26 69.5t-71 24.5q-29 0 -59 -10v7q43 32 105 32q68 0 103.5 -32.5t35.5 -83.5q0 -65 -57 -118t-161 -102h-11zM77 285q-17 0 -28 12t-11 29q0 16 11 27.5t28 11.5q16 0 27.5 -11.5t11.5 -27.5q0 -17 -11.5 -29
t-27.5 -12zM84 67h277l-3 -67h-351z" />
    <glyph glyph-name="three" unicode="3" horiz-adv-x="390" 
d="M106 -143q72 7 121 46t49 119q0 73 -33.5 102t-109.5 29h-26v12h26q65 0 93.5 38.5t28.5 97.5q0 102 -110 102q-39 0 -77 -18v7q47 37 121 37q73 0 112.5 -34.5t39.5 -91.5q0 -58 -44 -95t-115 -47v-1q82 -4 133.5 -39t51.5 -98q0 -46 -25 -80.5t-66.5 -53t-83.5 -28
t-86 -11.5v7zM60 -120q-17 0 -28 11.5t-11 28.5q0 16 11 27.5t28 11.5t28 -11.5t11 -27.5q0 -17 -11 -28.5t-28 -11.5zM66 278q-17 0 -29 11.5t-12 29.5q0 17 12 28.5t29 11.5t28.5 -11.5t11.5 -28.5q0 -18 -11.5 -29.5t-28.5 -11.5z" />
    <glyph glyph-name="four" unicode="4" horiz-adv-x="453" 
d="M216 345l65 85h19v-533h-84v448zM54 109h122v-69h-178zM343 109h95v-69h-95v69z" />
    <glyph glyph-name="five" unicode="5" horiz-adv-x="385" 
d="M98 -153q76 9 128 49t52 111q0 73 -35.5 106.5t-115.5 33.5q-35 0 -75 -7v67q54 10 102 10q202 0 202 -172q0 -88 -73 -143.5t-185 -61.5v7zM58 -130q-17 0 -28.5 12t-11.5 29t11.5 28.5t28.5 11.5t28.5 -11.5t11.5 -28.5t-11.5 -29t-28.5 -12zM52 421h281v-72h-281v72z
" />
    <glyph glyph-name="six" unicode="6" horiz-adv-x="487" 
d="M264 1q49 8 77.5 58t28.5 112q0 84 -29 121t-92 37q-58 0 -97 -29v9q16 20 55 36.5t80 16.5q84 0 129 -44.5t45 -128.5t-58.5 -138.5t-138.5 -58.5v9zM239 -8q-91 2 -149.5 69.5t-58.5 178.5q0 141 103.5 247t259.5 116v-9q-116 -12 -194 -111.5t-78 -240.5
q0 -226 117 -241v-9zM415 490q-17 0 -29 12.5t-12 29.5t12 29.5t29 12.5t29 -12.5t12 -29.5t-12 -29.5t-29 -12.5z" />
    <glyph glyph-name="seven" unicode="7" horiz-adv-x="411" 
d="M323 306h13l-221 -473h-84zM21 421h366l-31 -73h-335v73z" />
    <glyph glyph-name="eight" unicode="8" horiz-adv-x="447" 
d="M219 -7q-79 0 -135.5 36t-56.5 106q0 78 119 128l5 -5q-30 -20 -51 -52t-21 -68q0 -65 37 -101t103 -36q62 0 98.5 27.5t36.5 81.5q0 26 -8.5 46t-33 40.5t-43.5 33t-66 39.5q-40 24 -61 38.5t-45.5 37.5t-34.5 49t-10 60q0 65 53.5 107t130.5 42q78 0 122.5 -31
t44.5 -88q0 -41 -30 -71.5t-75 -46.5l-5 4q60 41 60 114q0 55 -27 83t-90 28q-54 0 -86.5 -25.5t-32.5 -70.5q0 -16 2.5 -29.5t11.5 -26.5t14 -20.5t23 -20.5t25 -18t34 -21.5t36 -22.5q84 -52 110 -78q48 -47 48 -107q0 -78 -57.5 -120t-144.5 -42z" />
    <glyph glyph-name="nine" unicode="9" horiz-adv-x="485" 
d="M204 52q-82 0 -130 48t-48 131q0 85 58.5 139.5t138.5 58.5v-9q-49 -9 -77 -59t-28 -114q0 -85 29 -123.5t91 -38.5q50 0 95 32v-9q-17 -22 -51.5 -39t-77.5 -17zM366 188q0 110 -27 167t-90 65v9q92 -2 150 -68t58 -180q0 -133 -102.5 -230t-261.5 -107v8
q117 12 195 104.5t78 231.5zM72 -128q-17 0 -29 12t-12 29q0 18 12 30.5t29 12.5t29 -12.5t12 -30.5q0 -17 -12 -29t-29 -12z" />
    <glyph glyph-name="colon" unicode=":" horiz-adv-x="214" 
d="M107 -8q-21 0 -35 13.5t-14 34.5t14 35t35 14t35 -14t14 -35t-14 -34.5t-35 -13.5zM107 332q-21 0 -35 13.5t-14 34.5t14 35t35 14t35 -14t14 -35t-14 -34.5t-35 -13.5z" />
    <glyph glyph-name="semicolon" unicode=";" horiz-adv-x="214" 
d="M37 -99q6 26 17 98.5t14 87.5h82q-9 -21 -45 -93.5t-45 -92.5h-23zM107 332q-21 0 -35 13.5t-14 34.5t14 35t35 14t35 -14t14 -35t-14 -34.5t-35 -13.5z" />
    <glyph glyph-name="less" unicode="&#x3c;" horiz-adv-x="406" 
d="M59 209v26l282 114v-24l-253 -102l253 -103v-24z" />
    <glyph glyph-name="equal" unicode="=" horiz-adv-x="429" 
d="M55 159h319v-24h-319v24zM55 309h319v-24h-319v24z" />
    <glyph glyph-name="greater" unicode="&#x3e;" horiz-adv-x="406" 
d="M65 120l253 103l-253 102v24l282 -113v-26l-282 -114v24z" />
    <glyph glyph-name="question" unicode="?" horiz-adv-x="405" 
d="M108 282q44 7 73 17t56.5 29.5t41 53.5t13.5 84q0 40 -14 70t-39 47t-51 26t-57 12v9q68 -3 120.5 -17.5t90 -52t37.5 -94.5q0 -50 -21.5 -88t-58.5 -60t-78 -34.5t-90 -16.5v-109h-23v124zM82 510q-18 0 -30.5 13t-12.5 31q0 19 13 32t30 13q18 0 31 -13.5t13 -31.5
t-13 -31t-31 -13zM121 -8q-20 0 -33 12t-13 32t13.5 32t32.5 12t32 -12t13 -32t-13 -32t-32 -12z" />
    <glyph glyph-name="at" unicode="@" horiz-adv-x="757" 
d="M381 -179q-158 0 -256 90t-98 256q0 173 119 287t292 114q82 0 141.5 -22.5t92.5 -62.5t48 -87.5t15 -105.5q0 -121 -79.5 -205.5t-195.5 -84.5h-53l77 402l79 21l2 -2l-76 -398q89 6 156 84t67 183q0 52 -12.5 95t-41.5 81.5t-85 60.5t-135 22q-163 0 -276 -109.5
t-113 -272.5q0 -155 92 -241t240 -86q177 0 304 102l11 -15q-125 -106 -315 -106zM267 -8q-45 0 -70.5 33t-25.5 95q0 106 92.5 192t187.5 95v-8q-76 -16 -140.5 -98.5t-64.5 -167.5q0 -95 65 -95q53 0 85 45l5 -4q-19 -32 -57 -59.5t-77 -27.5z" />
    <glyph glyph-name="A" unicode="A" horiz-adv-x="545" 
d="M129 263h202l-103 268l41 106h25l242 -637h-103l-94 242h-218zM4 0q64 107 82 144l10 -4q-14 -122 -15 -140h-77z" />
    <glyph glyph-name="B" unicode="B" horiz-adv-x="516" 
d="M217 9q78 6 124 47t46 121t-40 113.5t-120 37.5v10q133 12 133 141q0 76 -34.5 104t-108.5 37v10q115 -4 176 -37t61 -112q0 -59 -51 -96.5t-122 -48.5v-2q94 -11 149.5 -47t55.5 -112q0 -170 -269 -175v9zM67 630h99v-630h-99v630z" />
    <glyph glyph-name="C" unicode="C" horiz-adv-x="570" 
d="M339 -8q-141 8 -224.5 93.5t-83.5 229.5q0 135 90 224t220 99v-10q-99 -15 -152.5 -96.5t-53.5 -216.5t52.5 -216.5t151.5 -96.5v-10zM382 2q74 19 160 83v-69q-63 -19 -160 -24v10zM536 550q-87 62 -152 78v10q94 -4 152 -22v-66z" />
    <glyph glyph-name="D" unicode="D" horiz-adv-x="629" 
d="M226 9q121 7 196 81.5t75 224.5q0 153 -74 225.5t-197 79.5v10q72 -1 135.5 -18.5t118.5 -53t87 -98t32 -145.5q0 -81 -32 -143t-86 -98t-118.5 -54.5t-136.5 -19.5v9zM67 630h99v-630h-99v630z" />
    <glyph glyph-name="E" unicode="E" horiz-adv-x="504" 
d="M67 630h99v-630h-99v630zM226 9q134 25 252 57v-66h-252v9zM376 288q-24 5 -150 26v9q31 5 76.5 13t73.5 12v-60zM470 567q-16 4 -58 15t-61.5 15.5t-55 11t-69.5 11.5v10h244v-63z" />
    <glyph glyph-name="F" unicode="F" horiz-adv-x="482" 
d="M67 630h99v-630h-99v630zM376 294q-49 10 -150 27v10q126 21 150 26v-63zM465 568q-97 25 -239 52v10h239v-62z" />
    <glyph glyph-name="G" unicode="G" horiz-adv-x="627" 
d="M333 -8q-143 8 -222.5 98t-79.5 225q0 142 90.5 226.5t236.5 96.5v-10q-100 -16 -162 -99.5t-62 -213.5q0 -75 18 -139.5t64.5 -114.5t116.5 -60v-9zM378 1q63 8 107 28v235h90v-235q-85 -32 -197 -37v9zM564 549q-85 59 -161 79v10q105 -5 161 -19v-70z" />
    <glyph glyph-name="H" unicode="H" horiz-adv-x="647" 
d="M67 630h99v-630h-99v630zM199 340h249v-21h-249v21zM481 630h98v-630h-98v630z" />
    <glyph glyph-name="I" unicode="I" horiz-adv-x="233" 
d="M67 630h99v-630h-99v630z" />
    <glyph glyph-name="J" unicode="J" horiz-adv-x="373" 
d="M120 1q47 11 69 44.5t22 93.5v491h98v-463q0 -85 -56.5 -128t-132.5 -47v9zM53 20q-21 0 -35 14t-14 36t14 36t35 14t36 -14.5t15 -35.5t-15 -35.5t-36 -14.5z" />
    <glyph glyph-name="K" unicode="K" horiz-adv-x="592" 
d="M471 0q-151 184 -239 305l68 66q65 -93 144 -194q19 -25 41 -52t50.5 -61t46.5 -57v-7h-111zM67 630h99v-630h-99v630zM416 501q50 112 57 129h99q-27 -26 -71.5 -65.5t-77.5 -70.5z" />
    <glyph glyph-name="L" unicode="L" horiz-adv-x="486" 
d="M68 630h98v-630h-98v630zM227 9q47 10 81 19t85.5 26.5t74.5 24.5v-79h-241v9z" />
    <glyph glyph-name="M" unicode="M" horiz-adv-x="753" 
d="M51 630h104l258 -535l-49 -103h-5zM25 0q38 82 69 173h11q-2 -90 2 -173h-82zM565 630h96l30 -630h-96z" />
    <glyph glyph-name="N" unicode="N" horiz-adv-x="615" 
d="M130 487q-48 66 -113 143h127l397 -547v-86h-57zM41 0q25 100 38 160h10q12 -73 38 -160h-86zM530 472q-19 91 -38 158h86q-17 -60 -38 -158h-10z" />
    <glyph glyph-name="O" unicode="O" horiz-adv-x="692" 
d="M322 -8q-123 8 -207 102t-84 221t84 221t207 102v-9q-66 -10 -110 -59t-61 -113t-17 -142q0 -77 17 -141.5t61 -114t110 -58.5v-9zM370 1q67 9 111 58.5t60.5 114t16.5 141.5q0 78 -16.5 142t-60.5 113t-111 59v9q123 -8 207 -102t84 -221t-84 -221t-207 -102v9z" />
    <glyph glyph-name="P" unicode="P" horiz-adv-x="503" 
d="M224 285q85 9 120.5 50t35.5 124q0 84 -37.5 118t-118.5 43v10q257 -12 257 -169q0 -169 -257 -186v10zM67 630h99v-630h-99v630z" />
    <glyph glyph-name="Q" unicode="Q" horiz-adv-x="692" 
d="M322 -8q-123 8 -207 102t-84 221t84 221t207 102v-9q-66 -10 -110 -59t-61.5 -113.5t-17.5 -141.5t17.5 -141.5t61.5 -114t110 -58.5v-9zM370 1q67 9 111 58.5t61 114t17 141.5q0 122 -45.5 210.5t-143.5 103.5v9q123 -8 207 -102t84 -221t-84 -221t-207 -102v9z
M624 -159q-178 52 -293 107v10q164 -32 307 -52z" />
    <glyph glyph-name="R" unicode="R" horiz-adv-x="541" 
d="M434 0q-18 27 -96 137.5t-115 168.5q150 34 150 158q0 77 -39 112t-116 44v10q40 -2 73 -6.5t68 -16t58.5 -29.5t39 -48t15.5 -70q0 -55 -42.5 -94t-106.5 -59q24 -39 218 -302v-5h-107zM67 630h99v-630h-99v630z" />
    <glyph glyph-name="S" unicode="S" horiz-adv-x="464" 
d="M227 1q116 26 116 137q0 46 -25 72t-95 65l-40 21q-69 35 -104 73t-35 99q0 71 54.5 118.5t124.5 51.5v-9q-43 -4 -73 -34t-30 -71q0 -52 22.5 -77t99.5 -68l35 -18q77 -44 99 -66q44 -43 44 -114q0 -82 -60.5 -133.5t-132.5 -55.5v9zM179 -8q-97 5 -143 25v70
q66 -67 143 -86v-9zM394 558q-68 59 -123 71v9q86 -6 123 -16v-64z" />
    <glyph glyph-name="T" unicode="T" horiz-adv-x="551" 
d="M9 630h176v-10q-54 -15 -176 -66v76zM226 630h99v-630h-99v630zM542 554q-122 51 -176 66v10h176v-76z" />
    <glyph glyph-name="U" unicode="U" horiz-adv-x="604" 
d="M303 -8q-110 0 -174.5 59t-64.5 175v404h98v-400q0 -90 46 -135t129 -45q108 0 156 58l7 -6q-22 -48 -72.5 -79t-124.5 -31zM525 460q-18 88 -40 170h89q-28 -111 -39 -170h-10z" />
    <glyph glyph-name="V" unicode="V" horiz-adv-x="544" 
d="M10 630h103l208 -528l-42 -105h-25zM449 476q3 24 18 154h80q-54 -92 -89 -159z" />
    <glyph glyph-name="W" unicode="W" horiz-adv-x="820" 
d="M15 630h103l180 -524l-41 -109h-26zM329 630h103l180 -524l-41 -109h-25zM721 476q7 49 18 154h81q-58 -99 -89 -159z" />
    <glyph glyph-name="X" unicode="X" horiz-adv-x="576" 
d="M42 630h110l405 -630h-113zM11 0q24 26 55.5 59.5t51 55.5t35.5 42l9 -6l-60 -151h-91zM429 496q27 72 47 134h87q-78 -83 -126 -140z" />
    <glyph glyph-name="Y" unicode="Y" horiz-adv-x="528" 
d="M202 295l-202 335h108l193 -317v-313h-99v295zM399 491q42 101 57 139h82q-23 -23 -42 -44t-43.5 -48.5t-46.5 -51.5z" />
    <glyph glyph-name="Z" unicode="Z" horiz-adv-x="546" 
d="M48 630h246v-11q-124 -22 -253 -60zM412 630h109l-384 -630h-107zM246 9q92 14 264 65l-7 -74h-257v9z" />
    <glyph glyph-name="bracketleft" unicode="[" horiz-adv-x="266" 
d="M77 650h186v-19h-120v-800h120v-19h-186v838z" />
    <glyph glyph-name="backslash" unicode="\" horiz-adv-x="269" 
d="M-7 637l23 9l322 -817l-23 -9z" />
    <glyph glyph-name="bracketright" unicode="]" horiz-adv-x="266" 
d="M3 -169h120v800h-120v19h186v-838h-186v19z" />
    <glyph glyph-name="asciicircum" unicode="^" horiz-adv-x="392" 
d="M187 591h19l129 -260h-24l-115 231l-114 -231h-24z" />
    <glyph glyph-name="underscore" unicode="_" horiz-adv-x="487" 
d="M-7 -98h500v-21h-500v21z" />
    <glyph glyph-name="grave" unicode="`" horiz-adv-x="422" 
d="M112 545l22 58q32 -17 162 -90l-3 -8z" />
    <glyph glyph-name="a" unicode="a" horiz-adv-x="405" 
d="M134 -8q-54 0 -81.5 30t-27.5 72q0 29 13.5 50t27 29.5t36.5 19.5q26 10 140 38v-9q-76 -23 -100 -39q-33 -24 -33 -75q0 -77 63 -77q34 0 72 28v-7q-40 -60 -110 -60zM267 303q0 51 -23 72t-76 21q-44 0 -69 -12v8q16 13 53 25t73 12q129 0 129 -111v-318h-87v303z
M89 286q-17 0 -27.5 11t-10.5 27t10.5 27t27.5 11t27 -11t10 -27t-10 -27t-27 -11z" />
    <glyph glyph-name="b" unicode="b" horiz-adv-x="507" 
d="M245 0q64 4 103.5 58.5t39.5 148.5q0 91 -29 135.5t-91 44.5q-60 0 -105 -33v8q22 26 62 46.5t81 20.5q86 0 129.5 -54t43.5 -152q0 -103 -63 -164t-171 -67v8zM216 -8q-101 5 -164 26v658l87 12v-659q29 -23 77 -29v-8z" />
    <glyph glyph-name="c" unicode="c" horiz-adv-x="397" 
d="M229 -8q-94 0 -148.5 61t-54.5 154q0 99 67 155.5t169 65.5v-8q-67 -9 -107.5 -58.5t-40.5 -129.5q0 -78 40.5 -127t107.5 -49q75 0 124 45v-9q-51 -100 -157 -100zM325 319q-20 0 -33 13t-13 32q0 20 13 33t33 13t33 -13t13 -33t-13 -32.5t-33 -12.5z" />
    <glyph glyph-name="d" unicode="d" horiz-adv-x="489" 
d="M208 -8q-81 0 -130.5 56.5t-49.5 155.5q0 97 67 159t155 66v-8q-59 -6 -96 -59.5t-37 -136.5q0 -93 36.5 -141t96.5 -48q43 0 77 32v-8q-35 -68 -119 -68zM351 395q-25 18 -61 26v8q59 -8 61 -8v255l86 12v-685l-86 -8v400z" />
    <glyph glyph-name="e" unicode="e" horiz-adv-x="419" 
d="M231 -8q-95 0 -150 62t-55 163q0 87 58 146t132 65v-8q-51 -14 -76.5 -61.5t-25.5 -114.5q0 -92 42.5 -139t111.5 -47q81 0 130 46v-11q-20 -40 -62.5 -70.5t-104.5 -30.5zM152 265l162 10q0 61 -17 100.5t-47 44.5v8q72 -6 108 -53t36 -119h-242v9z" />
    <glyph glyph-name="f" unicode="f" horiz-adv-x="240" 
d="M61 392h-58v29h58v102q0 144 183 164v-8q-96 -17 -96 -114v-144h93v-29h-93v-392h-87v392zM288 575q-17 0 -28.5 11t-11.5 29q0 17 11.5 28.5t28.5 11.5t29 -11.5t12 -28.5q0 -18 -11.5 -29t-29.5 -11z" />
    <glyph glyph-name="g" unicode="g" horiz-adv-x="441" 
d="M224 -199q153 19 153 115q0 63 -85 63h-161q-98 0 -98 82q0 50 69 90l5 -6q-24 -18 -24 -47q0 -37 43 -37h172q64 0 101.5 -28.5t37.5 -86.5q0 -61 -56 -102t-157 -51v8zM194 -207q-194 2 -194 87q0 58 103 74v-8q-47 -17 -47 -64q0 -70 138 -81v-8zM196 146
q-65 7 -111.5 42.5t-46.5 98.5q0 62 47 98.5t111 43.5v-8q-34 -6 -55.5 -38.5t-21.5 -95.5q0 -118 77 -133v-8zM223 154q77 15 77 133q0 63 -21.5 95.5t-55.5 38.5v8q64 -7 111 -43.5t47 -98.5q0 -63 -46.5 -98.5t-111.5 -42.5v8zM403 381q-17 0 -29 12.5t-12 29.5t12 29.5
t29 12.5t29.5 -12.5t12.5 -29.5t-12.5 -29.5t-29.5 -12.5z" />
    <glyph glyph-name="h" unicode="h" 
d="M337 294q0 85 -86 85q-46 0 -89 -28v7q23 29 61.5 49.5t78.5 20.5q59 0 90.5 -33.5t31.5 -91.5v-303h-87v294zM52 677l87 11v-688h-87v677z" />
    <glyph glyph-name="i" unicode="i" horiz-adv-x="191" 
d="M52 415l86 13v-428h-86v415zM95 503q-21 0 -35 13.5t-14 34.5t14 34.5t35 13.5t35 -13.5t14 -34.5t-14 -34.5t-35 -13.5z" />
    <glyph glyph-name="j" unicode="j" horiz-adv-x="193" 
d="M97 503q-21 0 -35 13.5t-14 34.5t14 34.5t35 13.5t35 -13.5t14 -34.5t-14 -34.5t-35 -13.5zM-20 -154q74 24 74 114v455l86 13v-412q0 -89 -43 -127t-117 -50v7zM-64 -140q-16 0 -28 11.5t-12 28.5t12 28t28 11q17 0 28.5 -11t11.5 -28t-11.5 -28.5t-28.5 -11.5z" />
    <glyph glyph-name="k" unicode="k" horiz-adv-x="435" 
d="M340 0q-118 140 -162 199l58 60q55 -84 200 -254v-5h-96zM52 676l87 12v-688h-87v676zM290 335q18 59 22 86h104q-57 -40 -120 -93z" />
    <glyph glyph-name="l" unicode="l" horiz-adv-x="192" 
d="M53 676l86 12v-688h-86v676z" />
    <glyph glyph-name="m" unicode="m" horiz-adv-x="732" 
d="M324 295q0 43 -18.5 63.5t-62.5 20.5q-38 0 -81 -28v7q55 70 130 70q59 0 88.5 -33t29.5 -92v-303h-86v295zM595 295q0 43 -18.5 63.5t-62.5 20.5q-35 0 -81 -28v7q59 70 130 70q59 0 88.5 -33t29.5 -92v-303h-86v295zM52 418l87 11v-429h-87v418z" />
    <glyph glyph-name="n" unicode="n" 
d="M337 295q0 85 -86 85q-46 0 -89 -28v7q23 29 61.5 49.5t78.5 20.5q59 0 90.5 -33.5t31.5 -91.5v-304h-87v295zM52 418l87 11v-429h-87v418z" />
    <glyph glyph-name="o" unicode="o" horiz-adv-x="496" 
d="M228 -8q-88 8 -145 70t-57 148t57 148.5t145 70.5v-8q-26 -7 -48 -22q-63 -49 -63 -189q0 -139 63 -188q19 -16 48 -22v-8zM268 0q29 6 48 22q64 48 64 188q0 141 -64 189q-22 15 -48 22v8q88 -8 145 -70.5t57 -148.5t-57 -148t-145 -70v8z" />
    <glyph glyph-name="p" unicode="p" horiz-adv-x="507" 
d="M52 418l87 12v-399q31 -23 79 -31v-8q-43 2 -79 12v-182h-87v596zM247 0q63 6 102 59.5t39 147.5t-29.5 137t-95.5 43q-52 0 -100 -34v9q22 26 62 46.5t81 20.5q86 0 129.5 -54t43.5 -152q0 -104 -62 -165t-170 -66v8z" />
    <glyph glyph-name="q" unicode="q" horiz-adv-x="489" 
d="M209 -8q-81 0 -131 56t-50 153q0 103 68.5 163.5t159.5 64.5v-8q-61 -6 -100 -58.5t-39 -137.5q0 -92 37 -139.5t98 -47.5q43 0 75 32v-9q-15 -27 -45 -48t-73 -21zM350 399q-35 19 -63 22v8q99 -5 150 -17v-590h-87v577z" />
    <glyph glyph-name="r" unicode="r" horiz-adv-x="315" 
d="M164 329q9 38 39 69t72 31q22 0 30 -5v-72q-19 7 -47 7q-59 0 -94 -39v9zM52 418l87 11v-429h-87v418z" />
    <glyph glyph-name="s" unicode="s" horiz-adv-x="346" 
d="M172 0q32 4 57.5 26.5t25.5 59.5q0 30 -16.5 46t-51.5 33l-65 30q-90 36 -90 113q0 48 37 81.5t94 39.5v-8q-67 -13 -67 -66q0 -49 55 -73l78 -35q89 -40 89 -118q0 -58 -42 -95.5t-104 -41.5v8zM139 -8q-67 6 -107 16v67q61 -59 107 -75v-8zM289 355q-41 44 -98 66v8
q59 -3 98 -15v-59z" />
    <glyph glyph-name="t" unicode="t" horiz-adv-x="302" 
d="M179 -8q-109 0 -109 127v273h-65v29h65v111l86 29v-140h132v-29h-132v-262q0 -45 15 -69.5t56 -24.5q50 0 76 16v-10q-13 -19 -46.5 -34.5t-77.5 -15.5z" />
    <glyph glyph-name="u" unicode="u" 
d="M176 -7q-61 0 -93 34t-32 93v298l86 13v-304q0 -85 86 -85q43 0 90 29v-7q-21 -29 -59 -50t-78 -21zM336 418l86 13v-425l-86 -11v423z" />
    <glyph glyph-name="v" unicode="v" horiz-adv-x="385" 
d="M3 421h90l140 -333l-35 -89h-15zM310 308q11 70 16 113h66q-20 -27 -76 -119z" />
    <glyph glyph-name="w" unicode="w" horiz-adv-x="590" 
d="M5 421h92l130 -333l-36 -89h-19zM231 421h92l127 -333l-36 -89h-19zM513 308q12 80 16 113h67q-29 -40 -77 -119z" />
    <glyph glyph-name="x" unicode="x" horiz-adv-x="403" 
d="M5 0q85 84 112 117l5 -7q-6 -15 -19 -52t-21 -58h-77zM5 421h96l288 -421h-96zM289 313q4 17 15.5 51t17.5 57h77q-22 -23 -54 -58.5t-51 -56.5z" />
    <glyph glyph-name="y" unicode="y" horiz-adv-x="386" 
d="M4 421h90l146 -325l-36 -90h-14zM79 -178q-17 0 -28.5 11t-11.5 29q0 17 11.5 28t28.5 11t28.5 -11t11.5 -28t-11.5 -28.5t-28.5 -11.5zM310 308q6 29 16 113h67q-38 -56 -76 -119z" />
    <glyph glyph-name="z" unicode="z" horiz-adv-x="393" 
d="M36 421h137v-8q-56 -16 -141 -55zM278 421h97l-262 -421h-95zM212 8q89 22 161 59l-4 -67h-157v8z" />
    <glyph glyph-name="braceleft" unicode="{" horiz-adv-x="340" 
d="M332 -189q-85 2 -129 39.5t-44 129.5v109q0 76 -28.5 105.5t-94.5 29.5v14q67 0 95 28.5t28 105.5v109q0 92 44 129.5t129 39.5v-10q-48 -3 -76.5 -28.5t-28.5 -88.5v-133q0 -75 -31.5 -112.5t-100.5 -45.5v-2q69 -8 100.5 -46t31.5 -113v-133q0 -63 28.5 -88.5
t76.5 -28.5v-10z" />
    <glyph glyph-name="bar" unicode="|" horiz-adv-x="183" 
d="M78 649h27v-838h-27v838z" />
    <glyph glyph-name="braceright" unicode="}" horiz-adv-x="340" 
d="M8 -179q48 3 76.5 28.5t28.5 88.5v133q0 75 31.5 113t100.5 46v2q-69 8 -100.5 45.5t-31.5 112.5v133q0 63 -28.5 88.5t-76.5 28.5v10q86 -2 130 -39t44 -130v-109q0 -77 28 -105.5t95 -28.5v-14q-67 0 -95 -29.5t-28 -105.5v-109q0 -93 -44 -130t-130 -39v10z" />
    <glyph glyph-name="asciitilde" unicode="~" horiz-adv-x="406" 
d="M285 219q-9 0 -18 2.5t-19 7.5t-16.5 9t-18.5 12.5t-17 11.5q-17 12 -23.5 16t-19 8.5t-25.5 4.5q-55 0 -64 -69h-25q6 46 30.5 69.5t58.5 23.5q17 0 31.5 -5t23 -10t27.5 -18q5 -3 17 -12t19.5 -13.5t19 -9t21.5 -4.5q25 0 38 15.5t18 53.5h25q-12 -93 -83 -93z" />
    <glyph glyph-name="uni00A0" unicode="&#xa0;" horiz-adv-x="179" 
 />
    <glyph glyph-name="exclamdown" unicode="&#xa1;" horiz-adv-x="217" 
d="M109 488q19 0 32.5 -12.5t13.5 -32.5t-13.5 -32.5t-32.5 -12.5q-20 0 -33.5 12.5t-13.5 32.5t13.5 32.5t33.5 12.5zM119 325q3 -81 19 -248.5t19 -226.5h-98q3 60 19.5 227.5t19.5 247.5h21z" />
    <glyph glyph-name="cent" unicode="&#xa2;" horiz-adv-x="399" 
d="M226 -8q-18 0 -34 3l-11 -67h-15l12 69q-70 15 -111 70t-41 136q0 85 57 148.5t145 75.5v-7q-57 -10 -89 -61t-32 -129q0 -119 84 -160l75 429h15l-76 -435q25 -9 57 -9q74 0 124 50l2 -7q-16 -40 -56.5 -73t-105.5 -33zM327 319q-20 0 -33 13t-13 32q0 20 13 33t33 13
t32.5 -13t12.5 -33t-12.5 -32.5t-32.5 -12.5z" />
    <glyph glyph-name="sterling" unicode="&#xa3;" horiz-adv-x="441" 
d="M24 271h71l12 106q11 99 71.5 153t144.5 63v-8q-111 -23 -124 -163l-16 -151h115v-14h-117l-18 -177l-9 -80h-88l28 257h-70v14zM208 8q110 21 216 58v-66h-216v8zM366 475q-17 0 -29 12t-12 29t12 28.5t29 11.5t28.5 -11.5t11.5 -28.5t-11.5 -29t-28.5 -12z" />
    <glyph glyph-name="yen" unicode="&#xa5;" horiz-adv-x="440" 
d="M68 283h96l-165 275h89l167 -275h105v-14h-103v-66h103v-14h-103v-189h-86v189h-103v14h103v66h-103v14zM330 416q1 9 33 72t32 70h68q-4 -5 -60 -69.5t-66 -77.5z" />
    <glyph glyph-name="brokenbar" unicode="&#xa6;" horiz-adv-x="183" 
d="M78 185h27v-374h-27v374zM78 649h27v-375h-27v375z" />
    <glyph glyph-name="section" unicode="&#xa7;" horiz-adv-x="447" 
d="M146 -213q45 11 73 43t28 73q0 31 -14 57t-49 70q-6 8 -26.5 32t-38.5 45.5t-26 34.5q-71 89 -71 163q0 36 12.5 66.5t26.5 47.5t37 38l7 -7q-27 -35 -27 -79q0 -71 67 -160q13 -17 51.5 -63.5t43.5 -53.5q70 -86 70 -142q0 -60 -49.5 -111.5t-114.5 -61.5v8zM344 -29
q25 36 25 80q0 77 -82 177q-8 10 -42.5 51.5t-45.5 57.5q-63 80 -63 133q0 59 44.5 103.5t111.5 54.5v-8q-91 -23 -91 -103q0 -32 12.5 -57t41.5 -62q7 -9 43 -52t48 -57q79 -96 79 -173q0 -78 -74 -152zM104 -201q-18 0 -30 13t-12 29q0 17 12 29.5t30 12.5t30 -12.5
t12 -29.5q0 -16 -12 -29t-30 -13zM334 523q-17 0 -29.5 12.5t-12.5 29.5q0 16 12.5 29t29.5 13q18 0 30 -13t12 -29q0 -18 -12 -30t-30 -12z" />
    <glyph glyph-name="dieresis" unicode="&#xa8;" horiz-adv-x="423" 
d="M135 519q-17 0 -28 11t-11 28q0 16 11 27.5t28 11.5q16 0 27 -11.5t11 -27.5q0 -17 -11 -28t-27 -11zM287 519q-16 0 -27 11t-11 28q0 16 11 27.5t27 11.5q17 0 28 -11.5t11 -27.5q0 -17 -11 -28t-28 -11z" />
    <glyph glyph-name="copyright" unicode="&#xa9;" horiz-adv-x="702" 
d="M332 -6q-132 10 -218 97.5t-86 223.5t86 223.5t218 97.5v-13q-127 -10 -207.5 -94.5t-80.5 -213.5q0 -130 80.5 -214t207.5 -94v-13zM350 101q-91 4 -153.5 61.5t-62.5 152.5q0 90 64 149t150 65v-8q-66 -10 -103 -64.5t-37 -139.5q0 -90 37.5 -144t104.5 -63v-9zM370 7
q127 10 207.5 94t80.5 214q0 129 -81 213.5t-207 94.5v13q132 -10 218 -97.5t86 -223.5t-86 -223.5t-218 -97.5v13zM385 110q61 18 112 55v-46q-41 -14 -112 -18v9zM492 469q-48 37 -110 52v8q67 -2 109 -14z" />
    <glyph glyph-name="ordfeminine" unicode="&#xaa;" horiz-adv-x="273" 
d="M93 363q-32 0 -49.5 18.5t-17.5 46.5q0 45 57 64q22 8 73 23v-7q-22 -7 -50 -22q-25 -16 -25 -46q0 -51 36 -51q32 0 43 15v-6q-5 -11 -23 -23t-44 -12zM180 556q0 61 -65 61q-26 0 -47 -7v7q29 21 83 21q85 0 85 -71v-199h-56v188zM68 550q-24 0 -24 23t24 23t24 -23
t-24 -23z" />
    <glyph glyph-name="guillemotleft" unicode="&#xab;" horiz-adv-x="296" 
d="M31 218v9l113 119l7 -4l-67 -119l67 -120l-7 -4zM143 218v9l112 119l8 -4l-68 -119l68 -120l-8 -4z" />
    <glyph glyph-name="registered" unicode="&#xae;" horiz-adv-x="433" 
d="M267 356q-36 44 -70 93q26 4 38.5 14t12.5 33q0 26 -11 38t-37 14v5q84 0 84 -56q0 -34 -49 -49q28 -43 70 -89v-3h-38zM193 260q-71 8 -118.5 61.5t-47.5 126.5q0 72 47 125t119 63v-12q-65 -10 -108 -59.5t-43 -116.5t43 -116.5t108 -59.5v-12zM239 272q66 8 108.5 59
t42.5 117q0 67 -43 116.5t-108 59.5v12q72 -10 119 -63t47 -125q0 -73 -47.5 -126.5t-118.5 -61.5v12zM147 553h35v-197h-35v197z" />
    <glyph glyph-name="macron" unicode="&#xaf;" horiz-adv-x="422" 
d="M112 577h206v-30h-206v30z" />
    <glyph glyph-name="degree" unicode="&#xb0;" horiz-adv-x="302" 
d="M138 372q-45 3 -73 32.5t-28 76.5t28 76.5t73 32.5v-15q-37 -4 -59.5 -28.5t-22.5 -65.5t22.5 -65.5t59.5 -28.5v-15zM165 387q35 4 58 29t23 65t-23 65t-58 29v15q44 -3 72 -33t28 -76t-28 -76t-72 -33v15z" />
    <glyph glyph-name="twosuperior" unicode="&#xb2;" horiz-adv-x="314" 
d="M79 330q66 58 89 88q42 56 42 113q0 82 -84 82q-37 0 -68 -18v7q12 14 41 25t60 11q56 0 86 -27t30 -74q0 -33 -17 -64.5t-48 -58.5t-58 -45t-64 -39h-9zM58 524q-12 0 -20.5 8.5t-8.5 20.5t8.5 20.5t20.5 8.5t21 -8.5t9 -20.5t-9 -20.5t-21 -8.5zM62 310h222l-3 -49
h-268z" />
    <glyph glyph-name="threesuperior" unicode="&#xb3;" horiz-adv-x="293" 
d="M80 263q53 4 87.5 31t34.5 75q0 43 -20 62.5t-63 19.5h-21v10h21q75 0 75 85q0 74 -75 74q-39 0 -63 -15v6q36 27 90 27q47 0 77 -22.5t30 -63.5q0 -40 -28 -64t-74 -31v-1q116 -6 116 -87q0 -53 -53.5 -81.5t-133.5 -30.5v6zM52 534q-12 0 -20.5 8.5t-8.5 20.5
q0 11 8.5 19.5t20.5 8.5t20 -8.5t8 -19.5q0 -12 -8 -20.5t-20 -8.5zM77 303q0 -12 -8 -20.5t-20 -8.5t-20.5 8.5t-8.5 20.5q0 11 8.5 19.5t20.5 8.5t20 -8.5t8 -19.5z" />
    <glyph glyph-name="acute" unicode="&#xb4;" horiz-adv-x="422" 
d="M119 513q130 73 162 90l23 -58l-182 -40z" />
    <glyph glyph-name="paragraph" unicode="&#xb6;" horiz-adv-x="547" 
d="M253 231q-84 0 -150.5 53t-66.5 145q0 93 62.5 147t156.5 54h269v-14h-199v-385h-72zM309 197h16v-368h-16v368zM429 579h16v-750h-16v750z" />
    <glyph glyph-name="periodcentered" unicode="&#xb7;" horiz-adv-x="216" 
d="M108 176q-21 0 -35 14t-14 35t14 35t35 14t35 -14t14 -35t-14 -35t-35 -14z" />
    <glyph glyph-name="cedilla" unicode="&#xb8;" horiz-adv-x="423" 
d="M219 -197q11 8 11 18q0 9 -5 17t-8 11.5t-20 18.5q-25 25 -25 48q0 31 52 62l6 -7q-14 -16 -14 -27q0 -18 26 -42q32 -32 32 -53q0 -14 -16 -29t-34 -23zM178 -218q-10 0 -17 7t-7 17q0 11 7 17.5t17 6.5t17 -6.5t7 -17.5q0 -10 -7 -17t-17 -7z" />
    <glyph glyph-name="onesuperior" unicode="&#xb9;" horiz-adv-x="215" 
d="M15 604l56 14v-32h-56v18zM93 624l60 12v-375h-60v363z" />
    <glyph glyph-name="ordmasculine" unicode="&#xba;" horiz-adv-x="317" 
d="M146 365q-58 7 -93 44t-35 93t35 92.5t93 43.5v-7q-70 -16 -70 -129q0 -114 70 -130v-7zM171 372q70 16 70 130q0 113 -70 129v7q58 -7 93.5 -43.5t35.5 -92.5t-35.5 -93t-93.5 -44v7z" />
    <glyph glyph-name="guillemotright" unicode="&#xbb;" horiz-adv-x="296" 
d="M33 103l67 120l-67 119l7 4l112 -119v-9l-112 -119zM144 103l68 120l-68 119l8 4l112 -119v-9l-112 -119z" />
    <glyph glyph-name="onequarter" unicode="&#xbc;" horiz-adv-x="511" 
d="M121 -52h95v-47h-131zM242 94l46 55h14v-352h-60v297zM151 604l56 14v-32h-56v18zM22 219h474v-17h-474v17zM229 624l60 12v-356h-60v344zM328 -52h77l-2 -47h-75v47z" />
    <glyph glyph-name="onehalf" unicode="&#xbd;" horiz-adv-x="511" 
d="M198 -137q119 104 119 186q0 75 -81 75q-32 0 -66 -16v7q12 15 40.5 25t59.5 10q110 0 110 -97q0 -98 -173 -190h-9zM170 37q-12 0 -20.5 9t-8.5 21t8.5 20.5t20.5 8.5t21 -8.5t9 -20.5t-9 -21t-21 -9zM151 604l56 14v-32h-56v18zM183 -155h216l-4 -48h-261zM22 219h474
v-17h-474v17zM229 624l60 12v-356h-60v344z" />
    <glyph glyph-name="threequarters" unicode="&#xbe;" horiz-adv-x="511" 
d="M172 349q12 0 20.5 -8t8.5 -20t-8.5 -20.5t-20.5 -8.5q-11 0 -19.5 8.5t-8.5 20.5t8.5 20t19.5 8zM172 529q-12 0 -20.5 8.5t-8.5 20.5q0 11 8.5 19.5t20.5 8.5q11 0 19.5 -8.5t8.5 -19.5q0 -12 -8.5 -20.5t-19.5 -8.5zM203 282q45 4 75 30t30 71q0 42 -18 59.5t-60 17.5
h-13v10h13q39 0 54 20t15 58q0 66 -75 66q-29 0 -48 -12v7q27 25 78 25q48 0 77.5 -20.5t29.5 -60.5q0 -37 -27 -59t-71 -28v-2q110 -6 110 -80q0 -48 -50.5 -77t-119.5 -31v6zM121 -52h95v-47h-131zM242 94l46 55h14v-352h-60v297zM22 219h474v-17h-474v17zM328 -52h77
l-2 -47h-75v47z" />
    <glyph glyph-name="questiondown" unicode="&#xbf;" horiz-adv-x="405" 
d="M298 190q-44 -7 -73 -17t-56.5 -29.5t-41 -53.5t-13.5 -84q0 -40 14 -70t39 -47t51 -26t57 -12v-9q-68 3 -120.5 17.5t-90 52t-37.5 94.5q0 50 21.5 88t58.5 60t78 34.5t90 16.5v109h23v-124zM324 -38q18 0 30.5 -13t12.5 -31q0 -19 -13 -32t-30 -13q-18 0 -31 13.5
t-13 31.5t13 31t31 13zM285 480q20 0 33 -12t13 -32t-13.5 -32t-32.5 -12t-32 12t-13 32t13 32t32 12z" />
    <glyph glyph-name="Agrave" unicode="&#xc0;" horiz-adv-x="545" 
d="M129 263h202l-103 268l41 106h25l242 -637h-103l-94 242h-218zM4 0q64 107 82 144l10 -4q-14 -122 -15 -140h-77zM367 675q-10 1 -93 20t-94 21l21 54q11 -9 87 -46.5t81 -40.5z" />
    <glyph glyph-name="Aacute" unicode="&#xc1;" horiz-adv-x="545" 
d="M129 263h202l-103 268l41 106h25l242 -637h-103l-94 242h-218zM4 0q64 107 82 144l10 -4q-14 -122 -15 -140h-77zM206 683q6 4 80.5 41t86.5 46l21 -54q-10 -1 -93 -20.5t-93 -20.5z" />
    <glyph glyph-name="Acircumflex" unicode="&#xc2;" horiz-adv-x="545" 
d="M129 263h202l-103 268l41 106h25l242 -637h-103l-94 242h-218zM4 0q64 107 82 144l10 -4q-14 -122 -15 -140h-77zM164 681l115 112h5l115 -112l-5 -6l-110 63h-5l-111 -63z" />
    <glyph glyph-name="Atilde" unicode="&#xc3;" horiz-adv-x="545" 
d="M129 263h202l-103 268l41 106h25l242 -637h-103l-94 242h-218zM4 0q64 107 82 144l10 -4q-14 -122 -15 -140h-77zM153 673q30 85 107 85h94q22 0 35 8.5t26 28.5h7q-29 -91 -104 -91h-98q-40 0 -60 -31h-7z" />
    <glyph glyph-name="Adieresis" unicode="&#xc4;" horiz-adv-x="545" 
d="M129 263h202l-103 268l41 106h25l242 -637h-103l-94 242h-218zM4 0q64 107 82 144l10 -4q-14 -122 -15 -140h-77zM191 688q-17 0 -29 12.5t-12 29.5t12 28.5t29 11.5t29 -11.5t12 -28.5t-12 -29.5t-29 -12.5zM371 688q-17 0 -28.5 12.5t-11.5 29.5t11.5 28.5t28.5 11.5
t29.5 -11.5t12.5 -28.5t-12.5 -29.5t-29.5 -12.5z" />
    <glyph glyph-name="Aring" unicode="&#xc5;" horiz-adv-x="545" 
d="M129 263h202l-103 268l41 106h25l242 -637h-103l-94 242h-218zM4 0q64 107 82 144l10 -4q-14 -122 -15 -140h-77zM291 683q21 3 35.5 18t14.5 40q0 26 -14 41t-36 18v13q27 -2 46.5 -21.5t19.5 -50.5q0 -30 -20 -49t-46 -21v12zM270 671q-26 2 -45.5 21t-19.5 49
q0 31 19.5 50.5t45.5 21.5v-13q-22 -3 -36 -18t-14 -41q0 -25 14.5 -40t35.5 -18v-12z" />
    <glyph glyph-name="AE" unicode="&#xc6;" horiz-adv-x="797" 
d="M192 328h177v302h98v-630h-98v306h-189zM528 9q120 23 244 57v-66h-244v9zM764 567q-25 6 -73.5 19t-84 20.5t-79.5 13.5v10h237v-63zM-6 0q35 46 103 144l10 -4q-3 -10 -12.5 -42.5t-15.5 -56.5t-8 -41h-77zM670 288q-62 13 -142 26v9q117 19 142 25v-60z" />
    <glyph glyph-name="Ccedilla" unicode="&#xc7;" horiz-adv-x="570" 
d="M339 -8q-141 8 -224.5 93.5t-83.5 229.5q0 135 90 224t220 99v-10q-99 -15 -152.5 -96.5t-53.5 -216.5t52.5 -216.5t151.5 -96.5v-10zM382 2q74 19 160 83v-69q-63 -19 -160 -24v10zM536 550q-87 62 -152 78v10q94 -4 152 -22v-66zM255 -212q-11 0 -17.5 7t-6.5 17
q0 25 24 25q25 0 25 -25q0 -10 -7 -17t-18 -7zM301 -201q21 13 21 33q0 10 -18 36q-15 28 -15 40q0 18 21 37t53 31l4 -6q-29 -23 -29 -39q0 -11 14 -33q20 -32 20 -47q0 -17 -19.5 -33t-48.5 -25z" />
    <glyph glyph-name="Egrave" unicode="&#xc8;" horiz-adv-x="504" 
d="M368 675q-10 1 -93 20t-94 21l21 54q11 -9 87 -46.5t81 -40.5zM67 630h99v-630h-99v630zM226 9q134 25 252 57v-66h-252v9zM376 288q-24 5 -150 26v9q31 5 76.5 13t73.5 12v-60zM470 567q-16 4 -58 15t-61.5 15.5t-55 11t-69.5 11.5v10h244v-63z" />
    <glyph glyph-name="Eacute" unicode="&#xc9;" horiz-adv-x="504" 
d="M208 683q6 4 80.5 41t86.5 46l21 -54q-10 -1 -93 -20.5t-93 -20.5zM67 630h99v-630h-99v630zM226 9q134 25 252 57v-66h-252v9zM376 288q-24 5 -150 26v9q31 5 76.5 13t73.5 12v-60zM470 567q-16 4 -58 15t-61.5 15.5t-55 11t-69.5 11.5v10h244v-63z" />
    <glyph glyph-name="Ecircumflex" unicode="&#xca;" horiz-adv-x="504" 
d="M165 681l115 112h5l115 -112l-5 -6l-110 63h-5l-111 -63zM67 630h99v-630h-99v630zM226 9q134 25 252 57v-66h-252v9zM376 288q-24 5 -150 26v9q31 5 76.5 13t73.5 12v-60zM470 567q-16 4 -58 15t-61.5 15.5t-55 11t-69.5 11.5v10h244v-63z" />
    <glyph glyph-name="Edieresis" unicode="&#xcb;" horiz-adv-x="504" 
d="M67 630h99v-630h-99v630zM226 9q134 25 252 57v-66h-252v9zM376 288q-24 5 -150 26v9q31 5 76.5 13t73.5 12v-60zM470 567q-16 4 -58 15t-61.5 15.5t-55 11t-69.5 11.5v10h244v-63zM192 688q-17 0 -29 12.5t-12 29.5t12 28.5t29 11.5t29 -11.5t12 -28.5t-12 -29.5
t-29 -12.5zM372 688q-17 0 -28.5 12.5t-11.5 29.5t11.5 28.5t28.5 11.5t29.5 -11.5t12.5 -28.5t-12.5 -29.5t-29.5 -12.5z" />
    <glyph glyph-name="Igrave" unicode="&#xcc;" horiz-adv-x="233" 
d="M67 630h99v-630h-99v630zM203 675q-10 1 -93 20t-94 21l21 54q11 -9 87 -46.5t81 -40.5z" />
    <glyph glyph-name="Iacute" unicode="&#xcd;" horiz-adv-x="233" 
d="M67 630h99v-630h-99v630zM43 683q6 4 80.5 41t86.5 46l21 -54q-10 -1 -93 -20.5t-93 -20.5z" />
    <glyph glyph-name="Icircumflex" unicode="&#xce;" horiz-adv-x="233" 
d="M67 630h99v-630h-99v630zM0 681l115 112h5l115 -112l-5 -6l-110 63h-5l-111 -63z" />
    <glyph glyph-name="Idieresis" unicode="&#xcf;" horiz-adv-x="233" 
d="M43 688q-17 0 -28.5 12.5t-11.5 29.5t11.5 28.5t28.5 11.5t29.5 -11.5t12.5 -28.5t-12.5 -29.5t-29.5 -12.5zM189 688q-17 0 -28.5 12.5t-11.5 29.5t11.5 28.5t28.5 11.5t29 -11.5t12 -28.5t-12 -29.5t-29 -12.5zM67 630h99v-630h-99v630z" />
    <glyph glyph-name="Eth" unicode="&#xd0;" horiz-adv-x="642" 
d="M14 327h66v303h98v-303h153v-20h-153v-307h-98v307h-66v20zM239 9q121 6 195 81t74 225q0 153 -73.5 225.5t-196.5 79.5v10q72 -1 135.5 -18.5t118.5 -53t87.5 -98t32.5 -145.5q0 -81 -32 -143t-86.5 -98t-118.5 -54.5t-136 -19.5v9z" />
    <glyph glyph-name="Ntilde" unicode="&#xd1;" horiz-adv-x="615" 
d="M195 673q30 85 107 85h94q22 0 35 8.5t26 28.5h7q-29 -91 -104 -91h-98q-40 0 -60 -31h-7zM130 487q-48 66 -113 143h127l397 -547v-86h-57zM41 0q25 100 38 160h10q12 -73 38 -160h-86zM530 472q-19 91 -38 158h86q-17 -60 -38 -158h-10z" />
    <glyph glyph-name="Ograve" unicode="&#xd2;" horiz-adv-x="692" 
d="M431 675q-10 1 -93 20t-94 21l21 54q11 -9 87 -46.5t81 -40.5zM322 -8q-123 8 -207 102t-84 221t84 221t207 102v-9q-66 -10 -110 -59t-61 -113t-17 -142q0 -77 17 -141.5t61 -114t110 -58.5v-9zM370 1q67 9 111 58.5t60.5 114t16.5 141.5q0 78 -16.5 142t-60.5 113
t-111 59v9q123 -8 207 -102t84 -221t-84 -221t-207 -102v9z" />
    <glyph glyph-name="Oacute" unicode="&#xd3;" horiz-adv-x="692" 
d="M271 683q6 4 80.5 41t86.5 46l21 -54q-10 -1 -93 -20.5t-93 -20.5zM322 -8q-123 8 -207 102t-84 221t84 221t207 102v-9q-66 -10 -110 -59t-61 -113t-17 -142q0 -77 17 -141.5t61 -114t110 -58.5v-9zM370 1q67 9 111 58.5t60.5 114t16.5 141.5q0 78 -16.5 142t-60.5 113
t-111 59v9q123 -8 207 -102t84 -221t-84 -221t-207 -102v9z" />
    <glyph glyph-name="Ocircumflex" unicode="&#xd4;" horiz-adv-x="692" 
d="M229 681l115 112h5l115 -112l-5 -6l-110 63h-5l-111 -63zM322 -8q-123 8 -207 102t-84 221t84 221t207 102v-9q-66 -10 -110 -59t-61 -113t-17 -142q0 -77 17 -141.5t61 -114t110 -58.5v-9zM370 1q67 9 111 58.5t60.5 114t16.5 141.5q0 78 -16.5 142t-60.5 113t-111 59v9
q123 -8 207 -102t84 -221t-84 -221t-207 -102v9z" />
    <glyph glyph-name="Otilde" unicode="&#xd5;" horiz-adv-x="692" 
d="M217 673q30 85 107 85h94q22 0 35 8.5t26 28.5h7q-29 -91 -104 -91h-98q-40 0 -60 -31h-7zM322 -8q-123 8 -207 102t-84 221t84 221t207 102v-9q-66 -10 -110 -59t-61 -113t-17 -142q0 -77 17 -141.5t61 -114t110 -58.5v-9zM370 1q67 9 111 58.5t60.5 114t16.5 141.5
q0 78 -16.5 142t-60.5 113t-111 59v9q123 -8 207 -102t84 -221t-84 -221t-207 -102v9z" />
    <glyph glyph-name="Odieresis" unicode="&#xd6;" horiz-adv-x="692" 
d="M256 688q-17 0 -29 12.5t-12 29.5t12 28.5t29 11.5t29 -11.5t12 -28.5t-12 -29.5t-29 -12.5zM436 688q-17 0 -28.5 12.5t-11.5 29.5t11.5 28.5t28.5 11.5t29.5 -11.5t12.5 -28.5t-12.5 -29.5t-29.5 -12.5zM322 -8q-123 8 -207 102t-84 221t84 221t207 102v-9
q-66 -10 -110 -59t-61 -113t-17 -142q0 -77 17 -141.5t61 -114t110 -58.5v-9zM370 1q67 9 111 58.5t60.5 114t16.5 141.5q0 78 -16.5 142t-60.5 113t-111 59v9q123 -8 207 -102t84 -221t-84 -221t-207 -102v9z" />
    <glyph glyph-name="multiply" unicode="&#xd7;" horiz-adv-x="401" 
d="M200 201l-120 -120l-16 17l120 120l-120 120l16 17l120 -121l121 121l16 -17l-121 -121l121 -120l-16 -16z" />
    <glyph glyph-name="Oslash" unicode="&#xd8;" horiz-adv-x="692" 
d="M370 1q51 7 88.5 36.5t58.5 74.5t30.5 95.5t9.5 107.5q0 142 -54 226l-281 -492q40 -39 100 -48v-9q-62 4 -115 31l-51 -89l-18 10l51 88q-72 43 -115 118.5t-43 164.5q0 127 84 221t207 102v-9q-97 -15 -142 -103t-45 -211q0 -164 72 -251l284 495q-46 59 -121 70v9
q79 -5 140 -45l53 91l16 -10l-53 -92q63 -46 99 -116t36 -151q0 -127 -84 -221t-207 -102v9z" />
    <glyph glyph-name="Ugrave" unicode="&#xd9;" horiz-adv-x="604" 
d="M417 675q-10 1 -93 20t-94 21l21 54q11 -9 87 -46.5t81 -40.5zM303 -8q-110 0 -174.5 59t-64.5 175v404h98v-400q0 -90 46 -135t129 -45q108 0 156 58l7 -6q-22 -48 -72.5 -79t-124.5 -31zM525 460q-18 88 -40 170h89q-28 -111 -39 -170h-10z" />
    <glyph glyph-name="Uacute" unicode="&#xda;" horiz-adv-x="604" 
d="M257 683q6 4 80.5 41t86.5 46l21 -54q-10 -1 -93 -20.5t-93 -20.5zM303 -8q-110 0 -174.5 59t-64.5 175v404h98v-400q0 -90 46 -135t129 -45q108 0 156 58l7 -6q-22 -48 -72.5 -79t-124.5 -31zM525 460q-18 88 -40 170h89q-28 -111 -39 -170h-10z" />
    <glyph glyph-name="Ucircumflex" unicode="&#xdb;" horiz-adv-x="604" 
d="M215 681l115 112h5l115 -112l-5 -6l-110 63h-5l-111 -63zM303 -8q-110 0 -174.5 59t-64.5 175v404h98v-400q0 -90 46 -135t129 -45q108 0 156 58l7 -6q-22 -48 -72.5 -79t-124.5 -31zM525 460q-18 88 -40 170h89q-28 -111 -39 -170h-10z" />
    <glyph glyph-name="Udieresis" unicode="&#xdc;" horiz-adv-x="604" 
d="M303 -8q-110 0 -174.5 59t-64.5 175v404h98v-400q0 -90 46 -135t129 -45q108 0 156 58l7 -6q-22 -48 -72.5 -79t-124.5 -31zM525 460q-18 88 -40 170h89q-28 -111 -39 -170h-10zM242 688q-17 0 -29 12.5t-12 29.5t12 28.5t29 11.5t29 -11.5t12 -28.5t-12 -29.5t-29 -12.5
zM422 688q-17 0 -28.5 12.5t-11.5 29.5t11.5 28.5t28.5 11.5t29.5 -11.5t12.5 -28.5t-12.5 -29.5t-29.5 -12.5z" />
    <glyph glyph-name="Yacute" unicode="&#xdd;" horiz-adv-x="528" 
d="M202 295l-202 335h108l193 -317v-313h-99v295zM399 491q42 101 57 139h82q-23 -23 -42 -44t-43.5 -48.5t-46.5 -51.5zM212 683q6 4 80.5 41t86.5 46l21 -54q-10 -1 -93 -20.5t-93 -20.5z" />
    <glyph glyph-name="Thorn" unicode="&#xde;" horiz-adv-x="493" 
d="M224 172q71 9 109.5 44t38.5 115t-39 115.5t-109 44.5v10q35 -2 65.5 -6.5t65.5 -16.5t59.5 -30t40.5 -48t16 -69q0 -149 -247 -169v10zM67 630h99v-630h-99v630z" />
    <glyph glyph-name="germandbls" unicode="&#xdf;" horiz-adv-x="488" 
d="M52 510q0 82 54 126t137 51v-9q-43 -7 -73.5 -39.5t-30.5 -89.5v-549h-87v510zM312 1q41 4 66.5 24t25.5 55q0 20 -11 39t-22.5 29.5t-34.5 29.5q-1 1 -13.5 9.5t-25 18t-13.5 11.5q-36 29 -55 54t-19 58q0 82 99 132l3 -7q-42 -29 -42 -76q0 -43 61 -91q4 -7 50 -37
q50 -38 69.5 -65.5t19.5 -64.5q0 -53 -45.5 -88t-112.5 -39v8zM328 474q21 15 32.5 44t11.5 59q0 89 -97 101v9q69 -3 107.5 -29.5t38.5 -72.5q0 -37 -25 -68t-64 -51zM250 9q-15 0 -25.5 10.5t-10.5 25.5t10.5 25.5t25.5 10.5t25 -10.5t10 -25.5t-10 -25.5t-25 -10.5z" />
    <glyph glyph-name="agrave" unicode="&#xe0;" horiz-adv-x="405" 
d="M134 -8q-54 0 -81.5 30t-27.5 72q0 29 13.5 50t27 29.5t36.5 19.5q26 10 140 38v-9q-76 -23 -100 -39q-33 -24 -33 -75q0 -77 63 -77q34 0 72 28v-7q-40 -60 -110 -60zM267 303q0 51 -23 72t-76 21q-44 0 -69 -12v8q16 13 53 25t73 12q129 0 129 -111v-318h-87v303z
M89 286q-17 0 -27.5 11t-10.5 27t10.5 27t27.5 11t27 -11t10 -27t-10 -27t-27 -11zM113 545l22 58q32 -17 162 -90l-3 -8z" />
    <glyph glyph-name="aacute" unicode="&#xe1;" horiz-adv-x="405" 
d="M134 -8q-54 0 -81.5 30t-27.5 72q0 29 13.5 50t27 29.5t36.5 19.5q26 10 140 38v-9q-76 -23 -100 -39q-33 -24 -33 -75q0 -77 63 -77q34 0 72 28v-7q-40 -60 -110 -60zM267 303q0 51 -23 72t-76 21q-44 0 -69 -12v8q16 13 53 25t73 12q129 0 129 -111v-318h-87v303z
M89 286q-17 0 -27.5 11t-10.5 27t10.5 27t27.5 11t27 -11t10 -27t-10 -27t-27 -11zM120 513q130 73 162 90l23 -58l-182 -40z" />
    <glyph glyph-name="acircumflex" unicode="&#xe2;" horiz-adv-x="405" 
d="M134 -8q-54 0 -81.5 30t-27.5 72q0 29 13.5 50t27 29.5t36.5 19.5q26 10 140 38v-9q-76 -23 -100 -39q-33 -24 -33 -75q0 -77 63 -77q34 0 72 28v-7q-40 -60 -110 -60zM267 303q0 51 -23 72t-76 21q-44 0 -69 -12v8q16 13 53 25t73 12q129 0 129 -111v-318h-87v303z
M89 286q-17 0 -27.5 11t-10.5 27t10.5 27t27.5 11t27 -11t10 -27t-10 -27t-27 -11zM99 510l112 126h5l111 -126l-4 -5l-107 73h-5l-107 -73z" />
    <glyph glyph-name="atilde" unicode="&#xe3;" horiz-adv-x="405" 
d="M134 -8q-54 0 -81.5 30t-27.5 72q0 29 13.5 50t27 29.5t36.5 19.5q26 10 140 38v-9q-76 -23 -100 -39q-33 -24 -33 -75q0 -77 63 -77q34 0 72 28v-7q-40 -60 -110 -60zM267 303q0 51 -23 72t-76 21q-44 0 -69 -12v8q16 13 53 25t73 12q129 0 129 -111v-318h-87v303z
M89 286q-17 0 -27.5 11t-10.5 27t10.5 27t27.5 11t27 -11t10 -27t-10 -27t-27 -11zM86 501q28 82 106 82h90q22 0 34.5 8.5t26.5 29.5h7q-14 -44 -38 -67t-66 -23h-93q-40 0 -61 -30h-6z" />
    <glyph glyph-name="adieresis" unicode="&#xe4;" horiz-adv-x="405" 
d="M134 -8q-54 0 -81.5 30t-27.5 72q0 29 13.5 50t27 29.5t36.5 19.5q26 10 140 38v-9q-76 -23 -100 -39q-33 -24 -33 -75q0 -77 63 -77q34 0 72 28v-7q-40 -60 -110 -60zM267 303q0 51 -23 72t-76 21q-44 0 -69 -12v8q16 13 53 25t73 12q129 0 129 -111v-318h-87v303z
M89 286q-17 0 -27.5 11t-10.5 27t10.5 27t27.5 11t27 -11t10 -27t-10 -27t-27 -11zM137 519q-17 0 -28 11t-11 28q0 16 11 27.5t28 11.5q16 0 27 -11.5t11 -27.5q0 -17 -11 -28t-27 -11zM289 519q-16 0 -27 11t-11 28q0 16 11 27.5t27 11.5q17 0 28 -11.5t11 -27.5
q0 -17 -11 -28t-28 -11z" />
    <glyph glyph-name="aring" unicode="&#xe5;" horiz-adv-x="405" 
d="M134 -8q-54 0 -81.5 30t-27.5 72q0 29 13.5 50t27 29.5t36.5 19.5q26 10 140 38v-9q-76 -23 -100 -39q-33 -24 -33 -75q0 -77 63 -77q34 0 72 28v-7q-40 -60 -110 -60zM267 303q0 51 -23 72t-76 21q-44 0 -69 -12v8q16 13 53 25t73 12q129 0 129 -111v-318h-87v303z
M89 286q-17 0 -27.5 11t-10.5 27t10.5 27t27.5 11t27 -11t10 -27t-10 -27t-27 -11zM223 502q21 2 35 17t14 40q0 52 -49 59v13q26 -2 45.5 -21.5t19.5 -50.5q0 -30 -20 -49.5t-45 -21.5v14zM202 488q-25 2 -44.5 21.5t-19.5 49.5q0 31 19 50.5t45 21.5v-13q-49 -7 -49 -59
q0 -25 14.5 -40t34.5 -17v-14z" />
    <glyph glyph-name="ae" unicode="&#xe6;" horiz-adv-x="644" 
d="M459 -8q-91 0 -147.5 59t-56.5 172v80q0 51 -22 72t-73 21q-41 0 -65 -12v8q16 13 52 25t70 12q38 0 66 -16.5t36 -47.5q48 56 116 63v-8q-94 -25 -94 -176q0 -92 41.5 -139t110.5 -47q85 0 130 42v-11q-19 -39 -60.5 -68t-103.5 -29zM134 -8q-53 0 -81 30.5t-28 71.5
q0 29 12.5 50t26 29.5t35.5 19.5q34 13 134 38v-9q-63 -20 -94 -38q-30 -21 -30 -76q0 -75 66 -75q46 0 84 38v-7q-13 -27 -49 -49.5t-76 -22.5zM379 265l163 10q0 65 -22 102t-54 43v8q71 -4 112 -54t41 -118h-240v9zM82 286q-17 0 -27.5 10.5t-10.5 27.5q0 16 10.5 26.5
t27.5 10.5t27 -10.5t10 -26.5q0 -17 -10 -27.5t-27 -10.5z" />
    <glyph glyph-name="ccedilla" unicode="&#xe7;" horiz-adv-x="397" 
d="M229 -8q-94 0 -148.5 61t-54.5 154q0 99 67 155.5t169 65.5v-8q-67 -9 -107.5 -58.5t-40.5 -129.5q0 -78 40.5 -127t107.5 -49q75 0 124 45v-9q-51 -100 -157 -100zM325 319q-20 0 -33 13t-13 32q0 20 13 33t33 13t33 -13t13 -33t-13 -32.5t-33 -12.5zM228 -197
q11 8 11 18q0 9 -5 17t-8 11.5t-20 18.5q-25 25 -25 48q0 31 52 62l6 -7q-14 -16 -14 -27q0 -18 26 -42q32 -32 32 -53q0 -14 -16 -29t-34 -23zM187 -218q-10 0 -17 7t-7 17q0 11 7 17.5t17 6.5t17 -6.5t7 -17.5q0 -10 -7 -17t-17 -7z" />
    <glyph glyph-name="egrave" unicode="&#xe8;" horiz-adv-x="419" 
d="M231 -8q-95 0 -150 62t-55 163q0 87 58 146t132 65v-8q-51 -14 -76.5 -61.5t-25.5 -114.5q0 -92 42.5 -139t111.5 -47q81 0 130 46v-11q-20 -40 -62.5 -70.5t-104.5 -30.5zM152 265l162 10q0 61 -17 100.5t-47 44.5v8q72 -6 108 -53t36 -119h-242v9zM127 545l22 58
q32 -17 162 -90l-3 -8z" />
    <glyph glyph-name="eacute" unicode="&#xe9;" horiz-adv-x="419" 
d="M147 513q130 73 162 90l23 -58l-182 -40zM231 -8q-95 0 -150 62t-55 163q0 87 58 146t132 65v-8q-51 -14 -76.5 -61.5t-25.5 -114.5q0 -92 42.5 -139t111.5 -47q81 0 130 46v-11q-20 -40 -62.5 -70.5t-104.5 -30.5zM152 265l162 10q0 61 -17 100.5t-47 44.5v8
q72 -6 108 -53t36 -119h-242v9z" />
    <glyph glyph-name="ecircumflex" unicode="&#xea;" horiz-adv-x="419" 
d="M113 510l112 126h5l111 -126l-4 -5l-107 73h-5l-107 -73zM231 -8q-95 0 -150 62t-55 163q0 87 58 146t132 65v-8q-51 -14 -76.5 -61.5t-25.5 -114.5q0 -92 42.5 -139t111.5 -47q81 0 130 46v-11q-20 -40 -62.5 -70.5t-104.5 -30.5zM152 265l162 10q0 61 -17 100.5
t-47 44.5v8q72 -6 108 -53t36 -119h-242v9z" />
    <glyph glyph-name="edieresis" unicode="&#xeb;" horiz-adv-x="419" 
d="M151 519q-17 0 -28 11t-11 28q0 16 11 27.5t28 11.5q16 0 27 -11.5t11 -27.5q0 -17 -11 -28t-27 -11zM303 519q-16 0 -27 11t-11 28q0 16 11 27.5t27 11.5q17 0 28 -11.5t11 -27.5q0 -17 -11 -28t-28 -11zM231 -8q-95 0 -150 62t-55 163q0 87 58 146t132 65v-8
q-51 -14 -76.5 -61.5t-25.5 -114.5q0 -92 42.5 -139t111.5 -47q81 0 130 46v-11q-20 -40 -62.5 -70.5t-104.5 -30.5zM152 265l162 10q0 61 -17 100.5t-47 44.5v8q72 -6 108 -53t36 -119h-242v9z" />
    <glyph glyph-name="igrave" unicode="&#xec;" horiz-adv-x="191" 
d="M52 418l87 12v-430h-87v418zM-3 545l22 58q32 -17 162 -90l-3 -8z" />
    <glyph glyph-name="iacute" unicode="&#xed;" horiz-adv-x="191" 
d="M16 513q130 73 162 90l23 -58l-182 -40zM52 418l87 12v-430h-87v418z" />
    <glyph glyph-name="icircumflex" unicode="&#xee;" horiz-adv-x="191" 
d="M-17 510l112 126h5l111 -126l-4 -5l-107 73h-5l-107 -73zM52 418l87 12v-430h-87v418z" />
    <glyph glyph-name="idieresis" unicode="&#xef;" horiz-adv-x="191" 
d="M32 515q-16 0 -27 11.5t-11 27.5t11 27.5t27 11.5t27.5 -11.5t11.5 -27.5t-11.5 -27.5t-27.5 -11.5zM159 515q-16 0 -27.5 11.5t-11.5 27.5t11.5 27.5t27.5 11.5q17 0 28 -11.5t11 -27.5t-11 -27.5t-28 -11.5zM52 418l87 12v-430h-87v418z" />
    <glyph glyph-name="eth" unicode="&#xf0;" horiz-adv-x="507" 
d="M134 502l130 72q-75 71 -199 106l3 8q134 -18 234 -93l115 65l8 -14l-109 -62q160 -128 160 -329q0 -119 -60 -188t-157 -75v8q127 16 127 246q0 200 -110 316l-133 -75zM234 -8q-87 4 -147.5 65t-60.5 164q0 92 59 150.5t142 58.5q61 0 100 -31l-3 -7q-34 15 -75 15
q-60 0 -96.5 -50.5t-36.5 -148.5q0 -85 33 -141.5t85 -66.5v-8z" />
    <glyph glyph-name="ntilde" unicode="&#xf1;" 
d="M337 295q0 85 -86 85q-46 0 -89 -28v7q23 29 61.5 49.5t78.5 20.5q59 0 90.5 -33.5t31.5 -91.5v-304h-87v295zM52 418l87 11v-429h-87v418zM113 501q28 82 106 82h90q22 0 34.5 8.5t26.5 29.5h7q-14 -44 -38 -67t-66 -23h-93q-40 0 -61 -30h-6z" />
    <glyph glyph-name="ograve" unicode="&#xf2;" horiz-adv-x="496" 
d="M228 -8q-88 8 -145 70t-57 148t57 148.5t145 70.5v-8q-26 -7 -48 -22q-63 -49 -63 -189q0 -139 63 -188q19 -16 48 -22v-8zM268 0q29 6 48 22q64 48 64 188q0 141 -64 189q-22 15 -48 22v8q88 -8 145 -70.5t57 -148.5t-57 -148t-145 -70v8zM148 545l22 58q32 -17 162 -90
l-3 -8z" />
    <glyph glyph-name="oacute" unicode="&#xf3;" horiz-adv-x="496" 
d="M168 513q130 73 162 90l23 -58l-182 -40zM228 -8q-88 8 -145 70t-57 148t57 148.5t145 70.5v-8q-26 -7 -48 -22q-63 -49 -63 -189q0 -139 63 -188q19 -16 48 -22v-8zM268 0q29 6 48 22q64 48 64 188q0 141 -64 189q-22 15 -48 22v8q88 -8 145 -70.5t57 -148.5t-57 -148
t-145 -70v8z" />
    <glyph glyph-name="ocircumflex" unicode="&#xf4;" horiz-adv-x="496" 
d="M134 510l112 126h5l111 -126l-4 -5l-107 73h-5l-107 -73zM228 -8q-88 8 -145 70t-57 148t57 148.5t145 70.5v-8q-26 -7 -48 -22q-63 -49 -63 -189q0 -139 63 -188q19 -16 48 -22v-8zM268 0q29 6 48 22q64 48 64 188q0 141 -64 189q-22 15 -48 22v8q88 -8 145 -70.5
t57 -148.5t-57 -148t-145 -70v8z" />
    <glyph glyph-name="otilde" unicode="&#xf5;" horiz-adv-x="496" 
d="M228 -8q-88 8 -145 70t-57 148t57 148.5t145 70.5v-8q-26 -7 -48 -22q-63 -49 -63 -189q0 -139 63 -188q19 -16 48 -22v-8zM268 0q29 6 48 22q64 48 64 188q0 141 -64 189q-22 15 -48 22v8q88 -8 145 -70.5t57 -148.5t-57 -148t-145 -70v8zM121 501q28 82 106 82h90
q22 0 34.5 8.5t26.5 29.5h7q-14 -44 -38 -67t-66 -23h-93q-40 0 -61 -30h-6z" />
    <glyph glyph-name="odieresis" unicode="&#xf6;" horiz-adv-x="496" 
d="M172 519q-17 0 -28 11t-11 28q0 16 11 27.5t28 11.5q16 0 27 -11.5t11 -27.5q0 -17 -11 -28t-27 -11zM324 519q-16 0 -27 11t-11 28q0 16 11 27.5t27 11.5q17 0 28 -11.5t11 -27.5q0 -17 -11 -28t-28 -11zM228 -8q-88 8 -145 70t-57 148t57 148.5t145 70.5v-8
q-26 -7 -48 -22q-63 -49 -63 -189q0 -139 63 -188q19 -16 48 -22v-8zM268 0q29 6 48 22q64 48 64 188q0 141 -64 189q-22 15 -48 22v8q88 -8 145 -70.5t57 -148.5t-57 -148t-145 -70v8z" />
    <glyph glyph-name="divide" unicode="&#xf7;" horiz-adv-x="429" 
d="M214 73q-14 0 -23 9.5t-9 23.5q0 13 9 22.5t23 9.5q13 0 22.5 -9.5t9.5 -22.5q0 -14 -9.5 -23.5t-22.5 -9.5zM55 234h319v-23h-319v23zM214 306q-14 0 -23 9.5t-9 23.5q0 13 9 22.5t23 9.5q13 0 22.5 -9.5t9.5 -22.5q0 -14 -9.5 -23.5t-22.5 -9.5z" />
    <glyph glyph-name="oslash" unicode="&#xf8;" horiz-adv-x="496" 
d="M268 0q29 6 48 22q64 48 64 188q0 114 -40 164l-167 -347l7 -5q19 -16 48 -22v-8q-34 4 -64 15l-35 -72l-15 8l34 71q-56 27 -89 79.5t-33 116.5q0 86 57 148.5t145 70.5v-8q-26 -7 -48 -22q-63 -49 -63 -189q0 -118 44 -170l168 347l-13 12q-22 15 -48 22v8
q37 -4 72 -19l33 68l14 -6l-33 -69q54 -28 85 -79.5t31 -113.5q0 -86 -57 -148t-145 -70v8z" />
    <glyph glyph-name="ugrave" unicode="&#xf9;" 
d="M176 -7q-61 0 -93 34t-32 93v298l86 13v-304q0 -85 86 -85q43 0 90 29v-7q-21 -29 -59 -50t-78 -21zM336 418l86 13v-425l-86 -11v423zM136 545l22 58q32 -17 162 -90l-3 -8z" />
    <glyph glyph-name="uacute" unicode="&#xfa;" 
d="M156 513q130 73 162 90l23 -58l-182 -40zM176 -7q-61 0 -93 34t-32 93v298l86 13v-304q0 -85 86 -85q43 0 90 29v-7q-21 -29 -59 -50t-78 -21zM336 418l86 13v-425l-86 -11v423z" />
    <glyph glyph-name="ucircumflex" unicode="&#xfb;" 
d="M122 510l112 126h5l111 -126l-4 -5l-107 73h-5l-107 -73zM176 -7q-61 0 -93 34t-32 93v298l86 13v-304q0 -85 86 -85q43 0 90 29v-7q-21 -29 -59 -50t-78 -21zM336 418l86 13v-425l-86 -11v423z" />
    <glyph glyph-name="udieresis" unicode="&#xfc;" 
d="M160 519q-17 0 -28 11t-11 28q0 16 11 27.5t28 11.5q16 0 27 -11.5t11 -27.5q0 -17 -11 -28t-27 -11zM312 519q-16 0 -27 11t-11 28q0 16 11 27.5t27 11.5q17 0 28 -11.5t11 -27.5q0 -17 -11 -28t-28 -11zM176 -7q-61 0 -93 34t-32 93v298l86 13v-304q0 -85 86 -85
q43 0 90 29v-7q-21 -29 -59 -50t-78 -21zM336 418l86 13v-425l-86 -11v423z" />
    <glyph glyph-name="yacute" unicode="&#xfd;" horiz-adv-x="386" 
d="M4 421h90l146 -325l-36 -90h-14zM79 -178q-17 0 -28.5 11t-11.5 29q0 17 11.5 28t28.5 11t28.5 -11t11.5 -28t-11.5 -28.5t-28.5 -11.5zM310 308q6 29 16 113h67q-38 -56 -76 -119zM132 513q130 73 162 90l23 -58l-182 -40z" />
    <glyph glyph-name="thorn" unicode="&#xfe;" horiz-adv-x="507" 
d="M52 676l87 12v-660q26 -19 78 -28v-8q-42 2 -78 11v-181h-87v854zM246 0q64 4 103 58.5t39 148.5q0 180 -125 180q-63 0 -100 -29v9q22 26 59 44t80 18q86 0 131.5 -54t45.5 -152q0 -103 -63 -164t-170 -67v8z" />
    <glyph glyph-name="ydieresis" unicode="&#xff;" horiz-adv-x="386" 
d="M4 421h90l146 -325l-36 -90h-14zM79 -178q-17 0 -28.5 11t-11.5 29q0 17 11.5 28t28.5 11t28.5 -11t11.5 -28t-11.5 -28.5t-28.5 -11.5zM310 308q6 29 16 113h67q-38 -56 -76 -119zM137 519q-17 0 -28 11t-11 28q0 16 11 27.5t28 11.5q16 0 27 -11.5t11 -27.5
q0 -17 -11 -28t-27 -11zM289 519q-16 0 -27 11t-11 28q0 16 11 27.5t27 11.5q17 0 28 -11.5t11 -27.5q0 -17 -11 -28t-28 -11z" />
    <glyph glyph-name="Amacron" unicode="&#x100;" horiz-adv-x="545" 
d="M129 263h202l-103 268l41 106h25l242 -637h-103l-94 242h-218zM4 0q64 107 82 144l10 -4q-14 -122 -15 -140h-77zM170 726h223v-30h-223v30z" />
    <glyph glyph-name="amacron" unicode="&#x101;" horiz-adv-x="405" 
d="M134 -8q-54 0 -81.5 30t-27.5 72q0 29 13.5 50t27 29.5t36.5 19.5q26 10 140 38v-9q-76 -23 -100 -39q-33 -24 -33 -75q0 -77 63 -77q34 0 72 28v-7q-40 -60 -110 -60zM267 303q0 51 -23 72t-76 21q-44 0 -69 -12v8q16 13 53 25t73 12q129 0 129 -111v-318h-87v303z
M89 286q-17 0 -27.5 11t-10.5 27t10.5 27t27.5 11t27 -11t10 -27t-10 -27t-27 -11zM111 577h206v-30h-206v30z" />
    <glyph glyph-name="Abreve" unicode="&#x102;" horiz-adv-x="545" 
d="M129 263h202l-103 268l41 106h25l242 -637h-103l-94 242h-218zM4 0q64 107 82 144l10 -4q-14 -122 -15 -140h-77zM281 676q-47 0 -75 28t-33 79h10q5 -28 30.5 -44t67.5 -16q86 0 99 60h9q-12 -107 -108 -107z" />
    <glyph glyph-name="abreve" unicode="&#x103;" horiz-adv-x="405" 
d="M134 -8q-54 0 -81.5 30t-27.5 72q0 29 13.5 50t27 29.5t36.5 19.5q26 10 140 38v-9q-76 -23 -100 -39q-33 -24 -33 -75q0 -77 63 -77q34 0 72 28v-7q-40 -60 -110 -60zM267 303q0 51 -23 72t-76 21q-44 0 -69 -12v8q16 13 53 25t73 12q129 0 129 -111v-318h-87v303z
M89 286q-17 0 -27.5 11t-10.5 27t10.5 27t27.5 11t27 -11t10 -27t-10 -27t-27 -11zM213 503q-42 0 -70 29t-34 79h10q12 -61 94 -61t95 61h9q-5 -49 -33.5 -78.5t-70.5 -29.5z" />
    <glyph glyph-name="Aogonek" unicode="&#x104;" horiz-adv-x="545" 
d="M129 263h202l-103 268l41 106h25l242 -637h-103l-94 242h-218zM4 0q64 107 82 144l10 -4q-14 -122 -15 -140h-77zM408 -214q-38 0 -61.5 19.5t-23.5 56.5q0 66 110 118h11q-32 -26 -46.5 -47.5t-14.5 -49.5q0 -55 54 -55q38 0 68 32l6 -5q-40 -69 -103 -69z" />
    <glyph glyph-name="aogonek" unicode="&#x105;" horiz-adv-x="405" 
d="M134 -8q-54 0 -81.5 30t-27.5 72q0 29 13.5 50t27 29.5t36.5 19.5q26 10 140 38v-9q-76 -23 -100 -39q-33 -24 -33 -75q0 -77 63 -77q34 0 72 28v-7q-40 -60 -110 -60zM267 303q0 51 -23 72t-76 21q-44 0 -69 -12v8q16 13 53 25t73 12q129 0 129 -111v-318h-87v303z
M89 286q-17 0 -27.5 11t-10.5 27t10.5 27t27.5 11t27 -11t10 -27t-10 -27t-27 -11zM278 -214q-38 0 -61.5 19.5t-23.5 56.5q0 66 110 118h11q-32 -26 -46.5 -47.5t-14.5 -49.5q0 -55 54 -55q38 0 68 32l6 -5q-40 -69 -103 -69z" />
    <glyph glyph-name="Cacute" unicode="&#x106;" horiz-adv-x="570" 
d="M339 -8q-141 8 -224.5 93.5t-83.5 229.5q0 135 90 224t220 99v-10q-99 -15 -152.5 -96.5t-53.5 -216.5t52.5 -216.5t151.5 -96.5v-10zM382 2q74 19 160 83v-69q-63 -19 -160 -24v10zM536 550q-87 62 -152 78v10q94 -4 152 -22v-66zM281 683q6 4 80.5 41t86.5 46l21 -54
q-10 -1 -93 -20.5t-93 -20.5z" />
    <glyph glyph-name="cacute" unicode="&#x107;" horiz-adv-x="397" 
d="M154 513q130 73 162 90l23 -58l-182 -40zM229 -8q-94 0 -148.5 61t-54.5 154q0 99 67 155.5t169 65.5v-8q-67 -9 -107.5 -58.5t-40.5 -129.5q0 -78 40.5 -127t107.5 -49q75 0 124 45v-9q-51 -100 -157 -100zM325 319q-20 0 -33 13t-13 32q0 20 13 33t33 13t33 -13t13 -33
t-13 -32.5t-33 -12.5z" />
    <glyph glyph-name="Ccircumflex" unicode="&#x108;" horiz-adv-x="570" 
d="M239 681l115 112h5l115 -112l-5 -6l-110 63h-5l-111 -63zM339 -8q-141 8 -224.5 93.5t-83.5 229.5q0 135 90 224t220 99v-10q-99 -15 -152.5 -96.5t-53.5 -216.5t52.5 -216.5t151.5 -96.5v-10zM382 2q74 19 160 83v-69q-63 -19 -160 -24v10zM536 550q-87 62 -152 78v10
q94 -4 152 -22v-66z" />
    <glyph glyph-name="ccircumflex" unicode="&#x109;" horiz-adv-x="397" 
d="M120 510l112 126h5l111 -126l-4 -5l-107 73h-5l-107 -73zM229 -8q-94 0 -148.5 61t-54.5 154q0 99 67 155.5t169 65.5v-8q-67 -9 -107.5 -58.5t-40.5 -129.5q0 -78 40.5 -127t107.5 -49q75 0 124 45v-9q-51 -100 -157 -100zM325 319q-20 0 -33 13t-13 32q0 20 13 33
t33 13t33 -13t13 -33t-13 -32.5t-33 -12.5z" />
    <glyph glyph-name="Cdotaccent" unicode="&#x10a;" horiz-adv-x="570" 
d="M339 -8q-141 8 -224.5 93.5t-83.5 229.5q0 135 90 224t220 99v-10q-99 -15 -152.5 -96.5t-53.5 -216.5t52.5 -216.5t151.5 -96.5v-10zM382 2q74 19 160 83v-69q-63 -19 -160 -24v10zM536 550q-87 62 -152 78v10q94 -4 152 -22v-66zM356 687q-21 0 -35.5 14t-14.5 35
q0 23 14.5 36.5t35.5 13.5t35.5 -13.5t14.5 -36.5q0 -21 -14.5 -35t-35.5 -14z" />
    <glyph glyph-name="cdotaccent" unicode="&#x10b;" horiz-adv-x="397" 
d="M229 -8q-94 0 -148.5 61t-54.5 154q0 99 67 155.5t169 65.5v-8q-67 -9 -107.5 -58.5t-40.5 -129.5q0 -78 40.5 -127t107.5 -49q75 0 124 45v-9q-51 -100 -157 -100zM325 319q-20 0 -33 13t-13 32q0 20 13 33t33 13t33 -13t13 -33t-13 -32.5t-33 -12.5zM234 503
q-21 0 -35 13.5t-14 34.5t14 34.5t35 13.5t35 -13.5t14 -34.5t-14 -34.5t-35 -13.5z" />
    <glyph glyph-name="Ccaron" unicode="&#x10c;" horiz-adv-x="570" 
d="M241 787l5 6l108 -62h5l108 62l5 -6l-113 -112h-6zM339 -8q-141 8 -224.5 93.5t-83.5 229.5q0 135 90 224t220 99v-10q-99 -15 -152.5 -96.5t-53.5 -216.5t52.5 -216.5t151.5 -96.5v-10zM382 2q74 19 160 83v-69q-63 -19 -160 -24v10zM536 550q-87 62 -152 78v10
q94 -4 152 -22v-66z" />
    <glyph glyph-name="ccaron" unicode="&#x10d;" horiz-adv-x="397" 
d="M120 630l5 6l107 -73h5l107 73l4 -6l-111 -125h-6zM229 -8q-94 0 -148.5 61t-54.5 154q0 99 67 155.5t169 65.5v-8q-67 -9 -107.5 -58.5t-40.5 -129.5q0 -78 40.5 -127t107.5 -49q75 0 124 45v-9q-51 -100 -157 -100zM325 319q-20 0 -33 13t-13 32q0 20 13 33t33 13
t33 -13t13 -33t-13 -32.5t-33 -12.5z" />
    <glyph glyph-name="Dcaron" unicode="&#x10e;" horiz-adv-x="629" 
d="M166 787l5 6l108 -62h5l108 62l5 -6l-113 -112h-6zM226 9q121 7 196 81.5t75 224.5q0 153 -74 225.5t-197 79.5v10q72 -1 135.5 -18.5t118.5 -53t87 -98t32 -145.5q0 -81 -32 -143t-86 -98t-118.5 -54.5t-136.5 -19.5v9zM67 630h99v-630h-99v630z" />
    <glyph glyph-name="dcaron" unicode="&#x10f;" horiz-adv-x="489" 
d="M468 522q6 31 14 90t11 76h59q-8 -25 -35.5 -84t-36.5 -82h-12zM208 -8q-81 0 -130.5 56.5t-49.5 155.5q0 97 67 159t155 66v-8q-59 -6 -96 -59.5t-37 -136.5q0 -93 36.5 -141t96.5 -48q43 0 77 32v-8q-35 -68 -119 -68zM351 395q-25 18 -61 26v8q59 -8 61 -8v255l86 12
v-685l-86 -8v400z" />
    <glyph glyph-name="Dcroat" unicode="&#x110;" horiz-adv-x="642" 
d="M14 326h66v304h98v-304h153v-17h-153v-309h-98v309h-66v17zM239 9q121 6 195 81t74 225q0 153 -73.5 225.5t-196.5 79.5v10q72 -1 135.5 -18.5t118.5 -53t87.5 -98t32.5 -145.5q0 -81 -32 -143t-86.5 -98t-118.5 -54.5t-136 -19.5v9z" />
    <glyph glyph-name="dcroat" unicode="&#x111;" horiz-adv-x="489" 
d="M249 543h102v133l86 12v-145h66v-16h-66v-524l-86 -8v400q-25 18 -61 26v8q59 -8 61 -8v106h-102v16zM208 -8q-81 0 -130.5 56.5t-49.5 155.5q0 97 67 159t155 66v-8q-60 -6 -96.5 -59t-36.5 -137q0 -93 36.5 -141t96.5 -48q43 0 77 32v-8q-35 -68 -119 -68z" />
    <glyph glyph-name="Emacron" unicode="&#x112;" horiz-adv-x="504" 
d="M67 630h99v-630h-99v630zM226 9q134 25 252 57v-66h-252v9zM376 288q-24 5 -150 26v9q31 5 76.5 13t73.5 12v-60zM470 567q-16 4 -58 15t-61.5 15.5t-55 11t-69.5 11.5v10h244v-63zM171 726h223v-30h-223v30z" />
    <glyph glyph-name="emacron" unicode="&#x113;" horiz-adv-x="419" 
d="M231 -8q-95 0 -150 62t-55 163q0 87 58 146t132 65v-8q-51 -14 -76.5 -61.5t-25.5 -114.5q0 -92 42.5 -139t111.5 -47q81 0 130 46v-11q-20 -40 -62.5 -70.5t-104.5 -30.5zM152 265l162 10q0 61 -17 100.5t-47 44.5v8q72 -6 108 -53t36 -119h-242v9zM125 577h206v-30
h-206v30z" />
    <glyph glyph-name="Ebreve" unicode="&#x114;" horiz-adv-x="504" 
d="M67 630h99v-630h-99v630zM226 9q134 25 252 57v-66h-252v9zM376 288q-24 5 -150 26v9q31 5 76.5 13t73.5 12v-60zM470 567q-16 4 -58 15t-61.5 15.5t-55 11t-69.5 11.5v10h244v-63zM282 676q-47 0 -75 28t-33 79h10q5 -28 30.5 -44t67.5 -16q86 0 99 60h9
q-12 -107 -108 -107z" />
    <glyph glyph-name="ebreve" unicode="&#x115;" horiz-adv-x="419" 
d="M231 -8q-95 0 -150 62t-55 163q0 87 58 146t132 65v-8q-51 -14 -76.5 -61.5t-25.5 -114.5q0 -92 42.5 -139t111.5 -47q81 0 130 46v-11q-20 -40 -62.5 -70.5t-104.5 -30.5zM152 265l162 10q0 61 -17 100.5t-47 44.5v8q72 -6 108 -53t36 -119h-242v9zM227 503
q-42 0 -70 29t-34 79h10q12 -61 94 -61t95 61h9q-5 -49 -33.5 -78.5t-70.5 -29.5z" />
    <glyph glyph-name="Edotaccent" unicode="&#x116;" horiz-adv-x="504" 
d="M282 687q-21 0 -35.5 14t-14.5 35q0 23 14.5 36.5t35.5 13.5t35.5 -13.5t14.5 -36.5q0 -21 -14.5 -35t-35.5 -14zM67 630h99v-630h-99v630zM226 9q134 25 252 57v-66h-252v9zM376 288q-24 5 -150 26v9q31 5 76.5 13t73.5 12v-60zM470 567q-16 4 -58 15t-61.5 15.5t-55 11
t-69.5 11.5v10h244v-63z" />
    <glyph glyph-name="edotaccent" unicode="&#x117;" horiz-adv-x="419" 
d="M231 -8q-95 0 -150 62t-55 163q0 87 58 146t132 65v-8q-51 -14 -76.5 -61.5t-25.5 -114.5q0 -92 42.5 -139t111.5 -47q81 0 130 46v-11q-20 -40 -62.5 -70.5t-104.5 -30.5zM152 265l162 10q0 61 -17 100.5t-47 44.5v8q72 -6 108 -53t36 -119h-242v9zM227 503
q-21 0 -35 13.5t-14 34.5t14 34.5t35 13.5t35 -13.5t14 -34.5t-14 -34.5t-35 -13.5z" />
    <glyph glyph-name="Eogonek" unicode="&#x118;" horiz-adv-x="504" 
d="M354 -214q-38 0 -61.5 19.5t-23.5 56.5q0 66 110 118h11q-32 -26 -46.5 -47.5t-14.5 -49.5q0 -55 54 -55q38 0 68 32l6 -5q-40 -69 -103 -69zM67 630h99v-630h-99v630zM226 9q134 25 252 57v-66h-252v9zM376 288q-24 5 -150 26v9q31 5 76.5 13t73.5 12v-60zM470 567
q-16 4 -58 15t-61.5 15.5t-55 11t-69.5 11.5v10h244v-63z" />
    <glyph glyph-name="eogonek" unicode="&#x119;" horiz-adv-x="419" 
d="M239 -214q-38 0 -61.5 19.5t-23.5 56.5q0 66 110 118h11q-32 -26 -46.5 -47.5t-14.5 -49.5q0 -55 54 -55q38 0 68 32l6 -5q-40 -69 -103 -69zM231 -8q-95 0 -150 62t-55 163q0 87 58 146t132 65v-8q-51 -14 -76.5 -61.5t-25.5 -114.5q0 -92 42.5 -139t111.5 -47
q81 0 130 46v-11q-20 -40 -62.5 -70.5t-104.5 -30.5zM152 265l162 10q0 61 -17 100.5t-47 44.5v8q72 -6 108 -53t36 -119h-242v9z" />
    <glyph glyph-name="Ecaron" unicode="&#x11a;" horiz-adv-x="504" 
d="M167 787l5 6l108 -62h5l108 62l5 -6l-113 -112h-6zM67 630h99v-630h-99v630zM226 9q134 25 252 57v-66h-252v9zM376 288q-24 5 -150 26v9q31 5 76.5 13t73.5 12v-60zM470 567q-16 4 -58 15t-61.5 15.5t-55 11t-69.5 11.5v10h244v-63z" />
    <glyph glyph-name="ecaron" unicode="&#x11b;" horiz-adv-x="419" 
d="M113 630l5 6l107 -73h5l107 73l4 -6l-111 -125h-6zM231 -8q-95 0 -150 62t-55 163q0 87 58 146t132 65v-8q-51 -14 -76.5 -61.5t-25.5 -114.5q0 -92 42.5 -139t111.5 -47q81 0 130 46v-11q-20 -40 -62.5 -70.5t-104.5 -30.5zM152 265l162 10q0 61 -17 100.5t-47 44.5v8
q72 -6 108 -53t36 -119h-242v9z" />
    <glyph glyph-name="Gcircumflex" unicode="&#x11c;" horiz-adv-x="627" 
d="M254 681l115 112h5l115 -112l-5 -6l-110 63h-5l-111 -63zM333 -8q-143 8 -222.5 98t-79.5 225q0 142 90.5 226.5t236.5 96.5v-10q-100 -16 -162 -99.5t-62 -213.5q0 -75 18 -139.5t64.5 -114.5t116.5 -60v-9zM378 1q63 8 107 28v235h90v-235q-85 -32 -197 -37v9zM564 549
q-85 59 -161 79v10q105 -5 161 -19v-70z" />
    <glyph glyph-name="gcircumflex" unicode="&#x11d;" horiz-adv-x="441" 
d="M98 510l112 126h5l111 -126l-4 -5l-107 73h-5l-107 -73zM224 -199q153 19 153 115q0 63 -85 63h-161q-98 0 -98 82q0 50 69 90l5 -6q-24 -18 -24 -47q0 -37 43 -37h172q64 0 101.5 -28.5t37.5 -86.5q0 -61 -56 -102t-157 -51v8zM194 -207q-194 2 -194 87q0 58 103 74v-8
q-47 -17 -47 -64q0 -70 138 -81v-8zM196 146q-65 7 -111.5 42.5t-46.5 98.5q0 62 47 98.5t111 43.5v-8q-34 -6 -55.5 -38.5t-21.5 -95.5q0 -118 77 -133v-8zM223 154q77 15 77 133q0 63 -21.5 95.5t-55.5 38.5v8q64 -7 111 -43.5t47 -98.5q0 -63 -46.5 -98.5t-111.5 -42.5v8
zM403 381q-17 0 -29 12.5t-12 29.5t12 29.5t29 12.5t29.5 -12.5t12.5 -29.5t-12.5 -29.5t-29.5 -12.5z" />
    <glyph glyph-name="Gbreve" unicode="&#x11e;" horiz-adv-x="627" 
d="M371 676q-47 0 -75 28t-33 79h10q5 -28 30.5 -44t67.5 -16q86 0 99 60h9q-12 -107 -108 -107zM333 -8q-143 8 -222.5 98t-79.5 225q0 142 90.5 226.5t236.5 96.5v-10q-100 -16 -162 -99.5t-62 -213.5q0 -75 18 -139.5t64.5 -114.5t116.5 -60v-9zM378 1q63 8 107 28v235
h90v-235q-85 -32 -197 -37v9zM564 549q-85 59 -161 79v10q105 -5 161 -19v-70z" />
    <glyph glyph-name="gbreve" unicode="&#x11f;" horiz-adv-x="441" 
d="M224 -199q153 19 153 115q0 63 -85 63h-161q-98 0 -98 82q0 50 69 90l5 -6q-24 -18 -24 -47q0 -37 43 -37h172q64 0 101.5 -28.5t37.5 -86.5q0 -61 -56 -102t-157 -51v8zM194 -207q-194 2 -194 87q0 58 103 74v-8q-47 -17 -47 -64q0 -70 138 -81v-8zM196 146
q-65 7 -111.5 42.5t-46.5 98.5q0 62 47 98.5t111 43.5v-8q-34 -6 -55.5 -38.5t-21.5 -95.5q0 -118 77 -133v-8zM223 154q77 15 77 133q0 63 -21.5 95.5t-55.5 38.5v8q64 -7 111 -43.5t47 -98.5q0 -63 -46.5 -98.5t-111.5 -42.5v8zM403 381q-17 0 -29 12.5t-12 29.5t12 29.5
t29 12.5t29.5 -12.5t12.5 -29.5t-12.5 -29.5t-29.5 -12.5zM212 503q-42 0 -70 29t-34 79h10q12 -61 94 -61t95 61h9q-5 -49 -33.5 -78.5t-70.5 -29.5z" />
    <glyph glyph-name="Gdotaccent" unicode="&#x120;" horiz-adv-x="627" 
d="M371 687q-21 0 -35.5 14t-14.5 35q0 23 14.5 36.5t35.5 13.5t35.5 -13.5t14.5 -36.5q0 -21 -14.5 -35t-35.5 -14zM333 -8q-143 8 -222.5 98t-79.5 225q0 142 90.5 226.5t236.5 96.5v-10q-100 -16 -162 -99.5t-62 -213.5q0 -75 18 -139.5t64.5 -114.5t116.5 -60v-9zM378 1
q63 8 107 28v235h90v-235q-85 -32 -197 -37v9zM564 549q-85 59 -161 79v10q105 -5 161 -19v-70z" />
    <glyph glyph-name="gdotaccent" unicode="&#x121;" horiz-adv-x="441" 
d="M224 -199q153 19 153 115q0 63 -85 63h-161q-98 0 -98 82q0 50 69 90l5 -6q-24 -18 -24 -47q0 -37 43 -37h172q64 0 101.5 -28.5t37.5 -86.5q0 -61 -56 -102t-157 -51v8zM194 -207q-194 2 -194 87q0 58 103 74v-8q-47 -17 -47 -64q0 -70 138 -81v-8zM196 146
q-65 7 -111.5 42.5t-46.5 98.5q0 62 47 98.5t111 43.5v-8q-34 -6 -55.5 -38.5t-21.5 -95.5q0 -118 77 -133v-8zM223 154q77 15 77 133q0 63 -21.5 95.5t-55.5 38.5v8q64 -7 111 -43.5t47 -98.5q0 -63 -46.5 -98.5t-111.5 -42.5v8zM403 381q-17 0 -29 12.5t-12 29.5t12 29.5
t29 12.5t29.5 -12.5t12.5 -29.5t-12.5 -29.5t-29.5 -12.5zM212 503q-21 0 -35 13.5t-14 34.5t14 34.5t35 13.5t35 -13.5t14 -34.5t-14 -34.5t-35 -13.5z" />
    <glyph glyph-name="Gcommaaccent" unicode="&#x122;" horiz-adv-x="627" 
d="M311 -186q3 14 8.5 64.5t7.5 64.5h73q-7 -15 -39.5 -64.5t-39.5 -64.5h-10zM333 -8q-143 8 -222.5 98t-79.5 225q0 142 90.5 226.5t236.5 96.5v-10q-100 -16 -162 -99.5t-62 -213.5q0 -75 18 -139.5t64.5 -114.5t116.5 -60v-9zM378 1q63 8 107 28v235h90v-235
q-85 -32 -197 -37v9zM564 549q-85 59 -161 79v10q105 -5 161 -19v-70z" />
    <glyph glyph-name="gcommaaccent" unicode="&#x123;" horiz-adv-x="441" 
d="M224 -199q153 19 153 115q0 63 -85 63h-161q-98 0 -98 82q0 50 69 90l5 -6q-24 -18 -24 -47q0 -37 43 -37h172q64 0 101.5 -28.5t37.5 -86.5q0 -61 -56 -102t-157 -51v8zM194 -207q-194 2 -194 87q0 58 103 74v-8q-47 -17 -47 -64q0 -70 138 -81v-8zM196 146
q-65 7 -111.5 42.5t-46.5 98.5q0 62 47 98.5t111 43.5v-8q-34 -6 -55.5 -38.5t-21.5 -95.5q0 -118 77 -133v-8zM223 154q77 15 77 133q0 63 -21.5 95.5t-55.5 38.5v8q64 -7 111 -43.5t47 -98.5q0 -63 -46.5 -98.5t-111.5 -42.5v8zM403 381q-17 0 -29 12.5t-12 29.5t12 29.5
t29 12.5t29.5 -12.5t12.5 -29.5t-12.5 -29.5t-29.5 -12.5z" />
    <glyph glyph-name="Hcircumflex" unicode="&#x124;" horiz-adv-x="647" 
d="M67 630h99v-630h-99v630zM199 340h249v-21h-249v21zM481 630h98v-630h-98v630zM206 681l115 112h5l115 -112l-5 -6l-110 63h-5l-111 -63z" />
    <glyph glyph-name="hcircumflex" unicode="&#x125;" 
d="M337 294q0 85 -86 85q-46 0 -89 -28v7q23 29 61.5 49.5t78.5 20.5q59 0 90.5 -33.5t31.5 -91.5v-303h-87v294zM52 677l87 11v-688h-87v677zM125 731l115 112h5l115 -112l-5 -6l-110 63h-5l-111 -63z" />
    <glyph glyph-name="Hbar" unicode="&#x126;" horiz-adv-x="696" 
d="M-24 447h84v-21h-84v21zM92 630h98v-630h-98v630zM224 340h249v-21h-249v21zM224 447h249v-21h-249v21zM506 630h98v-630h-98v630zM636 447h84v-21h-84v21z" />
    <glyph glyph-name="hbar" unicode="&#x127;" 
d="M-10 543h66v134l86 11v-145h102v-16h-102v-527h-86v527h-66v16zM341 294q0 85 -87 85q-43 0 -89 -28v7q23 29 61.5 49.5t78.5 20.5q59 0 90.5 -33.5t31.5 -91.5v-303h-86v294z" />
    <glyph glyph-name="Itilde" unicode="&#x128;" horiz-adv-x="233" 
d="M67 630h99v-630h-99v630zM-11 673q30 85 107 85h94q22 0 35 8.5t26 28.5h7q-29 -91 -104 -91h-98q-40 0 -60 -31h-7z" />
    <glyph glyph-name="itilde" unicode="&#x129;" horiz-adv-x="191" 
d="M52 418l87 12v-430h-87v418zM-31 501q28 82 106 82h90q22 0 34.5 8.5t26.5 29.5h7q-14 -44 -38 -67t-66 -23h-93q-40 0 -61 -30h-6z" />
    <glyph glyph-name="Imacron" unicode="&#x12a;" horiz-adv-x="233" 
d="M20 726h193v-30h-193v30zM67 630h99v-630h-99v630z" />
    <glyph glyph-name="imacron" unicode="&#x12b;" horiz-adv-x="191" 
d="M16 579h160v-30h-160v30zM52 418l87 12v-430h-87v418z" />
    <glyph glyph-name="Ibreve" unicode="&#x12c;" horiz-adv-x="233" 
d="M67 630h99v-630h-99v630zM117 676q-47 0 -75 28t-33 79h10q5 -28 30.5 -44t67.5 -16q86 0 99 60h9q-12 -107 -108 -107z" />
    <glyph glyph-name="ibreve" unicode="&#x12d;" horiz-adv-x="191" 
d="M52 418l87 12v-430h-87v418zM97 503q-42 0 -70 29t-34 79h10q12 -61 94 -61t95 61h9q-5 -49 -33.5 -78.5t-70.5 -29.5z" />
    <glyph glyph-name="Iogonek" unicode="&#x12e;" horiz-adv-x="233" 
d="M67 630h99v-630h-99v630zM108 -214q-38 0 -61.5 19.5t-23.5 56.5q0 66 110 118h11q-32 -26 -46.5 -47.5t-14.5 -49.5q0 -55 54 -55q38 0 68 32l6 -5q-40 -69 -103 -69z" />
    <glyph glyph-name="iogonek" unicode="&#x12f;" horiz-adv-x="191" 
d="M52 415l86 13v-428h-86v415zM95 503q-21 0 -35 13.5t-14 34.5t14 34.5t35 13.5t35 -13.5t14 -34.5t-14 -34.5t-35 -13.5zM83 -214q-38 0 -61.5 19.5t-23.5 56.5q0 66 110 118h11q-32 -26 -46.5 -47.5t-14.5 -49.5q0 -55 54 -55q38 0 68 32l6 -5q-40 -69 -103 -69z" />
    <glyph glyph-name="Idotaccent" unicode="&#x130;" horiz-adv-x="233" 
d="M67 630h99v-630h-99v630zM117 687q-21 0 -35.5 14t-14.5 35q0 23 14.5 36.5t35.5 13.5t35.5 -13.5t14.5 -36.5q0 -21 -14.5 -35t-35.5 -14z" />
    <glyph glyph-name="dotlessi" unicode="&#x131;" horiz-adv-x="191" 
d="M52 418l87 12v-430h-87v418z" />
    <glyph glyph-name="IJ" unicode="&#x132;" horiz-adv-x="567" 
d="M333 1q44 10 58.5 41.5t14.5 94.5v493h98v-459q0 -87 -49 -131t-122 -48v9zM68 630h98v-630h-98v630zM275 20q-21 0 -35.5 14t-14.5 36t14.5 36t35.5 14t35.5 -14.5t14.5 -35.5t-14.5 -35.5t-35.5 -14.5z" />
    <glyph glyph-name="ij" unicode="&#x133;" horiz-adv-x="377" 
d="M52 415l86 13v-428h-86v415zM95 503q-21 0 -35 13.5t-14 34.5t14 34.5t35 13.5t35 -13.5t14 -34.5t-14 -34.5t-35 -13.5zM281 503q-21 0 -35 13.5t-14 34.5t14 34.5t35 13.5t35 -13.5t14 -34.5t-14 -34.5t-35 -13.5zM164 -154q74 24 74 114v455l86 13v-412
q0 -89 -43 -127t-117 -50v7zM120 -140q-16 0 -28 11.5t-12 28.5t12 28t28 11q17 0 28.5 -11t11.5 -28t-11.5 -28.5t-28.5 -11.5z" />
    <glyph glyph-name="Jcircumflex" unicode="&#x134;" horiz-adv-x="373" 
d="M143 681l115 112h5l115 -112l-5 -6l-110 63h-5l-111 -63zM120 1q47 11 69 44.5t22 93.5v491h98v-463q0 -85 -56.5 -128t-132.5 -47v9zM53 20q-21 0 -35 14t-14 36t14 36t35 14t36 -14.5t15 -35.5t-15 -35.5t-36 -14.5z" />
    <glyph glyph-name="jcircumflex" unicode="&#x135;" horiz-adv-x="193" 
d="M-9 -154q33 11 49 36t16 78v458l86 12v-414q0 -90 -39.5 -128t-111.5 -49v7zM-62 -140q-17 0 -28.5 11t-11.5 29q0 17 11.5 28t28.5 11q16 0 28 -11t12 -28t-12 -28.5t-28 -11.5zM-17 510l112 126h5l111 -126l-4 -5l-107 73h-5l-107 -73z" />
    <glyph glyph-name="Kcommaaccent" unicode="&#x136;" horiz-adv-x="592" 
d="M258 -186q3 14 8.5 64.5t7.5 64.5h73q-7 -15 -39.5 -64.5t-39.5 -64.5h-10zM471 0q-151 184 -239 305l68 66q65 -93 144 -194q19 -25 41 -52t50.5 -61t46.5 -57v-7h-111zM67 630h99v-630h-99v630zM416 501q50 112 57 129h99q-27 -26 -71.5 -65.5t-77.5 -70.5z" />
    <glyph glyph-name="kcommaaccent" unicode="&#x137;" horiz-adv-x="435" 
d="M180 -186q3 14 8.5 64.5t7.5 64.5h73q-7 -15 -39.5 -64.5t-39.5 -64.5h-10zM340 0q-118 140 -162 199l58 60q55 -84 200 -254v-5h-96zM52 676l87 12v-688h-87v676zM290 335q18 59 22 86h104q-57 -40 -120 -93z" />
    <glyph glyph-name="Lacute" unicode="&#x139;" horiz-adv-x="486" 
d="M42 683q6 4 80.5 41t86.5 46l21 -54q-10 -1 -93 -20.5t-93 -20.5zM68 630h98v-630h-98v630zM227 9q47 10 81 19t85.5 26.5t74.5 24.5v-79h-241v9z" />
    <glyph glyph-name="lacute" unicode="&#x13a;" horiz-adv-x="192" 
d="M22 733q6 4 80.5 41t86.5 46l21 -54q-10 -2 -93 -20.5t-93 -20.5zM53 676l86 12v-688h-86v676z" />
    <glyph glyph-name="Lcommaaccent" unicode="&#x13b;" horiz-adv-x="486" 
d="M224 -186q3 14 8.5 64.5t7.5 64.5h73q-7 -15 -39.5 -64.5t-39.5 -64.5h-10zM68 630h98v-630h-98v630zM227 9q47 10 81 19t85.5 26.5t74.5 24.5v-79h-241v9z" />
    <glyph glyph-name="lcommaaccent" unicode="&#x13c;" horiz-adv-x="192" 
d="M46 -186q3 14 8.5 64.5t7.5 64.5h73q-7 -15 -39.5 -64.5t-39.5 -64.5h-10zM53 676l86 12v-688h-86v676z" />
    <glyph glyph-name="Lcaron" unicode="&#x13d;" horiz-adv-x="486" 
d="M228 465q6 31 14 90t11 76h59q-8 -25 -35.5 -84t-36.5 -82h-12zM68 630h98v-630h-98v630zM227 9q47 10 81 19t85.5 26.5t74.5 24.5v-79h-241v9z" />
    <glyph glyph-name="lcaron" unicode="&#x13e;" horiz-adv-x="192" 
d="M185 522q6 31 14 90t11 76h59q-8 -25 -35.5 -84t-36.5 -82h-12zM53 676l86 12v-688h-86v676z" />
    <glyph glyph-name="Ldot" unicode="&#x13f;" horiz-adv-x="486" 
d="M367 289q-19 0 -33.5 13.5t-14.5 34.5q0 20 14.5 33.5t33.5 13.5q21 0 35.5 -13t14.5 -34t-14.5 -34.5t-35.5 -13.5zM68 630h98v-630h-98v630zM227 9q47 10 81 19t85.5 26.5t74.5 24.5v-79h-241v9z" />
    <glyph glyph-name="ldot" unicode="&#x140;" horiz-adv-x="280" 
d="M238 273q-20 0 -34 13.5t-14 33.5t14 33.5t34 13.5t33.5 -13.5t13.5 -33.5t-13.5 -33.5t-33.5 -13.5zM52 676l86 12v-688h-86v676z" />
    <glyph glyph-name="Lslash" unicode="&#x141;" horiz-adv-x="486" 
d="M3 227l67 28v375h98v-333l162 69l7 -17l-169 -72v-277h-98v236l-61 -26zM228 9q46 10 79.5 19t86 26t76.5 25v-79h-242v9z" />
    <glyph glyph-name="lslash" unicode="&#x142;" horiz-adv-x="203" 
d="M-12 279l70 40v357l87 12v-318l72 42l8 -15l-80 -47v-350h-87v300l-62 -36z" />
    <glyph glyph-name="Nacute" unicode="&#x143;" horiz-adv-x="615" 
d="M248 683q6 4 80.5 41t86.5 46l21 -54q-10 -1 -93 -20.5t-93 -20.5zM130 487q-48 66 -113 143h127l397 -547v-86h-57zM41 0q25 100 38 160h10q12 -73 38 -160h-86zM530 472q-19 91 -38 158h86q-17 -60 -38 -158h-10z" />
    <glyph glyph-name="nacute" unicode="&#x144;" 
d="M160 513q130 73 162 90l23 -58l-182 -40zM337 295q0 85 -86 85q-46 0 -89 -28v7q23 29 61.5 49.5t78.5 20.5q59 0 90.5 -33.5t31.5 -91.5v-304h-87v295zM52 418l87 11v-429h-87v418z" />
    <glyph glyph-name="Ncommaaccent" unicode="&#x145;" horiz-adv-x="615" 
d="M243 -186q3 14 8.5 64.5t7.5 64.5h73q-7 -15 -39.5 -64.5t-39.5 -64.5h-10zM130 487q-48 66 -113 143h127l397 -547v-86h-57zM41 0q25 100 38 160h10q12 -73 38 -160h-86zM530 472q-19 91 -38 158h86q-17 -60 -38 -158h-10z" />
    <glyph glyph-name="ncommaaccent" unicode="&#x146;" 
d="M188 -186q3 14 8.5 64.5t7.5 64.5h73q-7 -15 -39.5 -64.5t-39.5 -64.5h-10zM337 295q0 85 -86 85q-46 0 -89 -28v7q23 29 61.5 49.5t78.5 20.5q59 0 90.5 -33.5t31.5 -91.5v-304h-87v295zM52 418l87 11v-429h-87v418z" />
    <glyph glyph-name="Ncaron" unicode="&#x147;" horiz-adv-x="615" 
d="M208 787l5 6l108 -62h5l108 62l5 -6l-113 -112h-6zM130 487q-48 66 -113 143h127l397 -547v-86h-57zM41 0q25 100 38 160h10q12 -73 38 -160h-86zM530 472q-19 91 -38 158h86q-17 -60 -38 -158h-10z" />
    <glyph glyph-name="ncaron" unicode="&#x148;" 
d="M127 630l5 6l107 -73h5l107 73l4 -6l-111 -125h-6zM337 295q0 85 -86 85q-46 0 -89 -28v7q23 29 61.5 49.5t78.5 20.5q59 0 90.5 -33.5t31.5 -91.5v-304h-87v295zM52 418l87 11v-429h-87v418z" />
    <glyph glyph-name="napostrophe" unicode="&#x149;" horiz-adv-x="550" 
d="M412 295q0 85 -86 85q-46 0 -89 -28v7q23 29 61.5 49.5t78.5 20.5q59 0 90.5 -33.5t31.5 -91.5v-304h-87v295zM127 418l87 11v-429h-87v418zM33 458q4 18 15.5 84t17.5 88h72q-8 -20 -45 -85.5t-46 -86.5h-14zM412 295q0 85 -86 85q-46 0 -89 -28v7q23 29 61.5 49.5
t78.5 20.5q59 0 90.5 -33.5t31.5 -91.5v-304h-87v295zM127 418l87 11v-429h-87v418zM33 458q4 18 15.5 84t17.5 88h72q-8 -20 -45 -85.5t-46 -86.5h-14z" />
    <glyph glyph-name="Eng" unicode="&#x14a;" horiz-adv-x="615" 
d="M354 -192q91 19 91 138v105l-315 436q-48 66 -113 143h127l397 -547v-109q0 -45 -17 -78.5t-46 -53t-59.5 -30t-64.5 -13.5v9zM41 0q25 100 38 160h10q12 -73 38 -160h-86zM286 -176q-21 0 -34.5 14t-13.5 34q0 21 13.5 35t34.5 14q22 0 35.5 -14t13.5 -35
q0 -20 -13.5 -34t-35.5 -14zM530 472q-19 91 -38 158h86q-17 -60 -38 -158h-10z" />
    <glyph glyph-name="eng" unicode="&#x14b;" 
d="M272 -154q33 10 49 35.5t16 78.5v335q0 85 -86 85q-46 0 -89 -28v7q23 29 61.5 49.5t78.5 20.5q59 0 90.5 -33.5t31.5 -91.5v-288q0 -90 -39.5 -128t-112.5 -49v7zM52 418l87 11v-429h-87v418zM220 -140q-17 0 -28.5 11t-11.5 29q0 17 11.5 28t28.5 11q16 0 27.5 -11
t11.5 -28t-11.5 -28.5t-27.5 -11.5z" />
    <glyph glyph-name="Omacron" unicode="&#x14c;" horiz-adv-x="692" 
d="M235 726h223v-30h-223v30zM322 -8q-123 8 -207 102t-84 221t84 221t207 102v-9q-66 -10 -110 -59t-61 -113t-17 -142q0 -77 17 -141.5t61 -114t110 -58.5v-9zM370 1q67 9 111 58.5t60.5 114t16.5 141.5q0 78 -16.5 142t-60.5 113t-111 59v9q123 -8 207 -102t84 -221
t-84 -221t-207 -102v9z" />
    <glyph glyph-name="omacron" unicode="&#x14d;" horiz-adv-x="496" 
d="M145 577h206v-30h-206v30zM228 -8q-88 8 -145 70t-57 148t57 148.5t145 70.5v-8q-26 -7 -48 -22q-63 -49 -63 -189q0 -139 63 -188q19 -16 48 -22v-8zM268 0q29 6 48 22q64 48 64 188q0 141 -64 189q-22 15 -48 22v8q88 -8 145 -70.5t57 -148.5t-57 -148t-145 -70v8z" />
    <glyph glyph-name="Obreve" unicode="&#x14e;" horiz-adv-x="692" 
d="M346 676q-47 0 -75 28t-33 79h10q5 -28 30.5 -44t67.5 -16q86 0 99 60h9q-12 -107 -108 -107zM322 -8q-123 8 -207 102t-84 221t84 221t207 102v-9q-66 -10 -110 -59t-61 -113t-17 -142q0 -77 17 -141.5t61 -114t110 -58.5v-9zM370 1q67 9 111 58.5t60.5 114t16.5 141.5
q0 78 -16.5 142t-60.5 113t-111 59v9q123 -8 207 -102t84 -221t-84 -221t-207 -102v9z" />
    <glyph glyph-name="obreve" unicode="&#x14f;" horiz-adv-x="496" 
d="M228 -8q-88 8 -145 70t-57 148t57 148.5t145 70.5v-8q-26 -7 -48 -22q-63 -49 -63 -189q0 -139 63 -188q19 -16 48 -22v-8zM268 0q29 6 48 22q64 48 64 188q0 141 -64 189q-22 15 -48 22v8q88 -8 145 -70.5t57 -148.5t-57 -148t-145 -70v8zM248 503q-42 0 -70 29t-34 79
h10q12 -61 94 -61t95 61h9q-5 -49 -33.5 -78.5t-70.5 -29.5z" />
    <glyph glyph-name="Ohungarumlaut" unicode="&#x150;" horiz-adv-x="692" 
d="M272 695l74 121l50 -30l-119 -94zM394 695l73 121l50 -30l-118 -94zM322 -8q-123 8 -207 102t-84 221t84 221t207 102v-9q-66 -10 -110 -59t-61 -113t-17 -142q0 -77 17 -141.5t61 -114t110 -58.5v-9zM370 1q67 9 111 58.5t60.5 114t16.5 141.5q0 78 -16.5 142t-60.5 113
t-111 59v9q123 -8 207 -102t84 -221t-84 -221t-207 -102v9z" />
    <glyph glyph-name="ohungarumlaut" unicode="&#x151;" horiz-adv-x="496" 
d="M185 496l67 137l46 -29l-108 -112zM296 496l67 137l46 -29l-108 -112zM228 -8q-88 8 -145 70t-57 148t57 148.5t145 70.5v-8q-26 -7 -48 -22q-63 -49 -63 -189q0 -139 63 -188q19 -16 48 -22v-8zM268 0q29 6 48 22q64 48 64 188q0 141 -64 189q-22 15 -48 22v8
q88 -8 145 -70.5t57 -148.5t-57 -148t-145 -70v8z" />
    <glyph glyph-name="OE" unicode="&#x152;" horiz-adv-x="831" 
d="M407 630h98v-630h-98v630zM351 0q-135 6 -228 91t-93 224t93 224t228 91v-9q-106 -11 -161.5 -91.5t-55.5 -214.5q0 -132 56 -213t161 -93v-9zM566 9q105 20 240 57v-66h-240v9zM798 567q-24 6 -71.5 18.5t-82 20t-78.5 14.5v10h232v-63zM706 288q-17 3 -59 10.5
t-81 15.5v9l140 25v-60z" />
    <glyph glyph-name="oe" unicode="&#x153;" horiz-adv-x="755" 
d="M259 0q27 6 46 22q60 47 60 188q0 142 -60 189q-22 15 -46 22v8q47 -5 85.5 -31.5t63.5 -67.5q21 43 58.5 68.5t78.5 29.5v-8q-92 -23 -92 -176q0 -92 41.5 -139t110.5 -47q84 0 129 42v-11q-48 -97 -160 -97q-54 0 -98.5 27t-67.5 73q-49 -89 -149 -100v8zM221 -8
q-84 8 -139.5 70t-55.5 148t55.5 148.5t139.5 70.5v-8q-28 -7 -46 -22q-59 -46 -59 -189q0 -142 59 -188q16 -16 46 -22v-8zM491 265l160 10q0 65 -21.5 102t-53.5 43v8q72 -4 113 -54t41 -118h-239v9z" />
    <glyph glyph-name="Racute" unicode="&#x154;" horiz-adv-x="541" 
d="M194 683q6 4 80.5 41t86.5 46l21 -54q-10 -1 -93 -20.5t-93 -20.5zM434 0q-18 27 -96 137.5t-115 168.5q150 34 150 158q0 77 -39 112t-116 44v10q40 -2 73 -6.5t68 -16t58.5 -29.5t39 -48t15.5 -70q0 -55 -42.5 -94t-106.5 -59q24 -39 218 -302v-5h-107zM67 630h99v-630
h-99v630z" />
    <glyph glyph-name="racute" unicode="&#x155;" horiz-adv-x="315" 
d="M118 513q130 73 162 90l23 -58l-182 -40zM164 329q9 38 39 69t72 31q22 0 30 -5v-72q-19 7 -47 7q-59 0 -94 -39v9zM52 418l87 11v-429h-87v418z" />
    <glyph glyph-name="Rcommaaccent" unicode="&#x156;" horiz-adv-x="541" 
d="M234 -186q3 14 8.5 64.5t7.5 64.5h73q-7 -15 -39.5 -64.5t-39.5 -64.5h-10zM434 0q-18 27 -96 137.5t-115 168.5q150 34 150 158q0 77 -39 112t-116 44v10q40 -2 73 -6.5t68 -16t58.5 -29.5t39 -48t15.5 -70q0 -55 -42.5 -94t-106.5 -59q24 -39 218 -302v-5h-107zM67 630
h99v-630h-99v630z" />
    <glyph glyph-name="rcommaaccent" unicode="&#x157;" horiz-adv-x="315" 
d="M41 -186q3 14 8.5 64.5t7.5 64.5h73q-7 -15 -39.5 -64.5t-39.5 -64.5h-10zM164 329q9 38 39 69t72 31q22 0 30 -5v-72q-19 7 -47 7q-59 0 -94 -39v9zM52 418l87 11v-429h-87v418z" />
    <glyph glyph-name="Rcaron" unicode="&#x158;" horiz-adv-x="541" 
d="M153 787l5 6l108 -62h5l108 62l5 -6l-113 -112h-6zM434 0q-18 27 -96 137.5t-115 168.5q150 34 150 158q0 77 -39 112t-116 44v10q40 -2 73 -6.5t68 -16t58.5 -29.5t39 -48t15.5 -70q0 -55 -42.5 -94t-106.5 -59q24 -39 218 -302v-5h-107zM67 630h99v-630h-99v630z" />
    <glyph glyph-name="rcaron" unicode="&#x159;" horiz-adv-x="315" 
d="M84 630l5 6l107 -73h5l107 73l4 -6l-111 -125h-6zM164 329q9 38 39 69t72 31q22 0 30 -5v-72q-19 7 -47 7q-59 0 -94 -39v9zM52 418l87 11v-429h-87v418z" />
    <glyph glyph-name="Sacute" unicode="&#x15a;" horiz-adv-x="464" 
d="M227 1q116 26 116 137q0 46 -25 72t-95 65l-40 21q-69 35 -104 73t-35 99q0 71 54.5 118.5t124.5 51.5v-9q-43 -4 -73 -34t-30 -71q0 -52 22.5 -77t99.5 -68l35 -18q77 -44 99 -66q44 -43 44 -114q0 -82 -60.5 -133.5t-132.5 -55.5v9zM179 -8q-97 5 -143 25v70
q66 -67 143 -86v-9zM394 558q-68 59 -123 71v9q86 -6 123 -16v-64zM175 683q6 4 80.5 41t86.5 46l21 -54q-10 -1 -93 -20.5t-93 -20.5z" />
    <glyph glyph-name="sacute" unicode="&#x15b;" horiz-adv-x="346" 
d="M97 513q130 73 162 90l23 -58l-182 -40zM172 0q32 4 57.5 26.5t25.5 59.5q0 30 -16.5 46t-51.5 33l-65 30q-90 36 -90 113q0 48 37 81.5t94 39.5v-8q-67 -13 -67 -66q0 -49 55 -73l78 -35q89 -40 89 -118q0 -58 -42 -95.5t-104 -41.5v8zM139 -8q-67 6 -107 16v67
q61 -59 107 -75v-8zM289 355q-41 44 -98 66v8q59 -3 98 -15v-59z" />
    <glyph glyph-name="Scircumflex" unicode="&#x15c;" horiz-adv-x="464" 
d="M133 681l115 112h5l115 -112l-5 -6l-110 63h-5l-111 -63zM227 1q116 26 116 137q0 46 -25 72t-95 65l-40 21q-69 35 -104 73t-35 99q0 71 54.5 118.5t124.5 51.5v-9q-43 -4 -73 -34t-30 -71q0 -52 22.5 -77t99.5 -68l35 -18q77 -44 99 -66q44 -43 44 -114
q0 -82 -60.5 -133.5t-132.5 -55.5v9zM179 -8q-97 5 -143 25v70q66 -67 143 -86v-9zM394 558q-68 59 -123 71v9q86 -6 123 -16v-64z" />
    <glyph glyph-name="scircumflex" unicode="&#x15d;" horiz-adv-x="346" 
d="M63 510l112 126h5l111 -126l-4 -5l-107 73h-5l-107 -73zM172 0q32 4 57.5 26.5t25.5 59.5q0 30 -16.5 46t-51.5 33l-65 30q-90 36 -90 113q0 48 37 81.5t94 39.5v-8q-67 -13 -67 -66q0 -49 55 -73l78 -35q89 -40 89 -118q0 -58 -42 -95.5t-104 -41.5v8zM139 -8
q-67 6 -107 16v67q61 -59 107 -75v-8zM289 355q-41 44 -98 66v8q59 -3 98 -15v-59z" />
    <glyph glyph-name="Scedilla" unicode="&#x15e;" horiz-adv-x="464" 
d="M227 1q116 26 116 137q0 46 -25 72t-95 65l-40 21q-69 35 -104 73t-35 99q0 71 54.5 118.5t124.5 51.5v-9q-43 -4 -73 -34t-30 -71q0 -52 22.5 -77t99.5 -68l35 -18q77 -44 99 -66q44 -43 44 -114q0 -82 -60.5 -133.5t-132.5 -55.5v9zM179 -8q-97 5 -143 25v70
q66 -67 143 -86v-9zM394 558q-68 59 -123 71v9q86 -6 123 -16v-64zM112 -212q-11 0 -17.5 7t-6.5 17q0 25 24 25q25 0 25 -25q0 -10 -7 -17t-18 -7zM158 -201q21 13 21 33q0 10 -18 36q-15 28 -15 40q0 18 21 37t53 31l4 -6q-29 -23 -29 -39q0 -11 14 -33q20 -32 20 -47
q0 -17 -19.5 -33t-48.5 -25z" />
    <glyph glyph-name="scedilla" unicode="&#x15f;" horiz-adv-x="346" 
d="M172 0q32 4 57.5 26.5t25.5 59.5q0 30 -16.5 46t-51.5 33l-65 30q-90 36 -90 113q0 48 37 81.5t94 39.5v-8q-67 -13 -67 -66q0 -49 55 -73l78 -35q89 -40 89 -118q0 -58 -42 -95.5t-104 -41.5v8zM139 -8q-67 6 -107 16v67q61 -59 107 -75v-8zM289 355q-41 44 -98 66v8
q59 -3 98 -15v-59zM164 -197q11 8 11 18q0 9 -5 17t-8 11.5t-20 18.5q-25 25 -25 48q0 31 52 62l6 -7q-14 -16 -14 -27q0 -18 26 -42q32 -32 32 -53q0 -14 -16 -29t-34 -23zM123 -218q-10 0 -17 7t-7 17q0 11 7 17.5t17 6.5t17 -6.5t7 -17.5q0 -10 -7 -17t-17 -7z" />
    <glyph glyph-name="Scaron" unicode="&#x160;" horiz-adv-x="464" 
d="M135 787l5 6l108 -62h5l108 62l5 -6l-113 -112h-6zM227 1q116 26 116 137q0 46 -25 72t-95 65l-40 21q-69 35 -104 73t-35 99q0 71 54.5 118.5t124.5 51.5v-9q-43 -4 -73 -34t-30 -71q0 -52 22.5 -77t99.5 -68l35 -18q77 -44 99 -66q44 -43 44 -114q0 -82 -60.5 -133.5
t-132.5 -55.5v9zM179 -8q-97 5 -143 25v70q66 -67 143 -86v-9zM394 558q-68 59 -123 71v9q86 -6 123 -16v-64z" />
    <glyph glyph-name="scaron" unicode="&#x161;" horiz-adv-x="346" 
d="M63 630l5 6l107 -73h5l107 73l4 -6l-111 -125h-6zM172 0q32 4 57.5 26.5t25.5 59.5q0 30 -16.5 46t-51.5 33l-65 30q-90 36 -90 113q0 48 37 81.5t94 39.5v-8q-67 -13 -67 -66q0 -49 55 -73l78 -35q89 -40 89 -118q0 -58 -42 -95.5t-104 -41.5v8zM139 -8q-67 6 -107 16
v67q61 -59 107 -75v-8zM289 355q-41 44 -98 66v8q59 -3 98 -15v-59z" />
    <glyph glyph-name="Tcommaaccent" unicode="&#x162;" horiz-adv-x="551" 
d="M224 -186q3 14 8.5 64.5t7.5 64.5h73q-7 -15 -39.5 -64.5t-39.5 -64.5h-10zM9 630h176v-10q-54 -15 -176 -66v76zM226 630h99v-630h-99v630zM542 554q-122 51 -176 66v10h176v-76z" />
    <glyph glyph-name="tcommaaccent" unicode="&#x163;" horiz-adv-x="302" 
d="M122 -186q3 14 8.5 64.5t7.5 64.5h73q-7 -15 -39.5 -64.5t-39.5 -64.5h-10zM179 -8q-109 0 -109 127v273h-65v29h65v111l86 29v-140h132v-29h-132v-262q0 -45 15 -69.5t56 -24.5q50 0 76 16v-10q-13 -19 -46.5 -34.5t-77.5 -15.5z" />
    <glyph glyph-name="Tcaron" unicode="&#x164;" horiz-adv-x="551" 
d="M160 787l5 6l108 -62h5l108 62l5 -6l-113 -112h-6zM9 630h176v-10q-54 -15 -176 -66v76zM226 630h99v-630h-99v630zM542 554q-122 51 -176 66v10h176v-76z" />
    <glyph glyph-name="tcaron" unicode="&#x165;" horiz-adv-x="302" 
d="M204 522q6 31 14 90t11 76h59q-8 -25 -35.5 -84t-36.5 -82h-12zM179 -8q-109 0 -109 127v273h-65v29h65v111l86 29v-140h132v-29h-132v-262q0 -45 15 -69.5t56 -24.5q50 0 76 16v-10q-13 -19 -46.5 -34.5t-77.5 -15.5z" />
    <glyph glyph-name="Tbar" unicode="&#x166;" horiz-adv-x="551" 
d="M79 355h116v-21h-116v21zM9 630h176v-10q-54 -15 -176 -66v76zM226 630h99v-630h-99v630zM356 355h116v-21h-116v21zM542 554q-122 51 -176 66v10h176v-76z" />
    <glyph glyph-name="tbar" unicode="&#x167;" horiz-adv-x="302" 
d="M3 312h65v80h-65v29h66v111l85 29v-140h132v-29h-132v-80h132v-17h-132v-165q0 -45 15 -69.5t56 -24.5q50 0 76 16v-10q-13 -19 -46.5 -34.5t-77.5 -15.5q-109 0 -109 127v176h-65v17z" />
    <glyph glyph-name="Utilde" unicode="&#x168;" horiz-adv-x="604" 
d="M303 -8q-110 0 -174.5 59t-64.5 175v404h98v-400q0 -90 46 -135t129 -45q108 0 156 58l7 -6q-22 -48 -72.5 -79t-124.5 -31zM525 460q-18 88 -40 170h89q-28 -111 -39 -170h-10zM203 673q30 85 107 85h94q22 0 35 8.5t26 28.5h7q-29 -91 -104 -91h-98q-40 0 -60 -31h-7z
" />
    <glyph glyph-name="utilde" unicode="&#x169;" 
d="M176 -7q-61 0 -93 34t-32 93v298l86 13v-304q0 -85 86 -85q43 0 90 29v-7q-21 -29 -59 -50t-78 -21zM336 418l86 13v-425l-86 -11v423zM109 501q28 82 106 82h90q22 0 34.5 8.5t26.5 29.5h7q-14 -44 -38 -67t-66 -23h-93q-40 0 -61 -30h-6z" />
    <glyph glyph-name="Umacron" unicode="&#x16a;" horiz-adv-x="604" 
d="M303 -8q-110 0 -174.5 59t-64.5 175v404h98v-400q0 -90 46 -135t129 -45q108 0 156 58l7 -6q-22 -48 -72.5 -79t-124.5 -31zM525 460q-18 88 -40 170h89q-28 -111 -39 -170h-10zM221 726h223v-30h-223v30z" />
    <glyph glyph-name="umacron" unicode="&#x16b;" 
d="M176 -7q-61 0 -93 34t-32 93v298l86 13v-304q0 -85 86 -85q43 0 90 29v-7q-21 -29 -59 -50t-78 -21zM336 418l86 13v-425l-86 -11v423zM134 577h206v-30h-206v30z" />
    <glyph glyph-name="Ubreve" unicode="&#x16c;" horiz-adv-x="604" 
d="M303 -8q-110 0 -174.5 59t-64.5 175v404h98v-400q0 -90 46 -135t129 -45q108 0 156 58l7 -6q-22 -48 -72.5 -79t-124.5 -31zM525 460q-18 88 -40 170h89q-28 -111 -39 -170h-10zM332 676q-47 0 -75 28t-33 79h10q5 -28 30.5 -44t67.5 -16q86 0 99 60h9
q-12 -107 -108 -107z" />
    <glyph glyph-name="ubreve" unicode="&#x16d;" 
d="M176 -7q-61 0 -93 34t-32 93v298l86 13v-304q0 -85 86 -85q43 0 90 29v-7q-21 -29 -59 -50t-78 -21zM336 418l86 13v-425l-86 -11v423zM236 503q-42 0 -70 29t-34 79h10q12 -61 94 -61t95 61h9q-5 -49 -33.5 -78.5t-70.5 -29.5z" />
    <glyph glyph-name="Uring" unicode="&#x16e;" horiz-adv-x="604" 
d="M303 -8q-110 0 -174.5 59t-64.5 175v404h98v-400q0 -90 46 -135t129 -45q108 0 156 58l7 -6q-22 -48 -72.5 -79t-124.5 -31zM525 460q-18 88 -40 170h89q-28 -111 -39 -170h-10zM343 663q21 3 35.5 18t14.5 40q0 26 -14 41t-36 18v13q27 -2 46.5 -21.5t19.5 -50.5
q0 -30 -20 -49t-46 -21v12zM322 651q-26 2 -45.5 21t-19.5 49q0 31 19.5 50.5t45.5 21.5v-13q-22 -3 -36 -18t-14 -41q0 -25 14.5 -40t35.5 -18v-12z" />
    <glyph glyph-name="uring" unicode="&#x16f;" 
d="M247 502q21 2 35 17t14 40q0 52 -49 59v13q26 -2 45.5 -21.5t19.5 -50.5q0 -30 -20 -49.5t-45 -21.5v14zM226 488q-25 2 -44.5 21.5t-19.5 49.5q0 31 19 50.5t45 21.5v-13q-49 -7 -49 -59q0 -25 14.5 -40t34.5 -17v-14zM176 -7q-61 0 -93 34t-32 93v298l86 13v-304
q0 -85 86 -85q43 0 90 29v-7q-21 -29 -59 -50t-78 -21zM336 418l86 13v-425l-86 -11v423z" />
    <glyph glyph-name="Uhungarumlaut" unicode="&#x170;" horiz-adv-x="604" 
d="M258 695l74 121l50 -30l-119 -94zM380 695l73 121l50 -30l-118 -94zM303 -8q-110 0 -174.5 59t-64.5 175v404h98v-400q0 -90 46 -135t129 -45q108 0 156 58l7 -6q-22 -48 -72.5 -79t-124.5 -31zM525 460q-18 88 -40 170h89q-28 -111 -39 -170h-10z" />
    <glyph glyph-name="uhungarumlaut" unicode="&#x171;" 
d="M176 -7q-61 0 -93 34t-32 93v298l86 13v-304q0 -85 86 -85q43 0 90 29v-7q-21 -29 -59 -50t-78 -21zM336 418l86 13v-425l-86 -11v423zM173 496l67 137l46 -29l-108 -112zM284 496l67 137l46 -29l-108 -112z" />
    <glyph glyph-name="Uogonek" unicode="&#x172;" horiz-adv-x="604" 
d="M325 -214q-38 0 -61.5 19.5t-23.5 56.5q0 66 110 118h11q-32 -26 -46.5 -47.5t-14.5 -49.5q0 -55 54 -55q38 0 68 32l6 -5q-40 -69 -103 -69zM303 -8q-110 0 -174.5 59t-64.5 175v404h98v-400q0 -90 46 -135t129 -45q108 0 156 58l7 -6q-22 -48 -72.5 -79t-124.5 -31z
M525 460q-18 88 -40 170h89q-28 -111 -39 -170h-10z" />
    <glyph glyph-name="uogonek" unicode="&#x173;" 
d="M318 -214q-38 0 -61.5 19.5t-23.5 56.5q0 66 110 118h11q-32 -26 -46.5 -47.5t-14.5 -49.5q0 -55 54 -55q38 0 68 32l6 -5q-40 -69 -103 -69zM176 -7q-61 0 -93 34t-32 93v298l86 13v-304q0 -85 86 -85q43 0 90 29v-7q-21 -29 -59 -50t-78 -21zM336 418l86 13v-425
l-86 -11v423z" />
    <glyph glyph-name="Wcircumflex" unicode="&#x174;" horiz-adv-x="820" 
d="M271 681l115 112h5l115 -112l-5 -6l-110 63h-5l-111 -63zM15 630h103l180 -524l-41 -109h-26zM329 630h103l180 -524l-41 -109h-25zM721 476q7 49 18 154h81q-58 -99 -89 -159z" />
    <glyph glyph-name="wcircumflex" unicode="&#x175;" horiz-adv-x="590" 
d="M174 510l112 126h5l111 -126l-4 -5l-107 73h-5l-107 -73zM5 421h92l130 -333l-36 -89h-19zM231 421h92l127 -333l-36 -89h-19zM513 308q12 80 16 113h67q-29 -40 -77 -119z" />
    <glyph glyph-name="Ycircumflex" unicode="&#x176;" horiz-adv-x="528" 
d="M202 295l-202 335h108l193 -317v-313h-99v295zM399 491q42 101 57 139h82q-23 -23 -42 -44t-43.5 -48.5t-46.5 -51.5zM170 681l115 112h5l115 -112l-5 -6l-110 63h-5l-111 -63z" />
    <glyph glyph-name="ycircumflex" unicode="&#x177;" horiz-adv-x="386" 
d="M4 421h90l146 -325l-36 -90h-14zM79 -178q-17 0 -28.5 11t-11.5 29q0 17 11.5 28t28.5 11t28.5 -11t11.5 -28t-11.5 -28.5t-28.5 -11.5zM310 308q6 29 16 113h67q-38 -56 -76 -119zM99 510l112 126h5l111 -126l-4 -5l-107 73h-5l-107 -73z" />
    <glyph glyph-name="Ydieresis" unicode="&#x178;" horiz-adv-x="528" 
d="M202 295l-202 335h108l193 -317v-313h-99v295zM399 491q42 101 57 139h82q-23 -23 -42 -44t-43.5 -48.5t-46.5 -51.5zM197 688q-17 0 -29 12.5t-12 29.5t12 28.5t29 11.5t29 -11.5t12 -28.5t-12 -29.5t-29 -12.5zM377 688q-17 0 -28.5 12.5t-11.5 29.5t11.5 28.5
t28.5 11.5t29.5 -11.5t12.5 -28.5t-12.5 -29.5t-29.5 -12.5z" />
    <glyph glyph-name="Zacute" unicode="&#x179;" horiz-adv-x="546" 
d="M202 683q6 4 80.5 41t86.5 46l21 -54q-10 -1 -93 -20.5t-93 -20.5zM48 630h246v-11q-124 -22 -253 -60zM412 630h109l-384 -630h-107zM246 9q92 14 264 65l-7 -74h-257v9z" />
    <glyph glyph-name="zacute" unicode="&#x17a;" horiz-adv-x="393" 
d="M131 513q130 73 162 90l23 -58l-182 -40zM36 421h137v-8q-56 -16 -141 -55zM278 421h97l-262 -421h-95zM212 8q89 22 161 59l-4 -67h-157v8z" />
    <glyph glyph-name="Zdotaccent" unicode="&#x17b;" horiz-adv-x="546" 
d="M48 630h246v-11q-124 -22 -253 -60zM412 630h109l-384 -630h-107zM246 9q92 14 264 65l-7 -74h-257v9zM281 687q-21 0 -35.5 14t-14.5 35q0 23 14.5 36.5t35.5 13.5t35.5 -13.5t14.5 -36.5q0 -21 -14.5 -35t-35.5 -14z" />
    <glyph glyph-name="zdotaccent" unicode="&#x17c;" horiz-adv-x="393" 
d="M36 421h137v-8q-56 -16 -141 -55zM278 421h97l-262 -421h-95zM212 8q89 22 161 59l-4 -67h-157v8zM211 503q-21 0 -35 13.5t-14 34.5t14 34.5t35 13.5t35 -13.5t14 -34.5t-14 -34.5t-35 -13.5z" />
    <glyph glyph-name="Zcaron" unicode="&#x17d;" horiz-adv-x="546" 
d="M166 787l5 6l108 -62h5l108 62l5 -6l-113 -112h-6zM48 630h246v-11q-124 -22 -253 -60zM412 630h109l-384 -630h-107zM246 9q92 14 264 65l-7 -74h-257v9z" />
    <glyph glyph-name="zcaron" unicode="&#x17e;" horiz-adv-x="393" 
d="M97 630l5 6l107 -73h5l107 73l4 -6l-111 -125h-6zM36 421h137v-8q-56 -16 -141 -55zM278 421h97l-262 -421h-95zM212 8q89 22 161 59l-4 -67h-157v8z" />
    <glyph glyph-name="longs" unicode="&#x17f;" horiz-adv-x="198" 
d="M53 524q0 143 183 163v-8q-96 -17 -96 -112v-567h-87v524zM267 584q-17 0 -28.5 11.5t-11.5 28.5q0 18 11.5 29t28.5 11q18 0 29.5 -11t11.5 -29t-11.5 -29t-29.5 -11z" />
    <glyph glyph-name="florin" unicode="&#x192;" horiz-adv-x="272" 
d="M38 342h61l11 53q14 72 63 115.5t124 50.5l-2 -8q-76 -17 -95 -119l-19 -92h92l-5 -26h-92l-50 -255q-38 -187 -187 -204l2 8q41 12 61 46t35 112l57 293h-61zM315 464q-17 0 -27.5 10.5t-10.5 26.5t10.5 26.5t27.5 10.5q16 0 26.5 -10.5t10.5 -26.5t-10.5 -26.5
t-26.5 -10.5zM-81 -119q-15 0 -25.5 10t-10.5 25q0 16 10.5 26t25.5 10q16 0 26.5 -10t10.5 -26q0 -15 -10.5 -25t-26.5 -10z" />
    <glyph glyph-name="Aringacute" unicode="&#x1fa;" horiz-adv-x="545" 
d="M129 263h202l-103 268l41 106h25l242 -637h-103l-94 242h-218zM4 0q64 107 82 144l10 -4q-14 -122 -15 -140h-77zM206 834q6 4 80.5 41t86.5 46l21 -54q-10 -1 -93 -20t-93 -21zM291 681q21 3 35.5 18t14.5 40q0 26 -14 41t-36 18v13q27 -2 46.5 -21.5t19.5 -50.5
q0 -30 -20 -49t-46 -21v12zM270 669q-26 2 -45.5 21t-19.5 49q0 31 19.5 50.5t45.5 21.5v-13q-22 -3 -36 -18t-14 -41q0 -25 14.5 -40t35.5 -18v-12z" />
    <glyph glyph-name="aringacute" unicode="&#x1fb;" horiz-adv-x="405" 
d="M134 -8q-54 0 -81.5 30t-27.5 72q0 29 13.5 50t27 29.5t36.5 19.5q26 10 140 38v-9q-76 -23 -100 -39q-33 -24 -33 -75q0 -77 63 -77q34 0 72 28v-7q-40 -60 -110 -60zM267 303q0 51 -23 72t-76 21q-44 0 -69 -12v8q16 13 53 25t73 12q129 0 129 -111v-318h-87v303z
M89 286q-17 0 -27.5 11t-10.5 27t10.5 27t27.5 11t27 -11t10 -27t-10 -27t-27 -11zM223 502q21 2 35 17t14 40q0 52 -49 59v13q26 -2 45.5 -21.5t19.5 -50.5q0 -30 -20 -49.5t-45 -21.5v14zM202 488q-25 2 -44.5 21.5t-19.5 49.5q0 31 19 50.5t45 21.5v-13q-49 -7 -49 -59
q0 -25 14.5 -40t34.5 -17v-14zM138 683q6 4 80.5 41t86.5 46l21 -54q-10 -1 -93 -20.5t-93 -20.5z" />
    <glyph glyph-name="AEacute" unicode="&#x1fc;" horiz-adv-x="797" 
d="M409 683q6 4 80.5 41t86.5 46l21 -54q-10 -1 -93 -20.5t-93 -20.5zM192 328h177v302h98v-630h-98v306h-189zM528 9q120 23 244 57v-66h-244v9zM764 567q-25 6 -73.5 19t-84 20.5t-79.5 13.5v10h237v-63zM-6 0q35 46 103 144l10 -4q-3 -10 -12.5 -42.5t-15.5 -56.5t-8 -41
h-77zM670 288q-62 13 -142 26v9q117 19 142 25v-60z" />
    <glyph glyph-name="aeacute" unicode="&#x1fd;" horiz-adv-x="644" 
d="M258 513q130 73 162 90l23 -58l-182 -40zM459 -8q-91 0 -147.5 59t-56.5 172v80q0 51 -22 72t-73 21q-41 0 -65 -12v8q16 13 52 25t70 12q38 0 66 -16.5t36 -47.5q48 56 116 63v-8q-94 -25 -94 -176q0 -92 41.5 -139t110.5 -47q85 0 130 42v-11q-19 -39 -60.5 -68
t-103.5 -29zM134 -8q-53 0 -81 30.5t-28 71.5q0 29 12.5 50t26 29.5t35.5 19.5q34 13 134 38v-9q-63 -20 -94 -38q-30 -21 -30 -76q0 -75 66 -75q46 0 84 38v-7q-13 -27 -49 -49.5t-76 -22.5zM379 265l163 10q0 65 -22 102t-54 43v8q71 -4 112 -54t41 -118h-240v9zM82 286
q-17 0 -27.5 10.5t-10.5 27.5q0 16 10.5 26.5t27.5 10.5t27 -10.5t10 -26.5q0 -17 -10 -27.5t-27 -10.5z" />
    <glyph glyph-name="Oslashacute" unicode="&#x1fe;" horiz-adv-x="692" 
d="M370 1q51 7 88.5 36.5t58.5 74.5t30.5 95.5t9.5 107.5q0 142 -54 226l-281 -492q40 -39 100 -48v-9q-62 4 -115 31l-51 -89l-18 10l51 88q-72 43 -115 118.5t-43 164.5q0 127 84 221t207 102v-9q-97 -15 -142 -103t-45 -211q0 -164 72 -251l284 495q-46 59 -121 70v9
q79 -5 140 -45l53 91l16 -10l-53 -92q63 -46 99 -116t36 -151q0 -127 -84 -221t-207 -102v9zM271 683q6 4 80.5 41t86.5 46l21 -54q-10 -1 -93 -20.5t-93 -20.5z" />
    <glyph glyph-name="oslashacute" unicode="&#x1ff;" horiz-adv-x="496" 
d="M268 0q29 6 48 22q64 48 64 188q0 114 -40 164l-167 -347l7 -5q19 -16 48 -22v-8q-34 4 -64 15l-35 -72l-15 8l34 71q-56 27 -89 79.5t-33 116.5q0 86 57 148.5t145 70.5v-8q-26 -7 -48 -22q-63 -49 -63 -189q0 -118 44 -170l168 347l-13 12q-22 15 -48 22v8
q37 -4 72 -19l33 68l14 -6l-33 -69q54 -28 85 -79.5t31 -113.5q0 -86 -57 -148t-145 -70v8zM168 513q130 73 162 90l23 -58l-182 -40z" />
    <glyph glyph-name="Scommaaccent" unicode="&#x218;" horiz-adv-x="464" 
d="M159 -186q3 14 8.5 64.5t7.5 64.5h73q-7 -15 -39.5 -64.5t-39.5 -64.5h-10zM227 1q116 26 116 137q0 46 -25 72t-95 65l-40 21q-69 35 -104 73t-35 99q0 71 54.5 118.5t124.5 51.5v-9q-43 -4 -73 -34t-30 -71q0 -52 22.5 -77t99.5 -68l35 -18q77 -44 99 -66
q44 -43 44 -114q0 -82 -60.5 -133.5t-132.5 -55.5v9zM179 -8q-97 5 -143 25v70q66 -67 143 -86v-9zM394 558q-68 59 -123 71v9q86 -6 123 -16v-64z" />
    <glyph glyph-name="scommaaccent" unicode="&#x219;" horiz-adv-x="346" 
d="M116 -186q3 14 8.5 64.5t7.5 64.5h73q-7 -15 -39.5 -64.5t-39.5 -64.5h-10zM172 0q32 4 57.5 26.5t25.5 59.5q0 30 -16.5 46t-51.5 33l-65 30q-90 36 -90 113q0 48 37 81.5t94 39.5v-8q-67 -13 -67 -66q0 -49 55 -73l78 -35q89 -40 89 -118q0 -58 -42 -95.5t-104 -41.5v8
zM139 -8q-67 6 -107 16v67q61 -59 107 -75v-8zM289 355q-41 44 -98 66v8q59 -3 98 -15v-59z" />
    <glyph glyph-name="uni021A" unicode="&#x21a;" horiz-adv-x="551" 
d="M224 -186q3 14 8.5 64.5t7.5 64.5h73q-7 -15 -39.5 -64.5t-39.5 -64.5h-10zM9 630h176v-10q-54 -15 -176 -66v76zM226 630h99v-630h-99v630zM542 554q-122 51 -176 66v10h176v-76z" />
    <glyph glyph-name="uni021B" unicode="&#x21b;" horiz-adv-x="302" 
d="M122 -186q3 14 8.5 64.5t7.5 64.5h73q-7 -15 -39.5 -64.5t-39.5 -64.5h-10zM179 -8q-109 0 -109 127v273h-65v29h65v111l86 29v-140h132v-29h-132v-262q0 -45 15 -69.5t56 -24.5q50 0 76 16v-10q-13 -19 -46.5 -34.5t-77.5 -15.5z" />
    <glyph glyph-name="uni0237" unicode="&#x237;" horiz-adv-x="193" 
d="M-9 -154q33 11 49 36t16 78v458l86 12v-414q0 -90 -39.5 -128t-111.5 -49v7zM-62 -140q-17 0 -28.5 11t-11.5 29q0 17 11.5 28t28.5 11q16 0 28 -11t12 -28t-12 -28.5t-28 -11.5z" />
    <glyph glyph-name="circumflex" unicode="&#x2c6;" horiz-adv-x="422" 
d="M97 510l112 126h5l111 -126l-4 -5l-107 73h-5l-107 -73z" />
    <glyph glyph-name="caron" unicode="&#x2c7;" horiz-adv-x="423" 
d="M97 630l5 6l107 -73h5l107 73l4 -6l-111 -125h-6z" />
    <glyph glyph-name="breve" unicode="&#x2d8;" horiz-adv-x="422" 
d="M211 503q-42 0 -70 29t-34 79h10q12 -61 94 -61t95 61h9q-5 -49 -33.5 -78.5t-70.5 -29.5z" />
    <glyph glyph-name="dotaccent" unicode="&#x2d9;" horiz-adv-x="422" 
d="M211 503q-21 0 -35 13.5t-14 34.5t14 34.5t35 13.5t35 -13.5t14 -34.5t-14 -34.5t-35 -13.5z" />
    <glyph glyph-name="ring" unicode="&#x2da;" horiz-adv-x="422" 
d="M222 502q21 2 35 17t14 40q0 52 -49 59v13q26 -2 45.5 -21.5t19.5 -50.5q0 -30 -20 -49.5t-45 -21.5v14zM201 488q-25 2 -44.5 21.5t-19.5 49.5q0 31 19 50.5t45 21.5v-13q-49 -7 -49 -59q0 -25 14.5 -40t34.5 -17v-14z" />
    <glyph glyph-name="ogonek" unicode="&#x2db;" horiz-adv-x="423" 
d="M206 -214q-38 0 -61.5 19.5t-23.5 56.5q0 66 110 118h11q-32 -26 -46.5 -47.5t-14.5 -49.5q0 -55 54 -55q38 0 68 32l6 -5q-40 -69 -103 -69z" />
    <glyph glyph-name="tilde" unicode="&#x2dc;" horiz-adv-x="422" 
d="M84 501q28 82 106 82h90q22 0 34.5 8.5t26.5 29.5h7q-14 -44 -38 -67t-66 -23h-93q-40 0 -61 -30h-6z" />
    <glyph glyph-name="hungarumlaut" unicode="&#x2dd;" horiz-adv-x="423" 
d="M76 496l67 137l46 -29l-108 -112zM187 496l67 137l46 -29l-108 -112z" />
    <glyph glyph-name="Wgrave" unicode="&#x1e80;" horiz-adv-x="820" 
d="M473 675q-10 1 -93 20t-94 21l21 54q11 -9 87 -46.5t81 -40.5zM15 630h103l180 -524l-41 -109h-26zM329 630h103l180 -524l-41 -109h-25zM721 476q7 49 18 154h81q-58 -99 -89 -159z" />
    <glyph glyph-name="wgrave" unicode="&#x1e81;" horiz-adv-x="590" 
d="M5 421h92l130 -333l-36 -89h-19zM231 421h92l127 -333l-36 -89h-19zM513 308q12 80 16 113h67q-29 -40 -77 -119zM188 545l22 58q32 -17 162 -90l-3 -8z" />
    <glyph glyph-name="Wacute" unicode="&#x1e82;" horiz-adv-x="820" 
d="M313 683q6 4 80.5 41t86.5 46l21 -54q-10 -1 -93 -20.5t-93 -20.5zM15 630h103l180 -524l-41 -109h-26zM329 630h103l180 -524l-41 -109h-25zM721 476q7 49 18 154h81q-58 -99 -89 -159z" />
    <glyph glyph-name="wacute" unicode="&#x1e83;" horiz-adv-x="590" 
d="M208 513q130 73 162 90l23 -58l-182 -40zM5 421h92l130 -333l-36 -89h-19zM231 421h92l127 -333l-36 -89h-19zM513 308q12 80 16 113h67q-29 -40 -77 -119z" />
    <glyph glyph-name="Wdieresis" unicode="&#x1e84;" horiz-adv-x="820" 
d="M298 688q-17 0 -29 12.5t-12 29.5t12 28.5t29 11.5t29 -11.5t12 -28.5t-12 -29.5t-29 -12.5zM478 688q-17 0 -28.5 12.5t-11.5 29.5t11.5 28.5t28.5 11.5t29.5 -11.5t12.5 -28.5t-12.5 -29.5t-29.5 -12.5zM15 630h103l180 -524l-41 -109h-26zM329 630h103l180 -524
l-41 -109h-25zM721 476q7 49 18 154h81q-58 -99 -89 -159z" />
    <glyph glyph-name="wdieresis" unicode="&#x1e85;" horiz-adv-x="590" 
d="M212 519q-17 0 -28 11t-11 28q0 16 11 27.5t28 11.5q16 0 27 -11.5t11 -27.5q0 -17 -11 -28t-27 -11zM364 519q-16 0 -27 11t-11 28q0 16 11 27.5t27 11.5q17 0 28 -11.5t11 -27.5q0 -17 -11 -28t-28 -11zM5 421h92l130 -333l-36 -89h-19zM231 421h92l127 -333l-36 -89
h-19zM513 308q12 80 16 113h67q-29 -40 -77 -119z" />
    <glyph glyph-name="Ygrave" unicode="&#x1ef2;" horiz-adv-x="528" 
d="M202 295l-202 335h108l193 -317v-313h-99v295zM399 491q42 101 57 139h82q-23 -23 -42 -44t-43.5 -48.5t-46.5 -51.5zM373 675q-10 1 -93 20t-94 21l21 54q11 -9 87 -46.5t81 -40.5z" />
    <glyph glyph-name="ygrave" unicode="&#x1ef3;" horiz-adv-x="386" 
d="M4 421h90l146 -325l-36 -90h-14zM79 -178q-17 0 -28.5 11t-11.5 29q0 17 11.5 28t28.5 11t28.5 -11t11.5 -28t-11.5 -28.5t-28.5 -11.5zM310 308q6 29 16 113h67q-38 -56 -76 -119zM113 545l22 58q32 -17 162 -90l-3 -8z" />
    <glyph glyph-name="uni2009" unicode="&#x2009;" horiz-adv-x="79" 
 />
    <glyph glyph-name="endash" unicode="&#x2013;" horiz-adv-x="467" 
d="M34 272h400v-23h-400v23z" />
    <glyph glyph-name="emdash" unicode="&#x2014;" horiz-adv-x="727" 
d="M34 272h660v-23h-660v23z" />
    <glyph glyph-name="quoteleft" unicode="&#x2018;" horiz-adv-x="151" 
d="M23 458q8 20 44.5 85.5t45.5 86.5h15q-7 -24 -18 -88.5t-16 -83.5h-71z" />
    <glyph glyph-name="quoteright" unicode="&#x2019;" horiz-adv-x="151" 
d="M24 458q4 18 15.5 84t17.5 88h72q-8 -20 -45 -85.5t-46 -86.5h-14z" />
    <glyph glyph-name="quotesinglbase" unicode="&#x201a;" horiz-adv-x="148" 
d="M21 -97q7 23 18 88.5t16 83.5h71q-8 -20 -44.5 -85.5t-45.5 -86.5h-15z" />
    <glyph glyph-name="quotedblleft" unicode="&#x201c;" horiz-adv-x="264" 
d="M23 458q8 20 44.5 85.5t45.5 86.5h15q-7 -24 -18 -88.5t-16 -83.5h-71zM136 458q8 20 44.5 85.5t45.5 86.5h15q-7 -24 -18 -88.5t-16 -83.5h-71z" />
    <glyph glyph-name="quotedblright" unicode="&#x201d;" horiz-adv-x="264" 
d="M24 458q4 18 15.5 84t17.5 88h72q-8 -20 -45 -85.5t-46 -86.5h-14zM136 458q7 23 18 88.5t16 83.5h71q-8 -20 -44.5 -85.5t-45.5 -86.5h-15z" />
    <glyph glyph-name="quotedblbase" unicode="&#x201e;" horiz-adv-x="261" 
d="M21 -97q7 25 18 89t16 83h71q-8 -20 -44.5 -85.5t-45.5 -86.5h-15zM134 -97q4 17 16 83.5t18 88.5h71q-8 -20 -45 -85.5t-46 -86.5h-14z" />
    <glyph glyph-name="dagger" unicode="&#x2020;" horiz-adv-x="442" 
d="M46 457h128v-17h-128v17zM212 630h21v-728h-21v728zM271 457h128v-17h-128v17z" />
    <glyph glyph-name="daggerdbl" unicode="&#x2021;" horiz-adv-x="442" 
d="M46 92h128v-17h-128v17zM46 457h128v-17h-128v17zM212 630h21v-728h-21v728zM271 92h128v-17h-128v17zM271 457h128v-17h-128v17z" />
    <glyph glyph-name="bullet" unicode="&#x2022;" horiz-adv-x="253" 
d="M127 198q-30 0 -50.5 21t-20.5 51t20.5 51t50.5 21t50 -21t20 -51t-20 -51t-50 -21z" />
    <glyph glyph-name="ellipsis" unicode="&#x2026;" horiz-adv-x="692" 
d="M115 -8q-21 0 -35 14t-14 35t14 35t35 14t35 -14t14 -35t-14 -35t-35 -14zM346 -8q-21 0 -35 14t-14 35t14 35t35 14t35 -14t14 -35t-14 -35t-35 -14zM577 -8q-21 0 -35 14t-14 35t14 35t35 14t35 -14t14 -35t-14 -35t-35 -14z" />
    <glyph glyph-name="perthousand" unicode="&#x2030;" horiz-adv-x="927" 
d="M150 318q-52 7 -90 42.5t-38 98.5t38.5 98.5t89.5 42.5v-9q-67 -12 -67 -132t67 -132v-9zM177 327q68 13 68 132t-68 132v9q51 -7 90 -42.5t39 -98.5t-39 -98.5t-90 -42.5v9zM434 -8q-51 7 -89.5 43t-38.5 99t38 98t90 42v-9q-32 -6 -49.5 -40.5t-17.5 -90.5
q0 -121 67 -133v-9zM461 1q68 13 68 133q0 118 -68 131v9q52 -7 90 -42t38 -98t-38.5 -99t-89.5 -43v9zM753 -8q-50 7 -89 43t-39 99t38 98t90 42v-9q-32 -6 -49.5 -40.5t-17.5 -90.5q0 -121 67 -133v-9zM781 1q67 12 67 133q0 119 -67 131v9q52 -7 90 -42t38 -98t-39 -99
t-89 -43v9zM103 3l390 598l16 -12l-391 -597z" />
    <glyph glyph-name="guilsinglleft" unicode="&#x2039;" horiz-adv-x="184" 
d="M31 218v9l113 119l7 -4l-67 -119l67 -120l-7 -4z" />
    <glyph glyph-name="guilsinglright" unicode="&#x203a;" horiz-adv-x="184" 
d="M33 103l67 120l-67 119l7 4l112 -119v-9l-112 -119z" />
    <glyph glyph-name="fraction" unicode="&#x2044;" horiz-adv-x="164" 
d="M-160 3l468 635l16 -12l-469 -634z" />
    <glyph glyph-name="Euro" unicode="&#x20ac;" horiz-adv-x="499" 
d="M17 343h77q20 87 83.5 145.5t161.5 70.5v-8q-72 -14 -113.5 -70t-51.5 -138h172v-14h-174q-1 -13 -1 -38q0 -14 2 -44h131v-14h-130q22 -180 174 -180q83 0 141 45v-9q-16 -37 -58 -67t-115 -30q-101 0 -161 66.5t-69 174.5h-69v14h68v16q0 33 6 66h-74v14zM415 451
q-17 0 -28.5 11.5t-11.5 28.5t11.5 28.5t28.5 11.5t28 -11.5t11 -28.5t-11 -28.5t-28 -11.5z" />
    <glyph glyph-name="trademark" unicode="&#x2122;" horiz-adv-x="540" 
d="M161 630h63v-37q-58 30 -63 32v5zM277 476q5 -41 13 -72h-39q17 57 19 72h7zM77 625q-20 -7 -63 -32v37h63v-5zM399 448l-19 -48h-5l-119 230h47zM97 630h44v-226h-44v226zM442 630h44l8 -226h-43z" />
    <glyph glyph-name="onethird" unicode="&#x2153;" horiz-adv-x="511" 
d="M207 -202q46 4 75.5 30t29.5 71q0 42 -18 59t-60 17h-13v10h13q39 0 54 20t15 58q0 67 -76 67q-27 0 -47 -13v7q25 25 78 25q48 0 77 -20t29 -61q0 -37 -26.5 -59t-70.5 -28v-1q109 -5 109 -82q0 -48 -50 -76.5t-119 -30.5v7zM174 -191q-12 0 -20 8.5t-8 19.5
q0 12 8 20.5t20 8.5t20.5 -8.5t8.5 -20.5q0 -11 -8.5 -19.5t-20.5 -8.5zM174 44q-12 0 -20.5 8t-8.5 20t8.5 20.5t20.5 8.5q11 0 19.5 -8.5t8.5 -20.5t-8.5 -20t-19.5 -8zM152 604l55 14v-32h-55v18zM22 219h474v-17h-474v17zM229 624l61 12v-356h-61v344z" />
    <glyph glyph-name="twothirds" unicode="&#x2154;" horiz-adv-x="511" 
d="M207 -202q46 4 75.5 30t29.5 71q0 42 -18 59t-60 17h-13v10h13q39 0 54 20t15 58q0 67 -76 67q-27 0 -47 -13v7q25 25 78 25q48 0 77 -20t29 -61q0 -37 -26.5 -59t-70.5 -28v-1q109 -5 109 -82q0 -48 -50 -76.5t-119 -30.5v7zM194 346q120 108 120 186q0 75 -81 75
q-40 0 -66 -15v7q12 13 40.5 23.5t59.5 10.5q55 0 82.5 -25.5t27.5 -70.5q0 -94 -173 -191h-10zM175 -192q-11 0 -19.5 8.5t-8.5 19.5q0 12 8.5 20.5t19.5 8.5q12 0 20.5 -8.5t8.5 -20.5q0 -11 -8.5 -19.5t-20.5 -8.5zM174 45q-11 0 -19.5 8t-8.5 20t8.5 20t19.5 8
q12 0 20.5 -8t8.5 -20t-8.5 -20t-20.5 -8zM167 522q-12 0 -20.5 8.5t-8.5 20.5t8.5 20.5t20.5 8.5t20.5 -8.5t8.5 -20.5t-8.5 -20.5t-20.5 -8.5zM22 219h474v-17h-474v17zM180 329h215l-3 -48h-262z" />
    <glyph glyph-name="oneeighth" unicode="&#x215b;" horiz-adv-x="511" 
d="M260 -209q-49 0 -84 21.5t-35 60.5q0 44 64 71l5 -5q-29 -20 -29 -62q0 -35 21 -55.5t58 -20.5q75 0 75 61q0 14 -6 26t-21.5 24t-27 19t-37.5 21q-21 11 -35 19.5t-28.5 21.5t-22 29t-7.5 36q0 39 32 65t82 26q46 0 75 -18.5t29 -49.5q0 -44 -61 -68l-5 5q31 27 31 62
q0 60 -69 60q-28 0 -46.5 -14t-18.5 -37q0 -26 19.5 -44t60.5 -40q26 -13 39.5 -21.5t30.5 -22t25 -30t8 -36.5q0 -49 -34.5 -76.5t-87.5 -27.5zM151 604l56 14v-32h-56v18zM22 219h474v-17h-474v17zM229 624l60 12v-356h-60v344z" />
    <glyph glyph-name="threeeighths" unicode="&#x215c;" horiz-adv-x="511" 
d="M263 -209q-49 0 -84 21.5t-35 60.5q0 44 64 71l5 -5q-29 -20 -29 -62q0 -35 21 -55.5t58 -20.5q75 0 75 61q0 14 -6 26t-21.5 24t-27 19t-37.5 21q-29 15 -46 26.5t-31.5 32.5t-14.5 47q0 39 31.5 65t81.5 26q46 0 75.5 -19t29.5 -49q0 -44 -62 -68l-5 5q31 27 31 62
q0 60 -69 60q-28 0 -46.5 -14t-18.5 -37q0 -25 20 -43.5t61 -40.5q26 -13 39 -21t30.5 -22t25 -30.5t7.5 -36.5q0 -49 -34.5 -76.5t-87.5 -27.5zM206 282q46 6 75 31.5t29 70.5q0 42 -17.5 59t-59.5 17h-14v10h14q39 0 54 20t15 58q0 66 -77 66q-28 0 -47 -12v7q25 25 79 25
q48 0 77 -20.5t29 -60.5q0 -37 -27 -59t-71 -28v-2q110 -6 110 -81q0 -48 -50 -76.5t-119 -30.5v6zM174 292q-12 0 -20.5 8.5t-8.5 20.5t8.5 20t20.5 8q11 0 19.5 -8t8.5 -20t-8.5 -20.5t-19.5 -8.5zM173 529q-12 0 -20.5 8.5t-8.5 20.5q0 11 8.5 19.5t20.5 8.5t20 -8.5
t8 -19.5q0 -12 -8 -20.5t-20 -8.5zM22 219h474v-17h-474v17z" />
    <glyph glyph-name="fiveeighths" unicode="&#x215d;" horiz-adv-x="511" 
d="M263 -209q-49 0 -84 21.5t-35 60.5q0 44 64 71l5 -5q-29 -20 -29 -62q0 -35 21 -55.5t58 -20.5q75 0 75 61q0 14 -6 26t-21.5 24t-27 19t-37.5 21q-29 15 -46 26.5t-31.5 32.5t-14.5 47q0 39 31.5 65t81.5 26q46 0 75.5 -19t29.5 -49q0 -44 -62 -68l-5 5q31 27 31 62
q0 60 -69 60q-28 0 -46.5 -14t-18.5 -37q0 -25 20 -43.5t61 -40.5q26 -13 39 -21t30.5 -22t25 -30.5t7.5 -36.5q0 -49 -34.5 -76.5t-87.5 -27.5zM200 281q114 8 114 99q0 71 -96 71q-26 0 -47 -4v47q30 6 62 6q137 0 137 -100q0 -117 -170 -125v6zM177 292q-13 0 -21 8.5
t-8 20.5t8 20.5t21 8.5q11 0 20 -8.5t9 -20.5t-9 -20.5t-20 -8.5zM22 219h474v-17h-474v17zM171 630h193v-46h-193v46z" />
    <glyph glyph-name="seveneighths" unicode="&#x215e;" horiz-adv-x="511" 
d="M263 -209q-49 0 -84 21.5t-35 60.5q0 44 64 71l5 -5q-29 -20 -29 -62q0 -35 21 -55.5t58 -20.5q75 0 75 61q0 14 -6 26t-21.5 24t-27 19t-37.5 21q-29 15 -46 26.5t-31.5 32.5t-14.5 47q0 39 31.5 65t81.5 26q46 0 75.5 -19t29.5 -49q0 -44 -62 -68l-5 5q31 27 31 62
q0 60 -69 60q-28 0 -46.5 -14t-18.5 -37q0 -25 20 -43.5t61 -40.5q26 -13 39 -21t30.5 -22t25 -30.5t7.5 -36.5q0 -49 -34.5 -76.5t-87.5 -27.5zM22 219h474v-17h-474v17zM385 557h9l-123 -275h-60zM184 630h237l-19 -50h-218v50z" />
    <glyph glyph-name="minus" unicode="&#x2212;" horiz-adv-x="429" 
d="M55 230h319v-24h-319v24z" />
    <glyph glyph-name="uni24C5" unicode="&#x24c5;" horiz-adv-x="702" 
d="M332 -6q-132 10 -218 97.5t-86 223.5t86 223.5t218 97.5v-13q-127 -10 -207.5 -94.5t-80.5 -213.5q0 -130 80.5 -214t207.5 -94v-13zM349 283q64 6 87.5 32t23.5 84t-23.5 84t-87.5 32v9q181 -8 181 -125q0 -116 -181 -124v8zM370 7q127 10 207.5 94t80.5 214
q0 129 -81 213.5t-207 94.5v13q132 -10 218 -97.5t86 -223.5t-86 -223.5t-218 -97.5v13zM241 524h69v-419h-69v419z" />
    <glyph glyph-name="c_t" unicode="&#xe220;" horiz-adv-x="695" 
d="M225 -8q-91 0 -145 61t-54 154q0 88 59 143t148 72v-8q-119 -40 -119 -181q0 -79 40.5 -128t108.5 -49q71 0 120 45v-9q-16 -37 -56.5 -68.5t-101.5 -31.5zM572 -8q-109 0 -109 127v274h-59v28h59v116q0 64 -22.5 97.5t-75.5 40.5v9q89 -5 136.5 -45t47.5 -113v-105h132
v-28h-132v-263q0 -44 15 -69t56 -25q51 0 76 17v-10q-14 -19 -47 -35t-77 -16zM320 322q-20 0 -32 13t-12 32q0 32 27 43q-54 16 -83.5 52.5t-29.5 86.5q0 57 41 94t97 41v-9q-52 -4 -89 -38t-37 -88q0 -103 118 -134q46 -12 46 -48q0 -20 -13 -32.5t-33 -12.5z" />
    <glyph glyph-name="Y.alt" unicode="&#xe498;" horiz-adv-x="561" 
d="M227 236q0 176 -133 315q-55 60 -103 74v5h48q78 0 139 -57q147 -147 147 -326v-247h-98v236zM427 491q25 48 68 139h82l-143 -144z" />
    <glyph glyph-name="g.alt" unicode="&#xe4c6;" horiz-adv-x="483" 
d="M199 9q-78 0 -124.5 51t-46.5 138q0 101 63.5 164t151.5 67v-8q-59 -9 -93 -58t-34 -137q0 -87 35 -127.5t91 -40.5q52 0 80 30v-8q-11 -26 -43 -48.5t-80 -22.5zM169 -170q175 19 175 163v407q-27 17 -61 21v8q108 -6 148 -16v-410q0 -90 -65 -133t-197 -48v8zM107 -155
q-18 0 -29.5 10.5t-11.5 27.5t11.5 27.5t29.5 10.5t29.5 -10.5t11.5 -27.5t-11.5 -27.5t-29.5 -10.5z" />
    <glyph glyph-name="k.alt" unicode="&#xe4ca;" horiz-adv-x="437" 
d="M378 0q-25 0 -37.5 7.5t-28.5 28.5q-13 14 -134 163l58 60q40 -58 144 -186q48 -56 61 -68v-5h-63zM52 676l87 12v-688h-87v676zM290 335q17 54 22 86h104q-74 -52 -120 -93z" />
    <glyph glyph-name="at.sc" unicode="&#xf60b;" horiz-adv-x="588" 
d="M206 109q-31 0 -48.5 21.5t-17.5 62.5q0 76 67 138.5t144 72.5v-9q-63 -12 -105 -68t-42 -125q0 -56 38 -56q35 0 67 41l7 -6q-15 -25 -46 -48.5t-64 -23.5zM283 -8q-114 0 -182 61.5t-68 173.5q0 123 85 202t218 79q112 0 171 -55.5t59 -142.5q0 -85 -55.5 -140.5
t-147.5 -55.5h-45l55 285l62 16l4 -1l-54 -281q73 2 117.5 53.5t44.5 123.5q0 78 -53 129.5t-158 51.5q-126 0 -205 -74.5t-79 -189.5q1 -106 63.5 -162.5t167.5 -56.5q135 0 223 69l9 -14q-81 -71 -232 -71z" />
    <glyph glyph-name="braceleft.sc" unicode="&#xf60c;" horiz-adv-x="254" 
d="M23 257q43 1 59 14.5t16 51.5v74q0 56 37.5 81t95.5 25v-11q-29 0 -49.5 -16t-20.5 -53v-84q0 -42 -24 -61t-72 -25v-3q48 -6 72 -25t24 -61v-84q0 -37 21 -53.5t49 -16.5v-10q-133 0 -133 105v75q0 38 -15.5 51t-59.5 15v11z" />
    <glyph glyph-name="braceright.sc" unicode="&#xf60d;" horiz-adv-x="254" 
d="M230 246q-43 -2 -58.5 -15t-15.5 -51v-75q0 -105 -133 -105v10q28 0 49 16.5t21 53.5v84q0 42 24 61t72 25v3q-48 6 -72 25t-24 61v84q0 37 -20.5 53t-49.5 16v11q58 0 95.5 -25t37.5 -81v-74q0 -38 16 -51.5t58 -14.5v-11z" />
    <glyph glyph-name="bracketleft.sc" unicode="&#xf60e;" horiz-adv-x="245" 
d="M67 503h161v-18h-101v-467h101v-18h-161v503z" />
    <glyph glyph-name="bracketright.sc" unicode="&#xf60f;" horiz-adv-x="245" 
d="M17 0v18h101v467h-101v18h161v-503h-161z" />
    <glyph glyph-name="plus.sc" unicode="&#xf615;" horiz-adv-x="429" 
d="M203 248h-148v24h148v147h23v-147h148v-24h-148v-148h-23v148z" />
    <glyph glyph-name="minus.sc" unicode="&#xf616;" horiz-adv-x="429" 
d="M55 272h319v-23h-319v23z" />
    <glyph glyph-name="equal.sc" unicode="&#xf617;" horiz-adv-x="429" 
d="M55 205h319v-23h-319v23zM55 355h319v-23h-319v23z" />
    <glyph glyph-name="parenleft.sc" unicode="&#xf618;" horiz-adv-x="226" 
d="M116 251q0 -139 72 -251h-15q-118 108 -118 251q0 140 118 252h15q-72 -112 -72 -252z" />
    <glyph glyph-name="parenright.sc" unicode="&#xf619;" horiz-adv-x="226" 
d="M111 251q0 139 -73 252h16q118 -112 118 -252q0 -143 -118 -251h-15q72 112 72 251z" />
    <glyph glyph-name="quotedblleft.sc" unicode="&#xf61c;" horiz-adv-x="259" 
d="M24 353q11 24 46.5 80t45.5 77h14q-7 -24 -17 -81t-15 -76h-74zM129 353q10 22 46 79t46 78h15q-7 -24 -17.5 -81.5t-15.5 -75.5h-74z" />
    <glyph glyph-name="quotedblright.sc" unicode="&#xf61d;" horiz-adv-x="259" 
d="M23 353q5 20 16 78t17 79h74q-12 -24 -47.5 -80.5t-45.5 -76.5h-14zM128 353q5 20 16 78t17 79h74q-11 -23 -46.5 -79.5t-45.5 -77.5h-15z" />
    <glyph glyph-name="quoteleft.sc" unicode="&#xf61f;" horiz-adv-x="153" 
d="M21 353q12 25 48 83.5t44 73.5h14q-7 -24 -17 -81t-15 -76h-74z" />
    <glyph glyph-name="quoteright.sc" unicode="&#xf620;" horiz-adv-x="153" 
d="M24 353q5 21 15.5 78.5t16.5 78.5h74q-10 -21 -45.5 -78t-46.5 -79h-14z" />
    <glyph glyph-name="AEacute.sc" unicode="&#xf624;" horiz-adv-x="672" 
d="M361 575q130 73 162 90l23 -58l-182 -40zM159 263h151v240h90v-503h-90v240h-163zM448 8q40 7 70.5 14.5t68.5 18t60 16.5v-57h-199v8zM641 447q-22 6 -60.5 17t-67 17.5t-65.5 12.5v9h193v-56zM-3 0q63 83 89 122l10 -2q-18 -77 -26 -120h-73zM569 227q-17 3 -52.5 10
t-68.5 12v10q26 4 45.5 7.5t39.5 7.5t36 7v-54z" />
    <glyph glyph-name="Oslashacute.sc" unicode="&#xf627;" horiz-adv-x="584" 
d="M212 575q130 73 162 90l23 -58l-182 -40zM103 -53l49 85q-56 35 -88 93t-32 126q0 102 68.5 176.5t172.5 80.5v-9q-53 -8 -87 -46.5t-47 -89t-13 -112.5q0 -120 45 -185l227 391q-35 35 -84 42v9q53 -3 98 -25l41 70l17 -10l-40 -70q58 -34 91.5 -93t33.5 -129
q0 -103 -68.5 -177t-172.5 -80v9q53 8 87.5 46.5t47 89t12.5 112.5q0 123 -50 190l-226 -393q34 -37 88 -45v-9q-58 3 -103 27l-49 -85z" />
    <glyph glyph-name="Ccircumflex.sc" unicode="&#xf628;" horiz-adv-x="495" 
d="M190 564l112 126h5l111 -126l-4 -5l-107 73h-5l-107 -73zM296 -6q-120 6 -192.5 74.5t-72.5 182.5q0 107 78 179.5t188 78.5v-10q-84 -12 -127 -76t-43 -172q0 -107 42.5 -171.5t126.5 -76.5v-9zM333 3q52 13 135 76v-66q-50 -15 -135 -19v9zM462 427q-55 54 -127 72v10
q92 -5 127 -17v-65z" />
    <glyph glyph-name="Cdotaccent.sc" unicode="&#xf629;" horiz-adv-x="495" 
d="M296 -6q-120 6 -192.5 74.5t-72.5 182.5q0 107 78 179.5t188 78.5v-10q-84 -12 -127 -76t-43 -172q0 -107 42.5 -171.5t126.5 -76.5v-9zM333 3q52 13 135 76v-66q-50 -15 -135 -19v9zM462 427q-55 54 -127 72v10q92 -5 127 -17v-65zM304 559q-21 0 -35 13.5t-14 34.5
t14 34.5t35 13.5t35 -13.5t14 -34.5t-14 -34.5t-35 -13.5z" />
    <glyph glyph-name="Ebreve.sc" unicode="&#xf62a;" horiz-adv-x="430" 
d="M58 503h90v-503h-90v503zM197 8q58 11 207 50v-58h-207v8zM320 227q-16 3 -37.5 7t-41 7.5t-44.5 7.5v10q26 4 46 7.5t40.5 7.5t36.5 7v-54zM398 447q-19 5 -50 13.5t-49 13t-46 10t-57 10.5v9h202v-56zM240 558q-42 0 -70 29t-34 79h10q12 -61 94 -61t95 61h9
q-5 -49 -33.5 -78.5t-70.5 -29.5z" />
    <glyph glyph-name="Eng.sc" unicode="&#xf62b;" horiz-adv-x="525" 
d="M44 0q9 30 19.5 82.5t12.5 63.5h9q3 -14 12.5 -65.5t18.5 -80.5h-72zM235 -136q-17 0 -29 12t-12 30q0 17 12 29.5t29 12.5q18 0 30.5 -12.5t12.5 -29.5q0 -18 -12.5 -30t-30.5 -12zM447 358q-15 79 -31 145h72q-6 -22 -32 -145h-9zM291 -149q77 17 77 108v93l-260 337
q-76 93 -96 114h114l331 -426v-95q0 -36 -15 -63t-41 -42.5t-52.5 -23.5t-57.5 -11v9z" />
    <glyph glyph-name="Gcircumflex.sc" unicode="&#xf62c;" horiz-adv-x="534" 
d="M196 564l112 126h5l111 -126l-4 -5l-107 73h-5l-107 -73zM281 -6q-121 6 -185.5 78t-64.5 179q0 114 71 181t192 77v-10q-83 -12 -125.5 -76t-42.5 -172q0 -227 155 -247v-10zM321 4q56 6 86 20v197h85v-198q-66 -25 -171 -29v10zM472 428q-45 31 -74 46.5t-65 24.5v10
q83 -1 139 -16v-65z" />
    <glyph glyph-name="Gdotaccent.sc" unicode="&#xf62d;" horiz-adv-x="534" 
d="M281 -6q-121 6 -185.5 78t-64.5 179q0 114 71 181t192 77v-10q-83 -12 -125.5 -76t-42.5 -172q0 -227 155 -247v-10zM321 4q56 6 86 20v197h85v-198q-66 -25 -171 -29v10zM472 428q-45 31 -74 46.5t-65 24.5v10q83 -1 139 -16v-65zM310 559q-21 0 -35 13.5t-14 34.5
t14 34.5t35 13.5t35 -13.5t14 -34.5t-14 -34.5t-35 -13.5z" />
    <glyph glyph-name="Hbar.sc" unicode="&#xf62e;" horiz-adv-x="599" 
d="M-19 373h74v-22h-74v22zM544 373h74v-22h-74v22zM206 373h187v-22h-187v22zM86 503h90v-503h-90v503zM206 273h187v-22h-187v22zM423 503h91v-503h-91v503z" />
    <glyph glyph-name="Hcircumflex.sc" unicode="&#xf62f;" horiz-adv-x="546" 
d="M159 564l112 126h5l111 -126l-4 -5l-107 73h-5l-107 -73zM58 503h91v-503h-91v503zM179 273h188v-22h-188v22zM398 503h90v-503h-90v503z" />
    <glyph glyph-name="Ibreve.sc" unicode="&#xf630;" horiz-adv-x="206" 
d="M58 503h90v-503h-90v503zM104 558q-42 0 -70 29t-34 79h10q12 -61 94 -61t95 61h9q-5 -49 -33.5 -78.5t-70.5 -29.5z" />
    <glyph glyph-name="IJ.sc" unicode="&#xf631;" horiz-adv-x="497" 
d="M287 3q38 8 52.5 33t14.5 75v392h88v-369q0 -69 -46 -103t-109 -37v9zM58 503h88v-503h-88v503zM239 14q-18 0 -30.5 12.5t-12.5 30.5q0 19 12.5 32t30.5 13q19 0 32 -13t13 -32q0 -18 -13 -30.5t-32 -12.5z" />
    <glyph glyph-name="Itilde.sc" unicode="&#xf632;" horiz-adv-x="206" 
d="M58 503h90v-503h-90v503zM-23 555q28 82 106 82h90q22 0 34.5 8.5t26.5 29.5h7q-14 -44 -38 -67t-66 -23h-93q-40 0 -61 -30h-6z" />
    <glyph glyph-name="Jcircumflex.sc" unicode="&#xf633;" horiz-adv-x="326" 
d="M112 564l112 126h5l111 -126l-4 -5l-107 73h-5l-107 -73zM107 3q39 8 56.5 34t17.5 74v392h91v-369q0 -68 -50 -102.5t-115 -37.5v9zM52 14q-18 0 -31 12.5t-13 30.5q0 19 13 32t31 13t31 -13t13 -32q0 -18 -13 -30.5t-31 -12.5z" />
    <glyph glyph-name="Ldot.sc" unicode="&#xf634;" horiz-adv-x="416" 
d="M58 503h90v-503h-90v503zM197 9q38 8 68 17.5t66 22t64 20.5v-69h-198v9zM311 235q-20 0 -33.5 12.5t-13.5 33.5q0 20 13.5 33t33.5 13q19 0 33 -13t14 -33t-14 -33t-33 -13z" />
    <glyph glyph-name="Obreve.sc" unicode="&#xf635;" horiz-adv-x="584" 
d="M272 -6q-104 6 -172.5 81t-68.5 176q0 102 68.5 176.5t172.5 80.5v-9q-53 -8 -87 -46.5t-47 -89t-13 -112.5t13 -112.5t47 -89t87 -46.5v-9zM313 3q53 8 87 46.5t46.5 88.5t12.5 113q0 46 -7.5 86t-23.5 75t-45.5 58t-69.5 29v9q104 -6 172.5 -79.5t68.5 -177.5
q0 -103 -68.5 -177t-172.5 -80v9zM292 558q-42 0 -70 29t-34 79h10q12 -61 94 -61t95 61h9q-5 -49 -33.5 -78.5t-70.5 -29.5z" />
    <glyph glyph-name="Scircumflex.sc" unicode="&#xf636;" horiz-adv-x="392" 
d="M95 564l112 126h5l111 -126l-4 -5l-107 73h-5l-107 -73zM199 3q42 10 66 33t24 72q0 34 -20.5 52t-83.5 51l-34 17q-58 31 -85 60.5t-27 83.5q0 60 43.5 96.5t104.5 40.5v-10q-36 -4 -58.5 -27.5t-22.5 -55.5q0 -37 19.5 -57.5t76.5 -50.5l29 -15q67 -32 97.5 -63
t30.5 -86q0 -66 -49.5 -107t-110.5 -43v9zM157 -6q-74 2 -123 19v66q67 -62 123 -76v-9zM335 438q-71 55 -106 61v10q66 -2 106 -13v-58z" />
    <glyph glyph-name="Tbar.sc" unicode="&#xf637;" horiz-adv-x="465" 
d="M13 503h137v-10q-47 -19 -137 -64v74zM69 303h86v-21h-86v21zM186 503h90v-503h-90v503zM450 429q-94 49 -137 64v10h137v-74zM306 303h87v-21h-87v21z" />
    <glyph glyph-name="Ubreve.sc" unicode="&#xf638;" horiz-adv-x="516" 
d="M257 -6q-93 0 -147 47t-55 140v322h90v-317q0 -72 40 -107.5t111 -35.5q76 0 124 48l7 -6q-50 -91 -170 -91zM447 355q-19 83 -34 148h77q-14 -52 -34 -148h-9zM280 558q-42 0 -70 29t-34 79h10q12 -61 94 -61t95 61h9q-5 -49 -33.5 -78.5t-70.5 -29.5z" />
    <glyph glyph-name="Utilde.sc" unicode="&#xf639;" horiz-adv-x="516" 
d="M257 -6q-93 0 -147 47t-55 140v322h90v-317q0 -72 40 -107.5t111 -35.5q76 0 124 48l7 -6q-50 -91 -170 -91zM447 355q-19 83 -34 148h77q-14 -52 -34 -148h-9zM153 555q28 82 106 82h90q22 0 34.5 8.5t26.5 29.5h7q-14 -44 -38 -67t-66 -23h-93q-40 0 -61 -30h-6z" />
    <glyph glyph-name="Wacute.sc" unicode="&#xf63a;" horiz-adv-x="705" 
d="M18 503h98l151 -417l-38 -88h-29zM278 503h98l151 -417l-38 -88h-29zM610 370l17 133h77q-59 -94 -84 -139zM262 575q130 73 162 90l23 -58l-182 -40z" />
    <glyph glyph-name="Wcircumflex.sc" unicode="&#xf63b;" horiz-adv-x="705" 
d="M228 564l112 126h5l111 -126l-4 -5l-107 73h-5l-107 -73zM18 503h98l151 -417l-38 -88h-29zM278 503h98l151 -417l-38 -88h-29zM610 370l17 133h77q-59 -94 -84 -139z" />
    <glyph glyph-name="Wdieresis.sc" unicode="&#xf63c;" horiz-adv-x="705" 
d="M266 576q-17 0 -28 11t-11 28q0 16 11 27.5t28 11.5q16 0 27 -11.5t11 -27.5q0 -17 -11 -28t-27 -11zM418 576q-16 0 -27 11t-11 28q0 16 11 27.5t27 11.5q17 0 28 -11.5t11 -27.5q0 -17 -11 -28t-28 -11zM18 503h98l151 -417l-38 -88h-29zM278 503h98l151 -417l-38 -88
h-29zM610 370l17 133h77q-59 -94 -84 -139z" />
    <glyph glyph-name="Wgrave.sc" unicode="&#xf63d;" horiz-adv-x="705" 
d="M18 503h98l151 -417l-38 -88h-29zM278 503h98l151 -417l-38 -88h-29zM610 370l17 133h77q-59 -94 -84 -139zM243 607l22 58q32 -17 162 -90l-3 -8z" />
    <glyph glyph-name="Ycircumflex.sc" unicode="&#xf63e;" horiz-adv-x="465" 
d="M135 564l112 126h5l111 -126l-4 -5l-107 73h-5l-107 -73zM177 227l-173 276h99l164 -261v-242h-90v227zM338 383q43 95 53 120h76q-22 -22 -58.5 -60.5t-62.5 -64.5z" />
    <glyph glyph-name="Ygrave.sc" unicode="&#xf63f;" horiz-adv-x="465" 
d="M177 227l-173 276h99l164 -261v-242h-90v227zM338 383q43 95 53 120h76q-22 -22 -58.5 -60.5t-62.5 -64.5zM149 607l22 58q32 -17 162 -90l-3 -8z" />
    <glyph glyph-name="Abreve.sc" unicode="&#xf640;" horiz-adv-x="462" 
d="M107 213h164l-84 209l35 86h30l200 -508h-95l-77 191h-181zM4 0q38 59 72 122l11 -2q-9 -94 -11 -120h-72zM238 558q-42 0 -70 29t-34 79h10q12 -61 94 -61t95 61h9q-5 -49 -33.5 -78.5t-70.5 -29.5z" />
    <glyph glyph-name="Amacron.sc" unicode="&#xf641;" horiz-adv-x="462" 
d="M107 213h164l-84 209l35 86h30l200 -508h-95l-77 191h-181zM4 0q38 59 72 122l11 -2q-9 -94 -11 -120h-72zM134 623h206v-30h-206v30z" />
    <glyph glyph-name="Aogonek.sc" unicode="&#xf642;" horiz-adv-x="462" 
d="M107 213h164l-84 209l35 86h30l200 -508h-95l-77 191h-181zM4 0q38 59 72 122l11 -2q-9 -94 -11 -120h-72zM338 -214q-38 0 -61.5 19.5t-23.5 56.5q0 66 110 118h11q-32 -26 -46.5 -47.5t-14.5 -49.5q0 -55 54 -55q38 0 68 32l6 -5q-40 -69 -103 -69z" />
    <glyph glyph-name="Cacute.sc" unicode="&#xf643;" horiz-adv-x="495" 
d="M224 575q130 73 162 90l23 -58l-182 -40zM296 -6q-120 6 -192.5 74.5t-72.5 182.5q0 107 78 179.5t188 78.5v-10q-84 -12 -127 -76t-43 -172q0 -107 42.5 -171.5t126.5 -76.5v-9zM333 3q52 13 135 76v-66q-50 -15 -135 -19v9zM462 427q-55 54 -127 72v10q92 -5 127 -17
v-65z" />
    <glyph glyph-name="Ccaron.sc" unicode="&#xf644;" horiz-adv-x="495" 
d="M190 684l5 6l107 -73h5l107 73l4 -6l-111 -125h-6zM296 -6q-120 6 -192.5 74.5t-72.5 182.5q0 107 78 179.5t188 78.5v-10q-84 -12 -127 -76t-43 -172q0 -107 42.5 -171.5t126.5 -76.5v-9zM333 3q52 13 135 76v-66q-50 -15 -135 -19v9zM462 427q-55 54 -127 72v10
q92 -5 127 -17v-65z" />
    <glyph glyph-name="Dcaron.sc" unicode="&#xf645;" horiz-adv-x="538" 
d="M198 9q213 13 213 242q0 234 -213 242v10q62 -1 115 -15t98 -42.5t71 -78t26 -116.5q0 -86 -46.5 -144t-113.5 -81.5t-150 -25.5v9zM58 503h91v-503h-91v503zM124 684l5 6l107 -73h5l107 73l4 -6l-111 -125h-6z" />
    <glyph glyph-name="Dcroat.sc" unicode="&#xf646;" horiz-adv-x="560" 
d="M220 9q217 14 217 242q0 234 -218 242v10q61 -1 114.5 -15t99 -42.5t71.5 -78t26 -116.5q0 -86 -46.5 -144t-113.5 -81.5t-150 -25.5v9zM168 0h-88v245h-66v22h66v236h88v-236h130v-22h-130v-245z" />
    <glyph glyph-name="Ecaron.sc" unicode="&#xf647;" horiz-adv-x="430" 
d="M126 684l5 6l107 -73h5l107 73l4 -6l-111 -125h-6zM58 503h90v-503h-90v503zM197 8q58 11 207 50v-58h-207v8zM320 227q-16 3 -37.5 7t-41 7.5t-44.5 7.5v10q26 4 46 7.5t40.5 7.5t36.5 7v-54zM398 447q-19 5 -50 13.5t-49 13t-46 10t-57 10.5v9h202v-56z" />
    <glyph glyph-name="Edotaccent.sc" unicode="&#xf648;" horiz-adv-x="430" 
d="M240 559q-21 0 -35 13.5t-14 34.5t14 34.5t35 13.5t35 -13.5t14 -34.5t-14 -34.5t-35 -13.5zM58 503h90v-503h-90v503zM197 8q58 11 207 50v-58h-207v8zM320 227q-16 3 -37.5 7t-41 7.5t-44.5 7.5v10q26 4 46 7.5t40.5 7.5t36.5 7v-54zM398 447q-19 5 -50 13.5t-49 13
t-46 10t-57 10.5v9h202v-56z" />
    <glyph glyph-name="Emacron.sc" unicode="&#xf649;" horiz-adv-x="430" 
d="M131 623h206v-30h-206v30zM58 503h90v-503h-90v503zM197 8q58 11 207 50v-58h-207v8zM320 227q-16 3 -37.5 7t-41 7.5t-44.5 7.5v10q26 4 46 7.5t40.5 7.5t36.5 7v-54zM398 447q-19 5 -50 13.5t-49 13t-46 10t-57 10.5v9h202v-56z" />
    <glyph glyph-name="Eogonek.sc" unicode="&#xf64a;" horiz-adv-x="430" 
d="M282 -214q-38 0 -61.5 19.5t-23.5 56.5q0 66 110 118h11q-32 -26 -46.5 -47.5t-14.5 -49.5q0 -55 54 -55q38 0 68 32l6 -5q-40 -69 -103 -69zM58 503h90v-503h-90v503zM197 8q58 11 207 50v-58h-207v8zM320 227q-16 3 -37.5 7t-41 7.5t-44.5 7.5v10q26 4 46 7.5t40.5 7.5
t36.5 7v-54zM398 447q-19 5 -50 13.5t-49 13t-46 10t-57 10.5v9h202v-56z" />
    <glyph glyph-name="Gbreve.sc" unicode="&#xf64b;" horiz-adv-x="534" 
d="M281 -6q-121 6 -185.5 78t-64.5 179q0 114 71 181t192 77v-10q-83 -12 -125.5 -76t-42.5 -172q0 -227 155 -247v-10zM321 4q56 6 86 20v197h85v-198q-66 -25 -171 -29v10zM472 428q-45 31 -74 46.5t-65 24.5v10q83 -1 139 -16v-65zM310 558q-42 0 -70 29t-34 79h10
q12 -61 94 -61t95 61h9q-5 -49 -33.5 -78.5t-70.5 -29.5z" />
    <glyph glyph-name="Gcommaaccent.sc" unicode="&#xf64c;" horiz-adv-x="534" 
d="M250 -186q3 14 8.5 64.5t7.5 64.5h73q-7 -15 -39.5 -64.5t-39.5 -64.5h-10zM281 -6q-121 6 -185.5 78t-64.5 179q0 114 71 181t192 77v-10q-83 -12 -125.5 -76t-42.5 -172q0 -227 155 -247v-10zM321 4q56 6 86 20v197h85v-198q-66 -25 -171 -29v10zM472 428
q-45 31 -74 46.5t-65 24.5v10q83 -1 139 -16v-65z" />
    <glyph glyph-name="Imacron.sc" unicode="&#xf64d;" horiz-adv-x="206" 
d="M15 628h176v-30h-176v30zM58 503h90v-503h-90v503z" />
    <glyph glyph-name="Iogonek.sc" unicode="&#xf64e;" horiz-adv-x="206" 
d="M58 503h90v-503h-90v503zM91 -214q-38 0 -61.5 19.5t-23.5 56.5q0 66 110 118h11q-32 -26 -46.5 -47.5t-14.5 -49.5q0 -55 54 -55q38 0 68 32l6 -5q-40 -69 -103 -69z" />
    <glyph glyph-name="Kcommaaccent.sc" unicode="&#xf64f;" horiz-adv-x="502" 
d="M213 -186q3 14 8.5 64.5t7.5 64.5h73q-7 -15 -39.5 -64.5t-39.5 -64.5h-10zM389 0q-79 84 -192 238l58 64q12 -16 61 -79t75 -95q44 -58 105 -120v-8h-107zM58 503h90v-503h-90v503zM348 390q31 62 58 113h87q-20 -17 -62.5 -54t-76.5 -65z" />
    <glyph glyph-name="Lacute.sc" unicode="&#xf650;" horiz-adv-x="416" 
d="M58 503h90v-503h-90v503zM197 9q38 8 68 17.5t66 22t64 20.5v-69h-198v9zM28 575q130 73 162 90l23 -58l-182 -40z" />
    <glyph glyph-name="Lcaron.sc" unicode="&#xf651;" horiz-adv-x="416" 
d="M58 503h90v-503h-90v503zM197 9q38 8 68 17.5t66 22t64 20.5v-69h-198v9zM203 355q6 29 13.5 83t9.5 66h53q-7 -23 -32 -75.5t-33 -73.5h-11z" />
    <glyph glyph-name="Lcommaaccent.sc" unicode="&#xf652;" horiz-adv-x="416" 
d="M58 503h90v-503h-90v503zM197 9q38 8 68 17.5t66 22t64 20.5v-69h-198v9zM181 -186q3 14 8.5 64.5t7.5 64.5h73q-7 -15 -39.5 -64.5t-39.5 -64.5h-10z" />
    <glyph glyph-name="Nacute.sc" unicode="&#xf653;" horiz-adv-x="526" 
d="M209 575q130 73 162 90l23 -58l-182 -40zM108 389q-76 93 -96 114h117l328 -424v-81h-47zM43 0q9 30 20.5 85.5t12.5 60.5h9q1 -5 12.5 -60.5t20.5 -85.5h-75zM447 358q-9 49 -33 145h75q-10 -38 -33 -145h-9z" />
    <glyph glyph-name="Ncaron.sc" unicode="&#xf654;" horiz-adv-x="526" 
d="M175 684l5 6l107 -73h5l107 73l4 -6l-111 -125h-6zM108 389q-76 93 -96 114h117l328 -424v-81h-47zM43 0q9 30 20.5 85.5t12.5 60.5h9q1 -5 12.5 -60.5t20.5 -85.5h-75zM447 358q-9 49 -33 145h75q-10 -38 -33 -145h-9z" />
    <glyph glyph-name="Ncommaaccent.sc" unicode="&#xf655;" horiz-adv-x="526" 
d="M201 -186q3 14 8.5 64.5t7.5 64.5h73q-7 -15 -39.5 -64.5t-39.5 -64.5h-10zM108 389q-76 93 -96 114h117l328 -424v-81h-47zM43 0q9 30 20.5 85.5t12.5 60.5h9q1 -5 12.5 -60.5t20.5 -85.5h-75zM447 358q-9 49 -33 145h75q-10 -38 -33 -145h-9z" />
    <glyph glyph-name="Ohungarumlaut.sc" unicode="&#xf656;" horiz-adv-x="584" 
d="M272 -6q-104 6 -172.5 81t-68.5 176q0 102 68.5 176.5t172.5 80.5v-9q-53 -8 -87 -46.5t-47 -89t-13 -112.5t13 -112.5t47 -89t87 -46.5v-9zM313 3q53 8 87 46.5t46.5 88.5t12.5 113q0 46 -7.5 86t-23.5 75t-45.5 58t-69.5 29v9q104 -6 172.5 -79.5t68.5 -177.5
q0 -103 -68.5 -177t-172.5 -80v9zM229 550l67 137l46 -29l-108 -112zM340 550l67 137l46 -29l-108 -112z" />
    <glyph glyph-name="Omacron.sc" unicode="&#xf657;" horiz-adv-x="584" 
d="M272 -6q-104 6 -172.5 81t-68.5 176q0 102 68.5 176.5t172.5 80.5v-9q-53 -8 -87 -46.5t-47 -89t-13 -112.5t13 -112.5t47 -89t87 -46.5v-9zM313 3q53 8 87 46.5t46.5 88.5t12.5 113q0 46 -7.5 86t-23.5 75t-45.5 58t-69.5 29v9q104 -6 172.5 -79.5t68.5 -177.5
q0 -103 -68.5 -177t-172.5 -80v9zM189 623h206v-30h-206v30z" />
    <glyph glyph-name="Racute.sc" unicode="&#xf658;" horiz-adv-x="457" 
d="M150 575q130 73 162 90l23 -58l-182 -40zM354 0q-19 28 -51.5 75.5t-59 87t-51.5 77.5q124 26 124 130q0 60 -29 88t-97 35v10q47 -2 82 -8.5t67.5 -20.5t50 -41t17.5 -66q0 -48 -35.5 -80t-90.5 -48q153 -216 167 -234v-5h-94zM58 503h90v-503h-90v503z" />
    <glyph glyph-name="Rcaron.sc" unicode="&#xf659;" horiz-adv-x="457" 
d="M117 684l5 6l107 -73h5l107 73l4 -6l-111 -125h-6zM354 0q-19 28 -51.5 75.5t-59 87t-51.5 77.5q124 26 124 130q0 60 -29 88t-97 35v10q47 -2 82 -8.5t67.5 -20.5t50 -41t17.5 -66q0 -48 -35.5 -80t-90.5 -48q153 -216 167 -234v-5h-94zM58 503h90v-503h-90v503z" />
    <glyph glyph-name="Rcommaaccent.sc" unicode="&#xf65a;" horiz-adv-x="457" 
d="M186 -186q3 14 8.5 64.5t7.5 64.5h73q-7 -15 -39.5 -64.5t-39.5 -64.5h-10zM354 0q-19 28 -51.5 75.5t-59 87t-51.5 77.5q124 26 124 130q0 60 -29 88t-97 35v10q47 -2 82 -8.5t67.5 -20.5t50 -41t17.5 -66q0 -48 -35.5 -80t-90.5 -48q153 -216 167 -234v-5h-94zM58 503
h90v-503h-90v503z" />
    <glyph glyph-name="Sacute.sc" unicode="&#xf65b;" horiz-adv-x="392" 
d="M128 575q130 73 162 90l23 -58l-182 -40zM199 3q42 10 66 33t24 72q0 34 -20.5 52t-83.5 51l-34 17q-58 31 -85 60.5t-27 83.5q0 60 43.5 96.5t104.5 40.5v-10q-36 -4 -58.5 -27.5t-22.5 -55.5q0 -37 19.5 -57.5t76.5 -50.5l29 -15q67 -32 97.5 -63t30.5 -86
q0 -66 -49.5 -107t-110.5 -43v9zM157 -6q-74 2 -123 19v66q67 -62 123 -76v-9zM335 438q-71 55 -106 61v10q66 -2 106 -13v-58z" />
    <glyph glyph-name="Scedilla.sc" unicode="&#xf65c;" horiz-adv-x="392" 
d="M199 3q42 10 66 33t24 72q0 34 -20.5 52t-83.5 51l-34 17q-58 31 -85 60.5t-27 83.5q0 60 43.5 96.5t104.5 40.5v-10q-36 -4 -58.5 -27.5t-22.5 -55.5q0 -37 19.5 -57.5t76.5 -50.5l29 -15q67 -32 97.5 -63t30.5 -86q0 -66 -49.5 -107t-110.5 -43v9zM157 -6
q-74 2 -123 19v66q67 -62 123 -76v-9zM335 438q-71 55 -106 61v10q66 -2 106 -13v-58zM93 -212q-11 0 -17.5 7t-6.5 17q0 25 24 25q25 0 25 -25q0 -10 -7 -17t-18 -7zM139 -201q21 13 21 33q0 10 -18 36q-15 28 -15 40q0 18 21 37t53 31l4 -6q-29 -23 -29 -39q0 -11 14 -33
q20 -32 20 -47q0 -17 -19.5 -33t-48.5 -25z" />
    <glyph glyph-name="Scommaaccent.sc" unicode="&#xf65d;" horiz-adv-x="392" 
d="M127 -186q3 14 8.5 64.5t7.5 64.5h73q-7 -15 -39.5 -64.5t-39.5 -64.5h-10zM199 3q42 10 66 33t24 72q0 34 -20.5 52t-83.5 51l-34 17q-58 31 -85 60.5t-27 83.5q0 60 43.5 96.5t104.5 40.5v-10q-36 -4 -58.5 -27.5t-22.5 -55.5q0 -37 19.5 -57.5t76.5 -50.5l29 -15
q67 -32 97.5 -63t30.5 -86q0 -66 -49.5 -107t-110.5 -43v9zM157 -6q-74 2 -123 19v66q67 -62 123 -76v-9zM335 438q-71 55 -106 61v10q66 -2 106 -13v-58z" />
    <glyph glyph-name="Tcaron.sc" unicode="&#xf65e;" horiz-adv-x="465" 
d="M14 503h137v-10q-24 -9 -137 -64v74zM187 503h91v-503h-91v503zM451 429q-78 44 -137 64v10h137v-74zM118 684l5 6l107 -73h5l107 73l4 -6l-111 -125h-6z" />
    <glyph glyph-name="Tcommaaccent.sc" unicode="&#xf65f;" horiz-adv-x="465" 
d="M14 503h137v-10q-24 -9 -137 -64v74zM187 503h91v-503h-91v503zM451 429q-78 44 -137 64v10h137v-74zM181 -186q3 14 8.5 64.5t7.5 64.5h73q-7 -15 -39.5 -64.5t-39.5 -64.5h-10z" />
    <glyph glyph-name="Uhungarumlaut.sc" unicode="&#xf660;" horiz-adv-x="516" 
d="M217 550l67 137l46 -29l-108 -112zM328 550l67 137l46 -29l-108 -112zM257 -6q-93 0 -147 47t-55 140v322h90v-317q0 -72 40 -107.5t111 -35.5q76 0 124 48l7 -6q-50 -91 -170 -91zM447 355q-19 83 -34 148h77q-14 -52 -34 -148h-9z" />
    <glyph glyph-name="Umacron.sc" unicode="&#xf661;" horiz-adv-x="516" 
d="M178 623h206v-30h-206v30zM257 -6q-93 0 -147 47t-55 140v322h90v-317q0 -72 40 -107.5t111 -35.5q76 0 124 48l7 -6q-50 -91 -170 -91zM447 355q-19 83 -34 148h77q-14 -52 -34 -148h-9z" />
    <glyph glyph-name="Uogonek.sc" unicode="&#xf662;" horiz-adv-x="516" 
d="M274 -214q-38 0 -61.5 19.5t-23.5 56.5q0 66 110 118h11q-32 -26 -46.5 -47.5t-14.5 -49.5q0 -55 54 -55q38 0 68 32l6 -5q-40 -69 -103 -69zM257 -6q-93 0 -147 47t-55 140v322h90v-317q0 -72 40 -107.5t111 -35.5q76 0 124 48l7 -6q-50 -91 -170 -91zM447 355
q-19 83 -34 148h77q-14 -52 -34 -148h-9z" />
    <glyph glyph-name="Uring.sc" unicode="&#xf663;" horiz-adv-x="516" 
d="M295 532q21 2 35 17t14 40q0 52 -49 59v13q26 -2 45.5 -21.5t19.5 -50.5q0 -30 -20 -49.5t-45 -21.5v14zM274 518q-25 2 -44.5 21.5t-19.5 49.5q0 31 19 50.5t45 21.5v-13q-49 -7 -49 -59q0 -25 14.5 -40t34.5 -17v-14zM257 -6q-93 0 -147 47t-55 140v322h90v-317
q0 -72 40 -107.5t111 -35.5q76 0 124 48l7 -6q-50 -91 -170 -91zM447 355q-19 83 -34 148h77q-14 -52 -34 -148h-9z" />
    <glyph glyph-name="Zacute.sc" unicode="&#xf664;" horiz-adv-x="472" 
d="M160 575q130 73 162 90l23 -58l-182 -40zM41 503h206v-11q-59 -12 -211 -56zM345 503h98l-323 -503h-96zM213 9q52 9 129 31.5t98 27.5l-6 -68h-221v9z" />
    <glyph glyph-name="Zdotaccent.sc" unicode="&#xf665;" horiz-adv-x="472" 
d="M41 503h206v-11q-59 -12 -211 -56zM345 503h98l-323 -503h-96zM213 9q52 9 129 31.5t98 27.5l-6 -68h-221v9zM240 559q-21 0 -35 13.5t-14 34.5t14 34.5t35 13.5t35 -13.5t14 -34.5t-14 -34.5t-35 -13.5z" />
    <glyph glyph-name="Idotaccent.sc" unicode="&#xf666;" horiz-adv-x="206" 
d="M58 503h90v-503h-90v503zM104 559q-21 0 -35 13.5t-14 34.5t14 34.5t35 13.5t35 -13.5t14 -34.5t-14 -34.5t-35 -13.5z" />
    <glyph glyph-name="germandbls.sc" unicode="&#xf667;" horiz-adv-x="767" 
d="M574 3q42 10 66 33t24 72q0 34 -20.5 52t-83.5 51l-34 17q-58 31 -85 60.5t-27 83.5q0 60 43.5 96.5t104.5 40.5v-10q-36 -4 -58.5 -27.5t-22.5 -55.5q0 -37 19.5 -57.5t76.5 -50.5l29 -15q67 -32 97.5 -63t30.5 -86q0 -66 -49.5 -107t-110.5 -43v9zM532 -6
q-74 2 -123 19v66q67 -62 123 -76v-9zM710 438q-71 55 -106 61v10q66 -2 106 -13v-58zM199 3q42 10 66 33t24 72q0 34 -20.5 52t-83.5 51l-34 17q-58 31 -85 60.5t-27 83.5q0 60 43.5 96.5t104.5 40.5v-10q-36 -4 -58.5 -27.5t-22.5 -55.5q0 -37 19.5 -57.5t76.5 -50.5
l29 -15q67 -32 97.5 -63t30.5 -86q0 -66 -49.5 -107t-110.5 -43v9zM157 -6q-74 2 -123 19v66q67 -62 123 -76v-9zM335 438q-71 55 -106 61v10q66 -2 106 -13v-58z" />
    <glyph glyph-name="Lslash.sc" unicode="&#xf6f9;" horiz-adv-x="416" 
d="M6 177l279 129l7 -14l-279 -129zM62 503h90v-503h-90v503zM201 9q38 8 68 17.5t66 22t64 20.5v-69h-198v9z" />
    <glyph glyph-name="OE.sc" unicode="&#xf6fa;" horiz-adv-x="699" 
d="M287 0q-109 6 -183.5 75.5t-74.5 175.5q0 107 74.5 176.5t183.5 75.5v-10q-165 -22 -165 -242q0 -218 165 -242v-9zM335 503h88v-503h-88v503zM474 8q96 18 200 48v-56h-200v8zM596 228q-17 3 -38 7t-40 7t-44 7v10q47 6 122 20v-51zM668 449q-22 5 -60.5 15.5t-68 17
t-66.5 12.5v9h195v-54z" />
    <glyph glyph-name="Scaron.sc" unicode="&#xf6fd;" horiz-adv-x="392" 
d="M95 684l5 6l107 -73h5l107 73l4 -6l-111 -125h-6zM199 3q42 10 66 33t24 72q0 34 -20.5 52t-83.5 51l-34 17q-58 31 -85 60.5t-27 83.5q0 60 43.5 96.5t104.5 40.5v-10q-36 -4 -58.5 -27.5t-22.5 -55.5q0 -37 19.5 -57.5t76.5 -50.5l29 -15q67 -32 97.5 -63t30.5 -86
q0 -66 -49.5 -107t-110.5 -43v9zM157 -6q-74 2 -123 19v66q67 -62 123 -76v-9zM335 438q-71 55 -106 61v10q66 -2 106 -13v-58z" />
    <glyph glyph-name="Zcaron.sc" unicode="&#xf6ff;" horiz-adv-x="472" 
d="M126 684l5 6l107 -73h5l107 73l4 -6l-111 -125h-6zM41 503h206v-11q-59 -12 -211 -56zM345 503h98l-323 -503h-96zM213 9q52 9 129 31.5t98 27.5l-6 -68h-221v9z" />
    <glyph glyph-name="exclam.sc" unicode="&#xf721;" horiz-adv-x="195" 
d="M97 -5q-19 0 -30.5 11.5t-11.5 29.5t11.5 30t30.5 12t30.5 -12t11.5 -30t-11.5 -29.5t-30.5 -11.5zM89 128q-2 61 -17 192t-17 183h86q-2 -51 -17.5 -182.5t-17.5 -192.5h-17z" />
    <glyph glyph-name="ampersand.sc" unicode="&#xf726;" horiz-adv-x="536" 
d="M173 -6q-69 0 -106.5 39.5t-37.5 98.5q0 93 103 146l4 -9q-42 -35 -42 -99q0 -51 36.5 -90.5t88.5 -39.5q42 0 82 34l7 -7q-56 -73 -135 -73zM178 284q-55 64 -55 120q0 45 34 73.5t81 30.5v-9q-46 -13 -46 -58q0 -27 13.5 -51t45.5 -64l260 -326h-103zM280 348
q38 30 38 82q0 32 -12.5 47.5t-38.5 21.5v9q50 -3 77 -23.5t27 -53.5q0 -56 -86 -90zM412 220q24 54 36 98h79q-61 -55 -108 -105z" />
    <glyph glyph-name="question.sc" unicode="&#xf73f;" horiz-adv-x="333" 
d="M86 232q72 11 106.5 40t34.5 105q0 106 -121 122v9q56 -3 99.5 -14.5t76 -41t32.5 -75.5q0 -133 -207 -157v-91h-21v103zM63 397q-18 0 -29.5 12t-11.5 30t11.5 30t29.5 12t29.5 -12t11.5 -30t-11.5 -30t-29.5 -12zM96 -6q-19 0 -31 12t-12 30q0 17 12 29t31 12t31 -12
t12 -29q0 -18 -12 -30t-31 -12z" />
    <glyph glyph-name="A.sc" unicode="&#xf761;" horiz-adv-x="462" 
d="M107 213h164l-84 209l35 86h30l200 -508h-95l-77 191h-181zM4 0q38 59 72 122l11 -2q-9 -94 -11 -120h-72z" />
    <glyph glyph-name="B.sc" unicode="&#xf762;" horiz-adv-x="446" 
d="M190 9q140 14 140 132q0 64 -32.5 91t-99.5 30v8q109 9 109 113q0 59 -27.5 81t-89.5 29v10q97 -4 149.5 -31t52.5 -90q0 -47 -43.5 -76t-104.5 -38v-2q37 -5 65 -12.5t54.5 -21t41 -37t14.5 -55.5q0 -135 -229 -140v9zM58 503h90v-503h-90v503z" />
    <glyph glyph-name="C.sc" unicode="&#xf763;" horiz-adv-x="495" 
d="M296 -6q-120 6 -192.5 74.5t-72.5 182.5q0 107 78 179.5t188 78.5v-10q-84 -12 -127 -76t-43 -172q0 -107 42.5 -171.5t126.5 -76.5v-9zM333 3q52 13 135 76v-66q-50 -15 -135 -19v9zM462 427q-55 54 -127 72v10q92 -5 127 -17v-65z" />
    <glyph glyph-name="D.sc" unicode="&#xf764;" horiz-adv-x="538" 
d="M198 9q213 13 213 242q0 234 -213 242v10q62 -1 115 -15t98 -42.5t71 -78t26 -116.5q0 -86 -46.5 -144t-113.5 -81.5t-150 -25.5v9zM58 503h91v-503h-91v503z" />
    <glyph glyph-name="E.sc" unicode="&#xf765;" horiz-adv-x="430" 
d="M58 503h90v-503h-90v503zM197 8q58 11 207 50v-58h-207v8zM320 227q-16 3 -37.5 7t-41 7.5t-44.5 7.5v10q26 4 46 7.5t40.5 7.5t36.5 7v-54zM398 447q-19 5 -50 13.5t-49 13t-46 10t-57 10.5v9h202v-56z" />
    <glyph glyph-name="F.sc" unicode="&#xf766;" horiz-adv-x="417" 
d="M60 503h90v-503h-90v503zM323 229q-75 18 -123 25v10q32 5 70 13t53 11v-59zM403 444q-168 43 -203 49v10h203v-59z" />
    <glyph glyph-name="G.sc" unicode="&#xf767;" horiz-adv-x="534" 
d="M281 -6q-121 6 -185.5 78t-64.5 179q0 114 71 181t192 77v-10q-83 -12 -125.5 -76t-42.5 -172q0 -227 155 -247v-10zM321 4q56 6 86 20v197h85v-198q-66 -25 -171 -29v10zM472 428q-45 31 -74 46.5t-65 24.5v10q83 -1 139 -16v-65z" />
    <glyph glyph-name="H.sc" unicode="&#xf768;" horiz-adv-x="546" 
d="M58 503h91v-503h-91v503zM179 273h188v-22h-188v22zM398 503h90v-503h-90v503z" />
    <glyph glyph-name="I.sc" unicode="&#xf769;" horiz-adv-x="206" 
d="M58 503h90v-503h-90v503z" />
    <glyph glyph-name="J.sc" unicode="&#xf76a;" horiz-adv-x="326" 
d="M107 3q39 8 56.5 34t17.5 74v392h91v-369q0 -68 -50 -102.5t-115 -37.5v9zM52 14q-18 0 -31 12.5t-13 30.5q0 19 13 32t31 13t31 -13t13 -32q0 -18 -13 -30.5t-31 -12.5z" />
    <glyph glyph-name="K.sc" unicode="&#xf76b;" horiz-adv-x="502" 
d="M389 0q-79 84 -192 238l58 64q12 -16 61 -79t75 -95q44 -58 105 -120v-8h-107zM58 503h90v-503h-90v503zM348 390q31 62 58 113h87q-20 -17 -62.5 -54t-76.5 -65z" />
    <glyph glyph-name="L.sc" unicode="&#xf76c;" horiz-adv-x="416" 
d="M58 503h90v-503h-90v503zM197 9q38 8 68 17.5t66 22t64 20.5v-69h-198v9z" />
    <glyph glyph-name="M.sc" unicode="&#xf76d;" horiz-adv-x="630" 
d="M47 503h100l208 -425l-46 -84h-11zM23 0q45 102 64 156h10v-156h-74zM460 503h90l26 -503h-90z" />
    <glyph glyph-name="N.sc" unicode="&#xf76e;" horiz-adv-x="526" 
d="M108 389q-76 93 -96 114h117l328 -424v-81h-47zM43 0q9 30 20.5 85.5t12.5 60.5h9q1 -5 12.5 -60.5t20.5 -85.5h-75zM447 358q-9 49 -33 145h75q-10 -38 -33 -145h-9z" />
    <glyph glyph-name="O.sc" unicode="&#xf76f;" horiz-adv-x="584" 
d="M272 -6q-104 6 -172.5 81t-68.5 176q0 102 68.5 176.5t172.5 80.5v-9q-53 -8 -87 -46.5t-47 -89t-13 -112.5t13 -112.5t47 -89t87 -46.5v-9zM313 3q53 8 87 46.5t46.5 88.5t12.5 113q0 46 -7.5 86t-23.5 75t-45.5 58t-69.5 29v9q104 -6 172.5 -79.5t68.5 -177.5
q0 -103 -68.5 -177t-172.5 -80v9z" />
    <glyph glyph-name="P.sc" unicode="&#xf770;" horiz-adv-x="436" 
d="M196 228q73 7 101.5 37t28.5 97q0 68 -30.5 95t-99.5 36v10q222 -12 222 -140q0 -70 -55.5 -104.5t-166.5 -40.5v10zM58 503h90v-503h-90v503z" />
    <glyph glyph-name="Q.sc" unicode="&#xf771;" horiz-adv-x="582" 
d="M271 -6q-104 6 -172 80.5t-68 176.5t68 176.5t172 80.5v-9q-77 -11 -110 -79.5t-33 -168.5q0 -99 33 -168t110 -80v-9zM312 3q77 11 110 80t33 168q0 100 -33 168.5t-110 79.5v9q104 -6 171.5 -79.5t67.5 -177.5q0 -103 -67.5 -177t-171.5 -80v9zM556 -135
q-166 48 -260 91v10q46 -6 141.5 -20t129.5 -18z" />
    <glyph glyph-name="R.sc" unicode="&#xf772;" horiz-adv-x="457" 
d="M354 0q-19 28 -51.5 75.5t-59 87t-51.5 77.5q124 26 124 130q0 60 -29 88t-97 35v10q47 -2 82 -8.5t67.5 -20.5t50 -41t17.5 -66q0 -48 -35.5 -80t-90.5 -48q153 -216 167 -234v-5h-94zM58 503h90v-503h-90v503z" />
    <glyph glyph-name="S.sc" unicode="&#xf773;" horiz-adv-x="392" 
d="M199 3q42 10 66 33t24 72q0 34 -20.5 52t-83.5 51l-34 17q-58 31 -85 60.5t-27 83.5q0 60 43.5 96.5t104.5 40.5v-10q-36 -4 -58.5 -27.5t-22.5 -55.5q0 -37 19.5 -57.5t76.5 -50.5l29 -15q67 -32 97.5 -63t30.5 -86q0 -66 -49.5 -107t-110.5 -43v9zM157 -6
q-74 2 -123 19v66q67 -62 123 -76v-9zM335 438q-71 55 -106 61v10q66 -2 106 -13v-58z" />
    <glyph glyph-name="T.sc" unicode="&#xf774;" horiz-adv-x="465" 
d="M14 503h137v-10q-24 -9 -137 -64v74zM187 503h91v-503h-91v503zM451 429q-78 44 -137 64v10h137v-74z" />
    <glyph glyph-name="U.sc" unicode="&#xf775;" horiz-adv-x="516" 
d="M257 -6q-93 0 -147 47t-55 140v322h90v-317q0 -72 40 -107.5t111 -35.5q76 0 124 48l7 -6q-50 -91 -170 -91zM447 355q-19 83 -34 148h77q-14 -52 -34 -148h-9z" />
    <glyph glyph-name="V.sc" unicode="&#xf776;" horiz-adv-x="466" 
d="M10 503h98l168 -423l-37 -85h-29zM366 361q2 21 10 78t9 64h79q-81 -134 -89 -147z" />
    <glyph glyph-name="W.sc" unicode="&#xf777;" horiz-adv-x="705" 
d="M18 503h98l151 -417l-38 -88h-29zM278 503h98l151 -417l-38 -88h-29zM610 370l17 133h77q-59 -94 -84 -139z" />
    <glyph glyph-name="X.sc" unicode="&#xf778;" horiz-adv-x="465" 
d="M12 0q27 27 50.5 53.5t46.5 53.5t31 36l9 -4q-9 -20 -55 -139h-82zM20 503h101l334 -503h-103zM325 373q14 30 28.5 72t20.5 58h80q-31 -33 -69.5 -76.5t-51.5 -57.5z" />
    <glyph glyph-name="Y.sc" unicode="&#xf779;" horiz-adv-x="465" 
d="M177 227l-173 276h99l164 -261v-242h-90v227zM338 383q43 95 53 120h76q-22 -22 -58.5 -60.5t-62.5 -64.5z" />
    <glyph glyph-name="Z.sc" unicode="&#xf77a;" horiz-adv-x="472" 
d="M41 503h206v-11q-59 -12 -211 -56zM345 503h98l-323 -503h-96zM213 9q52 9 129 31.5t98 27.5l-6 -68h-221v9z" />
    <glyph glyph-name="exclamdown.sc" unicode="&#xf7a1;" horiz-adv-x="195" 
d="M97 504q19 0 30.5 -12t11.5 -29q0 -18 -11.5 -30t-30.5 -12t-30.5 12t-11.5 30q0 17 11.5 29t30.5 12zM89 371h17q2 -61 17.5 -192.5t17.5 -182.5h-86q2 52 17 183t17 192z" />
    <glyph glyph-name="questiondown.sc" unicode="&#xf7bf;" horiz-adv-x="333" 
d="M246 270q-72 -11 -106.5 -40t-34.5 -105q0 -106 121 -122v-9q-56 3 -99.5 14.5t-76 41t-32.5 75.5q0 133 207 157v91h21v-103zM269 105q18 0 29.5 -12t11.5 -30t-11.5 -30t-29.5 -12t-29.5 12t-11.5 30t11.5 30t29.5 12zM236 508q19 0 31 -12t12 -30q0 -17 -12 -29
t-31 -12t-31 12t-12 29q0 18 12 30t31 12z" />
    <glyph glyph-name="Agrave.sc" unicode="&#xf7e0;" horiz-adv-x="462" 
d="M107 213h164l-84 209l35 86h30l200 -508h-95l-77 191h-181zM4 0q38 59 72 122l11 -2q-9 -94 -11 -120h-72zM137 607l22 58q32 -17 162 -90l-3 -8z" />
    <glyph glyph-name="Aacute.sc" unicode="&#xf7e1;" horiz-adv-x="462" 
d="M157 575q130 73 162 90l23 -58l-182 -40zM107 213h164l-84 209l35 86h30l200 -508h-95l-77 191h-181zM4 0q38 59 72 122l11 -2q-9 -94 -11 -120h-72z" />
    <glyph glyph-name="Acircumflex.sc" unicode="&#xf7e2;" horiz-adv-x="462" 
d="M123 564l112 126h5l111 -126l-4 -5l-107 73h-5l-107 -73zM107 213h164l-84 209l35 86h30l200 -508h-95l-77 191h-181zM4 0q38 59 72 122l11 -2q-9 -94 -11 -120h-72z" />
    <glyph glyph-name="Atilde.sc" unicode="&#xf7e3;" horiz-adv-x="462" 
d="M107 213h164l-84 209l35 86h30l200 -508h-95l-77 191h-181zM4 0q38 59 72 122l11 -2q-9 -94 -11 -120h-72zM110 555q28 82 106 82h90q22 0 34.5 8.5t26.5 29.5h7q-14 -44 -38 -67t-66 -23h-93q-40 0 -61 -30h-6z" />
    <glyph glyph-name="Adieresis.sc" unicode="&#xf7e4;" horiz-adv-x="462" 
d="M162 576q-17 0 -28 11t-11 28q0 16 11 27.5t28 11.5q16 0 27 -11.5t11 -27.5q0 -17 -11 -28t-27 -11zM314 576q-16 0 -27 11t-11 28q0 16 11 27.5t27 11.5q17 0 28 -11.5t11 -27.5q0 -17 -11 -28t-28 -11zM107 213h164l-84 209l35 86h30l200 -508h-95l-77 191h-181zM4 0
q38 59 72 122l11 -2q-9 -94 -11 -120h-72z" />
    <glyph glyph-name="Aring.sc" unicode="&#xf7e5;" horiz-adv-x="462" 
d="M247 558q21 2 35 17t14 40q0 52 -49 59v13q26 -2 45.5 -21.5t19.5 -50.5q0 -30 -20 -49.5t-45 -21.5v14zM226 544q-25 2 -44.5 21.5t-19.5 49.5q0 31 19 50.5t45 21.5v-13q-49 -7 -49 -59q0 -25 14.5 -40t34.5 -17v-14zM107 213h164l-84 209l35 86h30l200 -508h-95
l-77 191h-181zM4 0q38 59 72 122l11 -2q-9 -94 -11 -120h-72z" />
    <glyph glyph-name="AE.sc" unicode="&#xf7e6;" horiz-adv-x="672" 
d="M159 263h151v240h90v-503h-90v240h-163zM448 8q40 7 70.5 14.5t68.5 18t60 16.5v-57h-199v8zM641 447q-22 6 -60.5 17t-67 17.5t-65.5 12.5v9h193v-56zM-3 0q63 83 89 122l10 -2q-18 -77 -26 -120h-73zM569 227q-17 3 -52.5 10t-68.5 12v10q26 4 45.5 7.5t39.5 7.5t36 7
v-54z" />
    <glyph glyph-name="Ccedilla.sc" unicode="&#xf7e7;" horiz-adv-x="495" 
d="M296 -6q-120 6 -192.5 74.5t-72.5 182.5q0 107 78 179.5t188 78.5v-10q-84 -12 -127 -76t-43 -172q0 -107 42.5 -171.5t126.5 -76.5v-9zM333 3q52 13 135 76v-66q-50 -15 -135 -19v9zM462 427q-55 54 -127 72v10q92 -5 127 -17v-65zM206 -212q-11 0 -17.5 7t-6.5 17
q0 25 24 25q25 0 25 -25q0 -10 -7 -17t-18 -7zM252 -201q21 13 21 33q0 10 -18 36q-15 28 -15 40q0 18 21 37t53 31l4 -6q-29 -23 -29 -39q0 -11 14 -33q20 -32 20 -47q0 -17 -19.5 -33t-48.5 -25z" />
    <glyph glyph-name="Egrave.sc" unicode="&#xf7e8;" horiz-adv-x="430" 
d="M141 607l22 58q32 -17 162 -90l-3 -8zM58 503h90v-503h-90v503zM197 8q58 11 207 50v-58h-207v8zM320 227q-16 3 -37.5 7t-41 7.5t-44.5 7.5v10q26 4 46 7.5t40.5 7.5t36.5 7v-54zM398 447q-19 5 -50 13.5t-49 13t-46 10t-57 10.5v9h202v-56z" />
    <glyph glyph-name="Eacute.sc" unicode="&#xf7e9;" horiz-adv-x="430" 
d="M149 575q130 73 162 90l23 -58l-182 -40zM58 503h90v-503h-90v503zM197 8q58 11 207 50v-58h-207v8zM320 227q-16 3 -37.5 7t-41 7.5t-44.5 7.5v10q26 4 46 7.5t40.5 7.5t36.5 7v-54zM398 447q-19 5 -50 13.5t-49 13t-46 10t-57 10.5v9h202v-56z" />
    <glyph glyph-name="Ecircumflex.sc" unicode="&#xf7ea;" horiz-adv-x="430" 
d="M126 564l112 126h5l111 -126l-4 -5l-107 73h-5l-107 -73zM58 503h90v-503h-90v503zM197 8q58 11 207 50v-58h-207v8zM320 227q-16 3 -37.5 7t-41 7.5t-44.5 7.5v10q26 4 46 7.5t40.5 7.5t36.5 7v-54zM398 447q-19 5 -50 13.5t-49 13t-46 10t-57 10.5v9h202v-56z" />
    <glyph glyph-name="Edieresis.sc" unicode="&#xf7eb;" horiz-adv-x="430" 
d="M164 576q-17 0 -28 11t-11 28q0 16 11 27.5t28 11.5q16 0 27 -11.5t11 -27.5q0 -17 -11 -28t-27 -11zM316 576q-16 0 -27 11t-11 28q0 16 11 27.5t27 11.5q17 0 28 -11.5t11 -27.5q0 -17 -11 -28t-28 -11zM58 503h90v-503h-90v503zM197 8q58 11 207 50v-58h-207v8z
M320 227q-16 3 -37.5 7t-41 7.5t-44.5 7.5v10q26 4 46 7.5t40.5 7.5t36.5 7v-54zM398 447q-19 5 -50 13.5t-49 13t-46 10t-57 10.5v9h202v-56z" />
    <glyph glyph-name="Igrave.sc" unicode="&#xf7ec;" horiz-adv-x="206" 
d="M58 503h90v-503h-90v503zM4 607l22 58q32 -17 162 -90l-3 -8z" />
    <glyph glyph-name="Iacute.sc" unicode="&#xf7ed;" horiz-adv-x="206" 
d="M23 575q130 73 162 90l23 -58l-182 -40zM58 503h90v-503h-90v503z" />
    <glyph glyph-name="Icircumflex.sc" unicode="&#xf7ee;" horiz-adv-x="206" 
d="M-10 564l112 126h5l111 -126l-4 -5l-107 73h-5l-107 -73zM58 503h90v-503h-90v503z" />
    <glyph glyph-name="Idieresis.sc" unicode="&#xf7ef;" horiz-adv-x="206" 
d="M39 576q-17 0 -28 11t-11 28q0 16 11 27.5t28 11.5q16 0 27 -11.5t11 -27.5q0 -17 -11 -28t-27 -11zM166 576q-16 0 -27 11t-11 28q0 16 11 27.5t27 11.5q17 0 28 -11.5t11 -27.5q0 -17 -11 -28t-28 -11zM58 503h90v-503h-90v503z" />
    <glyph glyph-name="Eth.sc" unicode="&#xf7f0;" horiz-adv-x="560" 
d="M220 9q217 14 217 242q0 234 -218 242v10q61 -1 114.5 -15t99 -42.5t71.5 -78t26 -116.5q0 -86 -46.5 -144t-113.5 -81.5t-150 -25.5v9zM168 0h-88v245h-66v22h66v236h88v-236h130v-22h-130v-245z" />
    <glyph glyph-name="Ntilde.sc" unicode="&#xf7f1;" horiz-adv-x="526" 
d="M108 389q-76 93 -96 114h117l328 -424v-81h-47zM43 0q9 30 20.5 85.5t12.5 60.5h9q1 -5 12.5 -60.5t20.5 -85.5h-75zM447 358q-9 49 -33 145h75q-10 -38 -33 -145h-9zM162 555q28 82 106 82h90q22 0 34.5 8.5t26.5 29.5h7q-14 -44 -38 -67t-66 -23h-93q-40 0 -61 -30h-6z
" />
    <glyph glyph-name="Ograve.sc" unicode="&#xf7f2;" horiz-adv-x="584" 
d="M272 -6q-104 6 -172.5 81t-68.5 176q0 102 68.5 176.5t172.5 80.5v-9q-53 -8 -87 -46.5t-47 -89t-13 -112.5t13 -112.5t47 -89t87 -46.5v-9zM313 3q53 8 87 46.5t46.5 88.5t12.5 113q0 46 -7.5 86t-23.5 75t-45.5 58t-69.5 29v9q104 -6 172.5 -79.5t68.5 -177.5
q0 -103 -68.5 -177t-172.5 -80v9zM192 607l22 58q32 -17 162 -90l-3 -8z" />
    <glyph glyph-name="Oacute.sc" unicode="&#xf7f3;" horiz-adv-x="584" 
d="M272 -6q-104 6 -172.5 81t-68.5 176q0 102 68.5 176.5t172.5 80.5v-9q-53 -8 -87 -46.5t-47 -89t-13 -112.5t13 -112.5t47 -89t87 -46.5v-9zM313 3q53 8 87 46.5t46.5 88.5t12.5 113q0 46 -7.5 86t-23.5 75t-45.5 58t-69.5 29v9q104 -6 172.5 -79.5t68.5 -177.5
q0 -103 -68.5 -177t-172.5 -80v9zM212 575q130 73 162 90l23 -58l-182 -40z" />
    <glyph glyph-name="Ocircumflex.sc" unicode="&#xf7f4;" horiz-adv-x="584" 
d="M178 564l112 126h5l111 -126l-4 -5l-107 73h-5l-107 -73zM272 -6q-104 6 -172.5 81t-68.5 176q0 102 68.5 176.5t172.5 80.5v-9q-53 -8 -87 -46.5t-47 -89t-13 -112.5t13 -112.5t47 -89t87 -46.5v-9zM313 3q53 8 87 46.5t46.5 88.5t12.5 113q0 46 -7.5 86t-23.5 75
t-45.5 58t-69.5 29v9q104 -6 172.5 -79.5t68.5 -177.5q0 -103 -68.5 -177t-172.5 -80v9z" />
    <glyph glyph-name="Otilde.sc" unicode="&#xf7f5;" horiz-adv-x="584" 
d="M272 -6q-104 6 -172.5 81t-68.5 176q0 102 68.5 176.5t172.5 80.5v-9q-53 -8 -87 -46.5t-47 -89t-13 -112.5t13 -112.5t47 -89t87 -46.5v-9zM313 3q53 8 87 46.5t46.5 88.5t12.5 113q0 46 -7.5 86t-23.5 75t-45.5 58t-69.5 29v9q104 -6 172.5 -79.5t68.5 -177.5
q0 -103 -68.5 -177t-172.5 -80v9zM165 555q28 82 106 82h90q22 0 34.5 8.5t26.5 29.5h7q-14 -44 -38 -67t-66 -23h-93q-40 0 -61 -30h-6z" />
    <glyph glyph-name="Odieresis.sc" unicode="&#xf7f6;" horiz-adv-x="584" 
d="M216 576q-17 0 -28 11t-11 28q0 16 11 27.5t28 11.5q16 0 27 -11.5t11 -27.5q0 -17 -11 -28t-27 -11zM368 576q-16 0 -27 11t-11 28q0 16 11 27.5t27 11.5q17 0 28 -11.5t11 -27.5q0 -17 -11 -28t-28 -11zM272 -6q-104 6 -172.5 81t-68.5 176q0 102 68.5 176.5
t172.5 80.5v-9q-53 -8 -87 -46.5t-47 -89t-13 -112.5t13 -112.5t47 -89t87 -46.5v-9zM313 3q53 8 87 46.5t46.5 88.5t12.5 113q0 46 -7.5 86t-23.5 75t-45.5 58t-69.5 29v9q104 -6 172.5 -79.5t68.5 -177.5q0 -103 -68.5 -177t-172.5 -80v9z" />
    <glyph glyph-name="Oslash.sc" unicode="&#xf7f8;" horiz-adv-x="584" 
d="M103 -53l49 85q-56 35 -88 93t-32 126q0 102 68.5 176.5t172.5 80.5v-9q-53 -8 -87 -46.5t-47 -89t-13 -112.5q0 -120 45 -185l227 391q-35 35 -84 42v9q53 -3 98 -25l41 70l17 -10l-40 -70q58 -34 91.5 -93t33.5 -129q0 -103 -68.5 -177t-172.5 -80v9q53 8 87.5 46.5
t47 89t12.5 112.5q0 123 -50 190l-226 -393q34 -37 88 -45v-9q-58 3 -103 27l-49 -85z" />
    <glyph glyph-name="Ugrave.sc" unicode="&#xf7f9;" horiz-adv-x="516" 
d="M180 607l22 58q32 -17 162 -90l-3 -8zM257 -6q-93 0 -147 47t-55 140v322h90v-317q0 -72 40 -107.5t111 -35.5q76 0 124 48l7 -6q-50 -91 -170 -91zM447 355q-19 83 -34 148h77q-14 -52 -34 -148h-9z" />
    <glyph glyph-name="Uacute.sc" unicode="&#xf7fa;" horiz-adv-x="516" 
d="M200 575q130 73 162 90l23 -58l-182 -40zM257 -6q-93 0 -147 47t-55 140v322h90v-317q0 -72 40 -107.5t111 -35.5q76 0 124 48l7 -6q-50 -91 -170 -91zM447 355q-19 83 -34 148h77q-14 -52 -34 -148h-9z" />
    <glyph glyph-name="Ucircumflex.sc" unicode="&#xf7fb;" horiz-adv-x="516" 
d="M166 564l112 126h5l111 -126l-4 -5l-107 73h-5l-107 -73zM257 -6q-93 0 -147 47t-55 140v322h90v-317q0 -72 40 -107.5t111 -35.5q76 0 124 48l7 -6q-50 -91 -170 -91zM447 355q-19 83 -34 148h77q-14 -52 -34 -148h-9z" />
    <glyph glyph-name="Udieresis.sc" unicode="&#xf7fc;" horiz-adv-x="516" 
d="M204 576q-17 0 -28 11t-11 28q0 16 11 27.5t28 11.5q16 0 27 -11.5t11 -27.5q0 -17 -11 -28t-27 -11zM356 576q-16 0 -27 11t-11 28q0 16 11 27.5t27 11.5q17 0 28 -11.5t11 -27.5q0 -17 -11 -28t-28 -11zM257 -6q-93 0 -147 47t-55 140v322h90v-317q0 -72 40 -107.5
t111 -35.5q76 0 124 48l7 -6q-50 -91 -170 -91zM447 355q-19 83 -34 148h77q-14 -52 -34 -148h-9z" />
    <glyph glyph-name="Yacute.sc" unicode="&#xf7fd;" horiz-adv-x="465" 
d="M169 575q130 73 162 90l23 -58l-182 -40zM177 227l-173 276h99l164 -261v-242h-90v227zM338 383q43 95 53 120h76q-22 -22 -58.5 -60.5t-62.5 -64.5z" />
    <glyph glyph-name="Thorn.sc" unicode="&#xf7fe;" horiz-adv-x="431" 
d="M58 503h90v-503h-90v503zM321 262q0 67 -28.5 97t-96.5 37v10q215 -13 215 -143q0 -131 -215 -142v10q69 6 97 35.5t28 95.5z" />
    <glyph glyph-name="Ydieresis.sc" unicode="&#xf7ff;" horiz-adv-x="465" 
d="M173 576q-17 0 -28 11t-11 28q0 16 11 27.5t28 11.5q16 0 27 -11.5t11 -27.5q0 -17 -11 -28t-27 -11zM325 576q-16 0 -27 11t-11 28q0 16 11 27.5t27 11.5q17 0 28 -11.5t11 -27.5q0 -17 -11 -28t-28 -11zM177 227l-173 276h99l164 -261v-242h-90v227zM338 383
q43 95 53 120h76q-22 -22 -58.5 -60.5t-62.5 -64.5z" />
    <glyph glyph-name="s_t" unicode="&#xfb06;" horiz-adv-x="636" 
d="M404 393h-58v28h58v116q0 126 -98 138v9q89 -5 137 -45t48 -113v-105h131v-28h-132v-263q0 -44 15 -69t56 -25q51 0 76 17v-10q-14 -19 -47 -35t-77 -16q-109 0 -109 127v274zM177 0q32 4 57.5 26.5t25.5 59.5q0 30 -16 46.5t-50 32.5l-65 30q-90 36 -90 113q0 48 36 81
t93 40v-9q-65 -13 -65 -65q0 -49 53 -73l78 -35q47 -22 67 -49t20 -69q0 -58 -41.5 -95.5t-102.5 -41.5v8zM294 359q-43 43 -84 63q-36 15 -62 47.5t-26 75.5q0 63 40.5 98t107.5 41v-9q-62 -5 -99.5 -39t-37.5 -91q0 -41 25 -69t59 -43q10 -4 77 -17v-57zM136 -8
q-63 5 -104 16v64q53 -55 104 -72v-8z" />
    <glyph glyph-name="space_uni0326" horiz-adv-x="423" 
d="M173 -186q3 14 8.5 64.5t7.5 64.5h73q-7 -15 -39.5 -64.5t-39.5 -64.5h-10z" />
    <glyph glyph-name="caron.alt" horiz-adv-x="423" 
d="M192 522q6 31 14 90t11 76h59q-8 -25 -35.5 -84t-36.5 -82h-12z" />
    <glyph glyph-name="space_uni0326.alt" horiz-adv-x="423" 
d="M253 632q-3 -14 -8.5 -64.5t-7.5 -64.5h-73q7 15 39.5 64.5t39.5 64.5h10z" />
    <glyph glyph-name="grave.uc" horiz-adv-x="423" 
d="M311 675q-10 1 -93 20t-94 21l21 54q11 -9 87 -46.5t81 -40.5z" />
    <glyph glyph-name="dieresis.uc" horiz-adv-x="423" 
d="M121 688q-17 0 -29 12.5t-12 29.5t12 28.5t29 11.5t29 -11.5t12 -28.5t-12 -29.5t-29 -12.5zM301 688q-17 0 -28.5 12.5t-11.5 29.5t11.5 28.5t28.5 11.5t29.5 -11.5t12.5 -28.5t-12.5 -29.5t-29.5 -12.5z" />
    <glyph glyph-name="macron.uc" horiz-adv-x="423" 
d="M100 726h223v-30h-223v30z" />
    <glyph glyph-name="acute.uc" horiz-adv-x="423" 
d="M127 683q6 4 80.5 41t86.5 46l21 -54q-10 -1 -93 -20.5t-93 -20.5z" />
    <glyph glyph-name="circumflex.uc" horiz-adv-x="423" 
d="M94 681l115 112h5l115 -112l-5 -6l-110 63h-5l-111 -63z" />
    <glyph glyph-name="caron.uc" horiz-adv-x="499" 
d="M96 787l5 6l108 -62h5l108 62l5 -6l-113 -112h-6z" />
    <glyph glyph-name="breve.uc" horiz-adv-x="423" 
d="M211 676q-47 0 -75 28t-33 79h10q5 -28 30.5 -44t67.5 -16q86 0 99 60h9q-12 -107 -108 -107z" />
    <glyph glyph-name="dotaccent.uc" horiz-adv-x="422" 
d="M211 687q-21 0 -35.5 14t-14.5 35q0 23 14.5 36.5t35.5 13.5t35.5 -13.5t14.5 -36.5q0 -21 -14.5 -35t-35.5 -14z" />
    <glyph glyph-name="ring.uc" horiz-adv-x="423" 
d="M222 683q21 3 35.5 18t14.5 40q0 26 -14 41t-36 18v13q27 -2 46.5 -21.5t19.5 -50.5q0 -30 -20 -49t-46 -21v12zM201 671q-26 2 -45.5 21t-19.5 49q0 31 19.5 50.5t45.5 21.5v-13q-22 -3 -36 -18t-14 -41q0 -25 14.5 -40t35.5 -18v-12z" />
    <glyph glyph-name="tilde.uc" horiz-adv-x="423" 
d="M77 673q30 85 107 85h94q22 0 35 8.5t26 28.5h7q-29 -91 -104 -91h-98q-40 0 -60 -31h-7z" />
    <glyph glyph-name="hungarumlaut.uc" horiz-adv-x="423" 
d="M84 695l74 121l50 -30l-119 -94zM206 695l73 121l50 -30l-118 -94z" />
    <glyph glyph-name="cedilla.uc" horiz-adv-x="423" 
d="M161 -212q-11 0 -17.5 7t-6.5 17q0 25 24 25q25 0 25 -25q0 -10 -7 -17t-18 -7zM207 -201q21 13 21 33q0 10 -18 36q-15 28 -15 40q0 18 21 37t53 31l4 -6q-29 -23 -29 -39q0 -11 14 -33q20 -32 20 -47q0 -17 -19.5 -33t-48.5 -25z" />
    <glyph glyph-name="uni0237.short" horiz-adv-x="193" 
d="M-9 -154q33 11 49 36t16 78v458l86 12v-414q0 -90 -39.5 -128t-111.5 -49v7z" />
    <glyph glyph-name="idotaccent" horiz-adv-x="191" 
d="M52 415l86 13v-428h-86v415zM95 503q-21 0 -35 13.5t-14 34.5t14 34.5t35 13.5t35 -13.5t14 -34.5t-14 -34.5t-35 -13.5z" />
    <glyph glyph-name="dollar.lin" horiz-adv-x="464" 
d="M215 284l-12 7q-43 24 -63 37.5t-45 36t-35 47.5t-10 58q0 70 48.5 115t126.5 53v-9q-44 -5 -73.5 -35.5t-29.5 -74.5q0 -42 21.5 -68t82.5 -60l33 309h18l-34 -319l22 -12q44 -26 66 -40.5t46.5 -38t34 -50t9.5 -62.5q0 -83 -55.5 -130t-133.5 -56v9q113 25 113 137
q0 44 -24 71.5t-90 65.5l-37 -352h-17zM359 521q-18 0 -30.5 12t-12.5 31t12.5 31.5t30.5 12.5q17 0 30 -13t13 -31t-12.5 -30.5t-30.5 -12.5zM83 28q-17 0 -29.5 12t-12.5 31t12.5 31.5t29.5 12.5q18 0 30.5 -12.5t12.5 -31.5t-12.5 -31t-30.5 -12z" />
    <glyph glyph-name="Euro.lin" horiz-adv-x="560" 
d="M30 376h74q21 104 92 175t174 83v-8q-77 -16 -123.5 -81.5t-54.5 -168.5h158l-1 -14h-158q-1 -11 -1 -32q0 -39 2 -50h115l-1 -14h-113q12 -99 60.5 -154.5t130.5 -55.5q99 0 155 48v-11q-15 -35 -67 -68t-124 -33q-107 0 -174.5 74.5t-75.5 199.5h-68v14h67v22
q0 33 4 60h-71v14zM449 522q-20 0 -32.5 13t-12.5 32q0 20 12.5 32.5t32.5 12.5q19 0 32 -12.5t13 -32.5q0 -18 -13 -31.5t-32 -13.5z" />
    <glyph glyph-name="sterling.lin" horiz-adv-x="488" 
d="M25 266h64l15 139q11 105 77.5 164t159.5 65v-8q-67 -10 -101 -55.5t-44 -140.5l-18 -164h149v-14h-150l-27 -252h-90l27 252h-62v14zM203 8q28 6 82.5 16t91.5 18.5t70 18.5v-61h-244v8zM392 509q-20 0 -34 13.5t-14 34.5t14 34.5t34 13.5t34 -13.5t14 -34.5t-14 -34.5
t-34 -13.5z" />
    <glyph glyph-name="yen.lin" horiz-adv-x="534" 
d="M102 313h94l-190 317h103l192 -317h103v-14h-102v-65h102v-14h-102v-220h-98v220h-102v14h102v65h-102v14zM402 493q16 39 55 137h82q-27 -30 -65.5 -72t-64.5 -70z" />
    <glyph glyph-name="zero.lin" horiz-adv-x="605" 
d="M288 -7q-96 4 -169 92t-73 230t73 230t169 92v-8q-145 -22 -145 -314t145 -314v-8zM317 1q146 22 146 314t-146 314v8q96 -4 169 -92t73 -230t-73 -230t-169 -92v8z" />
    <glyph glyph-name="one.lin" horiz-adv-x="289" 
d="M-2 578l87 26v-49h-87v23zM110 612l92 23v-635h-92v612z" />
    <glyph glyph-name="two.lin" horiz-adv-x="499" 
d="M113 94q228 185 228 360q0 78 -41 115.5t-111 37.5q-59 0 -102 -26v6q20 20 63.5 35.5t92.5 15.5q91 0 142 -45.5t51 -127.5q0 -55 -28.5 -111.5t-76 -104t-98.5 -86t-108 -69.5h-12zM84 463q-20 0 -34.5 14t-14.5 34q0 19 14.5 33t34.5 14t34 -14t14 -33q0 -20 -14 -34
t-34 -14zM91 71h361l-6 -71h-436z" />
    <glyph glyph-name="three.lin" horiz-adv-x="470" 
d="M138 -1q90 4 142.5 46.5t52.5 125.5q0 78 -42.5 115.5t-112.5 37.5h-10v13h10q70 0 103.5 42t33.5 111q0 63 -31.5 92t-96.5 29q-62 0 -105 -27v6q17 17 56.5 32.5t91.5 15.5q81 0 127.5 -35.5t46.5 -105.5q0 -68 -54.5 -113.5t-135.5 -51.5v-1q92 -7 152 -44.5
t60 -112.5q0 -62 -39 -103.5t-101 -59.5t-148 -21v9zM84 22q-20 0 -33.5 13.5t-13.5 33.5q0 18 13.5 32t33.5 14t33.5 -14t13.5 -32q0 -19 -13.5 -33t-33.5 -14zM78 468q-20 0 -33.5 13.5t-13.5 32.5t13.5 32.5t33.5 13.5t33.5 -13.5t13.5 -32.5t-13.5 -32.5t-33.5 -13.5z
" />
    <glyph glyph-name="four.lin" horiz-adv-x="540" 
d="M265 543l68 92h24v-635h-92v543zM54 264h176v-66h-223zM392 264h132l-4 -66h-128v66z" />
    <glyph glyph-name="five.lin" horiz-adv-x="465" 
d="M58 47q-8 11 -6.5 25t12.5 22q12 8 26 6.5t22 -12.5q9 -10 7 -24t-14 -22q-11 -8 -25 -7t-22 12zM116 0q93 9 154 56.5t61 121.5q0 147 -175 147q-42 0 -88 -8l4 67q44 11 114 11q104 0 165 -46t61 -138q0 -98 -80.5 -155.5t-215.5 -63.5v8zM93 630h303v-71h-307z" />
    <glyph glyph-name="six.lin" horiz-adv-x="554" 
d="M296 1q51 8 85.5 63t34.5 126q0 90 -35 131.5t-108 41.5q-63 0 -101 -30v9q18 21 62.5 38t87.5 17q85 0 137 -50t52 -139q0 -95 -64 -153.5t-151 -62.5v9zM272 -8q-96 2 -162 72.5t-66 185.5q0 153 109.5 261.5t263.5 120.5v-9q-117 -16 -197 -120t-80 -259
q0 -226 132 -243v-9zM451 512q-20 0 -34 13.5t-14 33.5t14 33.5t34 13.5t34 -13.5t14 -33.5q0 -19 -14 -33t-34 -14z" />
    <glyph glyph-name="seven.lin" horiz-adv-x="471" 
d="M379 518h13l-225 -518h-87zM30 630h406l-31 -72h-375v72z" />
    <glyph glyph-name="eight.lin" horiz-adv-x="494" 
d="M243 -8q-85 0 -142 39.5t-57 111.5q0 54 31.5 86t81.5 55l6 -5q-65 -45 -65 -119q-2 -66 38 -113t107 -47q71 0 109 33.5t38 95.5q0 26 -11.5 47.5t-39.5 43t-50 35t-67 38.5q-34 19 -53 30.5t-42.5 30t-35.5 36t-20.5 42.5t-8.5 55q0 66 55 108.5t137 42.5
q78 0 122 -33.5t44 -88.5q0 -43 -29.5 -78.5t-75.5 -53.5l-5 5q59 41 59 116q0 60 -26 92.5t-89 32.5q-54 0 -88.5 -27.5t-34.5 -72.5q0 -50 32.5 -82.5t104.5 -72.5q35 -19 54.5 -30.5t49 -32.5t45 -39t27.5 -43.5t12 -53.5q0 -89 -60 -136.5t-153 -47.5z" />
    <glyph glyph-name="nine.lin" horiz-adv-x="556" 
d="M233 233q-84 0 -137 53.5t-53 142.5q0 94 63.5 149.5t151.5 59.5v-9q-53 -9 -87 -58.5t-34 -123.5q0 -177 144 -177q63 0 101 30v-9q-20 -22 -62 -40t-87 -18zM140 4q115 15 195 120.5t80 260.5q0 227 -132 244v9q99 -4 163 -72.5t64 -185.5q0 -155 -106.5 -264.5
t-263.5 -121.5v10zM103 18q-20 0 -34 13.5t-14 33.5t14 34t34 14t34 -14t14 -34q0 -19 -14 -33t-34 -14z" />
    <glyph glyph-name="percent.lin" horiz-adv-x="617" 
d="M149 334q-47 6 -82 47.5t-35 104.5t35.5 104t81.5 48v-9q-54 -12 -54 -143q0 -57 13.5 -97t40.5 -46v-9zM176 343q27 6 40.5 46t13.5 97q0 131 -54 143v9q46 -7 81.5 -48t35.5 -104q0 -64 -34.5 -105t-82.5 -47v9zM441 -8q-47 6 -82 47.5t-35 104.5t35.5 104t81.5 48v-9
q-53 -12 -53 -143q0 -128 53 -143v-9zM468 1q54 15 54 143q0 132 -54 143v9q46 -7 81.5 -48t35.5 -104q0 -64 -34.5 -105t-82.5 -47v9zM102 3l411 637l17 -12l-412 -636z" />
    <glyph glyph-name="perthousand.lin" horiz-adv-x="918" 
d="M149 334q-47 6 -82 47.5t-35 104.5t35.5 104t81.5 48v-9q-54 -12 -54 -143q0 -57 13.5 -97t40.5 -46v-9zM176 343q27 6 40.5 46t13.5 97q0 131 -54 143v9q46 -7 81.5 -48t35.5 -104q0 -64 -34.5 -105t-82.5 -47v9zM441 -8q-47 6 -82 47.5t-35 104.5t35.5 104t81.5 48v-9
q-53 -12 -53 -143q0 -128 53 -143v-9zM468 1q54 15 54 143q0 132 -54 143v9q46 -7 81.5 -48t35.5 -104q0 -64 -34.5 -105t-82.5 -47v9zM742 -8q-47 6 -81.5 47.5t-34.5 104.5t35 104.5t81 47.5v-9q-53 -12 -53 -143q0 -128 53 -143v-9zM770 1q53 15 53 143q0 131 -53 143v9
q46 -6 81 -47.5t35 -104.5t-34.5 -104.5t-81.5 -47.5v9zM102 3l411 637l17 -12l-412 -636z" />
    <glyph glyph-name="plus.lin" horiz-adv-x="429" 
d="M226 305v-147h-23v147h-148v24h148v148h23v-148h148v-24h-148z" />
    <glyph glyph-name="minus.lin" horiz-adv-x="429" 
d="M55 330h319v-24h-319v24z" />
    <glyph glyph-name="multiply.lin" horiz-adv-x="409" 
d="M204 301l-120 -120l-16 17l120 120l-120 120l16 17l121 -120l120 120l17 -16l-121 -121l121 -120l-17 -17z" />
    <glyph glyph-name="divide.lin" horiz-adv-x="429" 
d="M214 169q-14 0 -23 9t-9 23t9 23t23 9q13 0 22.5 -9t9.5 -23t-9.5 -23t-22.5 -9zM55 330h319v-24h-319v24zM214 401q-14 0 -23 9.5t-9 23.5q0 13 9 22.5t23 9.5q13 0 22.5 -9.5t9.5 -22.5q0 -14 -9.5 -23.5t-22.5 -9.5z" />
    <glyph glyph-name="equal.lin" horiz-adv-x="429" 
d="M55 255h319v-23h-319v23zM55 405h319v-23h-319v23z" />
    <glyph glyph-name="less.lin" horiz-adv-x="406" 
d="M61 306v26l281 113v-23l-252 -103l252 -102v-24z" />
    <glyph glyph-name="greater.lin" horiz-adv-x="406" 
d="M64 217l253 102l-253 103v23l281 -112v-27l-281 -113v24z" />
    <glyph glyph-name="zero.num" horiz-adv-x="399" 
d="M189 250q-59 2 -106.5 55t-47.5 137t47.5 137t106.5 55v-7q-89 -15 -89 -185t89 -185v-7zM211 257q88 15 88 185t-88 185v7q59 -2 106 -55t47 -137t-47 -137t-106 -55v7z" />
    <glyph glyph-name="one.num" horiz-adv-x="213" 
d="M8 601l55 14v-32h-55v18zM85 621l61 12v-379h-61v367z" />
    <glyph glyph-name="two.num" horiz-adv-x="321" 
d="M77 321q1 1 17 15t20.5 18t19.5 18t21 22t18 22t17.5 25.5t12.5 26t9.5 29.5t2.5 30q0 83 -87 83q-33 0 -69 -17v6q12 15 42 26t61 11q58 0 87.5 -27.5t29.5 -75.5q0 -108 -193 -212h-9zM60 515q-31 0 -31 31t31 31q13 0 22 -8.5t9 -22.5t-9 -22.5t-22 -8.5zM62 303h227
l-4 -49h-272z" />
    <glyph glyph-name="three.num" horiz-adv-x="306" 
d="M87 257q54 4 87.5 31t33.5 77q0 84 -86 84h-15v10h15q75 0 75 84q0 74 -77 74q-39 0 -63 -15v6q28 28 92 28q49 0 79 -23t30 -65q0 -39 -30 -62.5t-74 -30.5v-2q119 -10 119 -89q0 -54 -53 -83t-133 -31v7zM52 266q-14 0 -22 8.5t-8 21.5q0 31 30 31q13 0 21.5 -8.5
t8.5 -22.5q0 -13 -8.5 -21.5t-21.5 -8.5zM52 527q-13 0 -21.5 8.5t-8.5 21.5q0 14 8.5 22t21.5 8q30 0 30 -30q0 -13 -8 -21.5t-22 -8.5z" />
    <glyph glyph-name="four.num" horiz-adv-x="350" 
d="M169 579l47 56h16v-381h-63v325zM257 417h78l-2 -48h-76v48zM43 417h100v-48h-138z" />
    <glyph glyph-name="five.num" horiz-adv-x="297" 
d="M80 255q57 5 90.5 31.5t33.5 72.5q0 45 -24.5 66t-80.5 21q-23 0 -48 -5v45q25 5 65 5q141 0 141 -110q0 -62 -46 -95t-131 -37v6zM57 269q-31 0 -31 30q0 13 8.5 21.5t22.5 8.5q13 0 21.5 -8.5t8.5 -21.5q0 -14 -8.5 -22t-21.5 -8zM51 630h197v-48h-197v48z" />
    <glyph glyph-name="six.num" horiz-adv-x="356" 
d="M191 257q30 6 50 36t20 74q0 53 -20 77t-63 24q-35 0 -58 -19v9q13 12 38 22t50 10q51 0 83.5 -29t32.5 -83q0 -56 -41 -91t-92 -37v7zM175 250q-60 2 -101 48t-41 112q0 91 63 152.5t158 71.5v-8q-71 -10 -114.5 -69t-43.5 -150q0 -64 20 -104.5t59 -45.5v-7zM275 554
q-14 0 -22 8.5t-8 21.5t8 21.5t22 8.5q13 0 21.5 -8.5t8.5 -21.5t-8.5 -21.5t-21.5 -8.5z" />
    <glyph glyph-name="seven.num" horiz-adv-x="288" 
d="M234 556h8l-131 -302h-61zM20 630h249l-19 -50h-230v50z" />
    <glyph glyph-name="eight.num" horiz-adv-x="315" 
d="M153 251q-51 0 -87.5 24t-36.5 66q0 50 71 79l4 -4q-36 -22 -36 -70q0 -39 23.5 -64t61.5 -25q42 0 66 19t24 53q0 16 -5.5 28t-22 24.5t-25.5 17.5t-37 20q-9 5 -13 7q-26 14 -38.5 21.5t-30 22t-25 31.5t-7.5 38q0 41 33.5 69t86.5 28q48 0 77 -20t29 -54
q0 -25 -18 -45t-44 -30l-5 4q31 23 31 70q0 68 -70 68q-32 0 -52.5 -17.5t-20.5 -43.5q0 -28 18 -44t60 -38q5 -3 8 -4q4 -2 23 -12.5t24.5 -13.5t20.5 -13t20 -16.5t13.5 -17t11.5 -22t3 -24.5q0 -52 -39 -82t-96 -30z" />
    <glyph glyph-name="nine.num" horiz-adv-x="356" 
d="M166 627q-31 -6 -51 -36.5t-20 -74.5q0 -53 20.5 -76.5t64.5 -23.5q35 0 57 18v-8q-31 -35 -91 -35q-49 0 -81.5 30.5t-32.5 83.5q0 57 41 91t93 38v-7zM182 634q61 -4 101 -48t40 -112q0 -91 -63 -153.5t-158 -70.5v8q70 10 114 69t44 150q0 65 -19.5 105t-58.5 45v7z
M82 330q14 0 22 -8.5t8 -21.5t-8 -21.5t-22 -8.5q-13 0 -21.5 8.5t-8.5 21.5t8.5 21.5t21.5 8.5z" />
    <glyph glyph-name="zero.den" horiz-adv-x="399" 
d="M189 -4q-59 2 -106.5 55t-47.5 137t47.5 137t106.5 55v-7q-89 -15 -89 -185t89 -185v-7zM211 3q88 15 88 185t-88 185v7q59 -2 106 -55t47 -137t-47 -137t-106 -55v7z" />
    <glyph glyph-name="one.den" horiz-adv-x="213" 
d="M8 347l55 14v-32h-55v18zM85 367l61 12v-379h-61v367z" />
    <glyph glyph-name="two.den" horiz-adv-x="321" 
d="M77 67q1 1 17 15t20.5 18t19.5 18t21 22t18 22t17.5 25.5t12.5 26t9.5 29.5t2.5 30q0 83 -87 83q-33 0 -69 -17v6q12 15 42 26t61 11q58 0 87.5 -27.5t29.5 -75.5q0 -108 -193 -212h-9zM60 261q-31 0 -31 31t31 31q13 0 22 -8.5t9 -22.5t-9 -22.5t-22 -8.5zM62 49h227
l-4 -49h-272z" />
    <glyph glyph-name="three.den" horiz-adv-x="306" 
d="M87 3q54 4 87.5 31t33.5 77q0 84 -86 84h-15v10h15q75 0 75 84q0 74 -77 74q-39 0 -63 -15v6q28 28 92 28q49 0 79 -23t30 -65q0 -39 -30 -62.5t-74 -30.5v-2q119 -10 119 -89q0 -54 -53 -83t-133 -31v7zM52 12q-14 0 -22 8.5t-8 21.5q0 31 30 31q13 0 21.5 -8.5
t8.5 -22.5q0 -13 -8.5 -21.5t-21.5 -8.5zM52 273q-13 0 -21.5 8.5t-8.5 21.5q0 14 8.5 22t21.5 8q30 0 30 -30q0 -13 -8 -21.5t-22 -8.5z" />
    <glyph glyph-name="four.den" horiz-adv-x="350" 
d="M169 325l47 56h16v-381h-63v325zM257 163h78l-2 -48h-76v48zM43 163h100v-48h-138z" />
    <glyph glyph-name="five.den" horiz-adv-x="297" 
d="M80 1q57 5 90.5 31.5t33.5 72.5q0 45 -24.5 66t-80.5 21q-23 0 -48 -5v45q25 5 65 5q141 0 141 -110q0 -62 -46 -95t-131 -37v6zM57 15q-31 0 -31 30q0 13 8.5 21.5t22.5 8.5q13 0 21.5 -8.5t8.5 -21.5q0 -14 -8.5 -22t-21.5 -8zM51 376h197v-48h-197v48z" />
    <glyph glyph-name="six.den" horiz-adv-x="356" 
d="M191 3q30 6 50 36t20 74q0 53 -20 77t-63 24q-35 0 -58 -19v9q13 12 38 22t50 10q51 0 83.5 -29t32.5 -83q0 -56 -41 -91t-92 -37v7zM175 -4q-60 2 -101 48t-41 112q0 91 63 152.5t158 71.5v-8q-71 -10 -114.5 -69t-43.5 -150q0 -64 20 -104.5t59 -45.5v-7zM275 300
q-14 0 -22 8.5t-8 21.5t8 21.5t22 8.5q13 0 21.5 -8.5t8.5 -21.5t-8.5 -21.5t-21.5 -8.5z" />
    <glyph glyph-name="seven.den" horiz-adv-x="288" 
d="M234 302h8l-131 -302h-61zM20 376h249l-19 -50h-230v50z" />
    <glyph glyph-name="eight.den" horiz-adv-x="315" 
d="M153 -3q-51 0 -87.5 24t-36.5 66q0 50 71 79l4 -4q-36 -22 -36 -70q0 -39 23.5 -64t61.5 -25q42 0 66 19t24 53q0 16 -5.5 28t-22 24.5t-25.5 17.5t-37 20q-9 5 -13 7q-26 14 -38.5 21.5t-30 22t-25 31.5t-7.5 38q0 41 33.5 69t86.5 28q48 0 77 -20t29 -54q0 -25 -18 -45
t-44 -30l-5 4q31 23 31 70q0 68 -70 68q-32 0 -52.5 -17.5t-20.5 -43.5q0 -28 18 -44t60 -38q5 -3 8 -4q4 -2 23 -12.5t24.5 -13.5t20.5 -13t20 -16.5t13.5 -17t11.5 -22t3 -24.5q0 -52 -39 -82t-96 -30z" />
    <glyph glyph-name="nine.den" horiz-adv-x="356" 
d="M166 373q-31 -6 -51 -36.5t-20 -74.5q0 -53 20.5 -76.5t64.5 -23.5q35 0 57 18v-8q-31 -35 -91 -35q-49 0 -81.5 30.5t-32.5 83.5q0 57 41 91t93 38v-7zM182 380q61 -4 101 -48t40 -112q0 -91 -63 -153.5t-158 -70.5v8q70 10 114 69t44 150q0 65 -19.5 105t-58.5 45v7z
M82 76q14 0 22 -8.5t8 -21.5t-8 -21.5t-22 -8.5q-13 0 -21.5 8.5t-8.5 21.5t8.5 21.5t21.5 8.5z" />
    <glyph glyph-name="Q.long" horiz-adv-x="692" 
d="M322 -8q-123 8 -207 102t-84 221t84 221t207 102v-9q-97 -15 -142 -103t-45 -211q0 -77 16.5 -141.5t60.5 -114t110 -58.5v-9zM370 1q51 7 88.5 36.5t58.5 74.5t30.5 95.5t9.5 107.5q0 78 -16.5 142t-60 113t-110.5 59v9q123 -8 207 -102t84 -221t-84 -221t-207 -102v9z
M909 -225q-109 20 -304 79t-274 94v10q81 -22 283.5 -62.5t308.5 -55.5z" />
    <glyph glyph-name="j.short" horiz-adv-x="193" 
d="M-20 -154q74 24 74 114v455l86 13v-412q0 -89 -43 -127t-117 -50v7zM98 507q-21 0 -35 11.5t-14 31.5t14 31.5t35 11.5t34.5 -11.5t13.5 -31.5t-13.5 -31.5t-34.5 -11.5z" />
    <glyph glyph-name="jcircumflex.short" horiz-adv-x="193" 
d="M-9 -154q33 11 49 36t16 78v458l86 12v-414q0 -90 -39.5 -128t-111.5 -49v7zM-17 510l112 126h5l111 -126l-4 -5l-107 73h-5l-107 -73z" />
    <glyph glyph-name="Yacute.alt" horiz-adv-x="561" 
d="M225 683q6 4 80.5 41t86.5 46l21 -54q-10 -1 -93 -20.5t-93 -20.5zM227 236q0 176 -133 315q-55 60 -103 74v5h48q78 0 139 -57q147 -147 147 -326v-247h-98v236zM427 491q25 48 68 139h82l-143 -144z" />
    <glyph glyph-name="Ydieresis.alt" horiz-adv-x="561" 
d="M227 236q0 176 -133 315q-55 60 -103 74v5h48q78 0 139 -57q147 -147 147 -326v-247h-98v236zM427 491q25 48 68 139h82l-143 -144zM210 688q-17 0 -29 12.5t-12 29.5t12 28.5t29 11.5t29 -11.5t12 -28.5t-12 -29.5t-29 -12.5zM390 688q-17 0 -28.5 12.5t-11.5 29.5
t11.5 28.5t28.5 11.5t29.5 -11.5t12.5 -28.5t-12.5 -29.5t-29.5 -12.5z" />
    <glyph glyph-name="Ycircumflex.alt" horiz-adv-x="561" 
d="M183 681l115 112h5l115 -112l-5 -6l-110 63h-5l-111 -63zM227 236q0 176 -133 315q-55 60 -103 74v5h48q78 0 139 -57q147 -147 147 -326v-247h-98v236zM427 491q25 48 68 139h82l-143 -144z" />
    <glyph glyph-name="Ygrave.alt" horiz-adv-x="561" 
d="M227 236q0 176 -133 315q-55 60 -103 74v5h48q78 0 139 -57q147 -147 147 -326v-247h-98v236zM427 491q25 48 68 139h82l-143 -144zM385 675q-10 1 -93 20t-94 21l21 54q11 -9 87 -46.5t81 -40.5z" />
    <glyph glyph-name="questiondown.uc" horiz-adv-x="405" 
d="M300 345q-44 -7 -73 -17t-56.5 -29.5t-41 -53.5t-13.5 -84q0 -40 14 -70t39 -47t51 -26t57 -12v-9q-68 3 -120.5 17.5t-90 52t-37.5 94.5q0 50 21.5 88t58.5 60t78 34.5t90 16.5v109h23v-124zM326 117q18 0 30.5 -12.5t12.5 -31.5t-13 -32t-30 -13q-18 0 -31 13t-13 32
q0 18 13 31t31 13zM287 635q20 0 33 -12t13 -32t-13.5 -32t-32.5 -12t-32 12t-13 32t13 32t32 12z" />
    <glyph glyph-name="exclamdown.uc" horiz-adv-x="217" 
d="M109 638q19 0 32.5 -12.5t13.5 -32.5t-13.5 -32.5t-32.5 -12.5q-20 0 -33.5 12.5t-13.5 32.5t13.5 32.5t33.5 12.5zM119 475q3 -81 19 -248.5t19 -226.5h-98q3 60 19.5 227.5t19.5 247.5h21z" />
    <glyph glyph-name="hyphen.uc" horiz-adv-x="240" 
d="M43 340h154v-48h-154v48z" />
    <glyph glyph-name="endash.uc" horiz-adv-x="467" 
d="M34 328h400v-24h-400v24z" />
    <glyph glyph-name="emdash.uc" horiz-adv-x="727" 
d="M34 328h660v-24h-660v24z" />
    <glyph glyph-name="guilsinglleft.uc" horiz-adv-x="184" 
d="M32 315v9l112 120l8 -4l-67 -120l67 -120l-8 -4z" />
    <glyph glyph-name="guilsinglright.uc" horiz-adv-x="184" 
d="M32 200l67 120l-67 120l8 4l112 -119v-9l-112 -120z" />
    <glyph glyph-name="guillemotleft.uc" horiz-adv-x="296" 
d="M32 315v9l112 120l8 -4l-67 -120l67 -120l-8 -4zM144 315v9l112 120l8 -4l-68 -120l68 -120l-8 -4z" />
    <glyph glyph-name="guillemotright.uc" horiz-adv-x="296" 
d="M32 200l67 120l-67 120l8 4l112 -119v-9l-112 -120zM144 200l67 120l-67 120l7 4l112 -119v-9l-112 -120z" />
    <glyph glyph-name="parenleft.uc" horiz-adv-x="252" 
d="M208 0q-148 137 -148 315q0 179 147 315h16q-91 -132 -91 -315t91 -315h-15z" />
    <glyph glyph-name="parenright.uc" horiz-adv-x="252" 
d="M28 0q92 131 92 315t-92 315h17q146 -135 146 -315q0 -179 -147 -315h-16z" />
    <glyph glyph-name="bracketleft.uc" horiz-adv-x="265" 
d="M76 630h170v-19h-104v-592h104v-19h-170v630z" />
    <glyph glyph-name="bracketright.uc" horiz-adv-x="265" 
d="M19 19h105v592h-105v19h171v-630h-171v19z" />
    <glyph glyph-name="braceleft.uc" horiz-adv-x="309" 
d="M287 0q-76 3 -120 29.5t-44 96.5v84q0 57 -19 77.5t-70 20.5v14q51 0 70 20.5t19 77.5v84q0 70 44 96.5t120 29.5v-9q-95 -6 -95 -89v-101q0 -103 -104 -115v-2q104 -12 104 -115v-101q0 -83 95 -89v-9z" />
    <glyph glyph-name="braceright.uc" horiz-adv-x="309" 
d="M22 9q96 6 96 89v101q0 103 104 115v2q-104 12 -104 115v101q0 83 -96 89v9q77 -3 120.5 -29.5t43.5 -96.5v-84q0 -57 19 -77.5t70 -20.5v-14q-51 0 -70 -20.5t-19 -77.5v-84q0 -70 -43.5 -96.5t-120.5 -29.5v9z" />
    <glyph glyph-name="slash.uc" horiz-adv-x="273" 
d="M3 2l244 635l24 -8l-245 -636z" />
    <glyph glyph-name="backslash.uc" horiz-adv-x="273" 
d="M2 629l24 8l244 -635l-23 -9z" />
    <glyph glyph-name="bar.uc" horiz-adv-x="183" 
d="M78 630h27v-630h-27v630z" />
    <glyph glyph-name="at.uc" horiz-adv-x="707" 
d="M350 -8q-145 0 -232 76t-87 222q0 152 105 251t265 99q143 0 211.5 -67.5t68.5 -177.5q0 -109 -69.5 -179t-179.5 -70h-51l71 365l74 20l2 -1l-69 -362q86 4 143.5 68.5t57.5 158.5q0 102 -62 165t-197 63q-153 0 -251.5 -94t-98.5 -239q0 -137 81.5 -208.5t217.5 -71.5
q162 0 265 96l12 -14q-102 -100 -277 -100zM247 138q-41 0 -67 29.5t-26 86.5q0 100 85.5 176.5t179.5 85.5v-7q-76 -16 -134.5 -87.5t-58.5 -155.5q0 -43 17 -64t45 -21q53 0 82 44l5 -4q-17 -31 -52.5 -57t-75.5 -26z" />
    <glyph glyph-name="uni01FA.sc" horiz-adv-x="462" 
d="M247 558q21 2 35 17t14 40q0 52 -49 59v13q26 -2 45.5 -21.5t19.5 -50.5q0 -30 -20 -49.5t-45 -21.5v14zM226 544q-25 2 -44.5 21.5t-19.5 49.5q0 31 19 50.5t45 21.5v-13q-49 -7 -49 -59q0 -25 14.5 -40t34.5 -17v-14zM107 213h164l-84 209l35 86h30l200 -508h-95
l-77 191h-181zM4 0q38 59 72 122l11 -2q-9 -94 -11 -120h-72zM162 735q6 4 80.5 41t86.5 46l21 -54q-10 -2 -93 -20.5t-93 -20.5z" />
    <glyph glyph-name="napostrophe.sc" horiz-adv-x="616" 
d="M198 389q-76 93 -96 114h117l328 -424v-81h-47zM133 0q9 30 20.5 85.5t12.5 60.5h9q1 -5 12.5 -60.5t20.5 -85.5h-75zM537 358q-9 49 -33 145h75q-10 -38 -33 -145h-9zM-16 353q5 21 15.5 78.5t16.5 78.5h74q-10 -21 -45.5 -78t-46.5 -79h-14z" />
    <glyph glyph-name="uni021A.sc" horiz-adv-x="465" 
d="M14 503h137v-10q-24 -9 -137 -64v74zM187 503h91v-503h-91v503zM451 429q-78 44 -137 64v10h137v-74zM181 -186q3 14 8.5 64.5t7.5 64.5h73q-7 -15 -39.5 -64.5t-39.5 -64.5h-10z" />
    <glyph glyph-name="dollar.sc" horiz-adv-x="405" 
d="M186 215l-19 11q-60 30 -90 63t-30 85q0 57 40.5 93.5t104.5 40.5v-8q-36 -5 -57.5 -27.5t-21.5 -54.5q0 -36 17 -56.5t73 -50.5l27 262h18l-29 -270l14 -7q36 -20 54 -31.5t39 -30.5t29.5 -40.5t8.5 -49.5q0 -66 -47.5 -107t-106.5 -43v8q90 21 90 103q0 32 -21.5 52
t-76.5 49l-28 -272h-17zM80 28q-17 0 -28.5 11.5t-11.5 28.5t11.5 28.5t28.5 11.5t28.5 -11.5t11.5 -28.5t-11.5 -28.5t-28.5 -11.5zM306 406q-17 0 -28.5 11.5t-11.5 28.5t11.5 28.5t28.5 11.5t28 -11.5t11 -28.5t-11 -28.5t-28 -11.5z" />
    <glyph glyph-name="Euro.sc" horiz-adv-x="450" 
d="M12 309h65q15 81 68.5 138.5t141.5 68.5v-9q-119 -26 -130 -198h164l-1 -14h-164v-22q0 -29 3 -54h119l-1 -14h-116q25 -152 152 -152q78 0 123 40v-11q-52 -90 -166 -90q-84 0 -137 57.5t-61 155.5h-61l1 14h59v21q0 30 4 55h-64zM364 409q-17 0 -29.5 12t-12.5 30
q0 17 12.5 29t29.5 12q18 0 30 -12t12 -29q0 -18 -12 -30t-30 -12z" />
    <glyph glyph-name="sterling.sc" horiz-adv-x="433" 
d="M28 245h65l7 54q21 191 207 210v-8q-105 -20 -118 -154l-12 -102h115v-13h-117l-26 -232h-84l27 232h-64v13zM201 8q78 15 198 51v-59h-198v8zM351 395q-17 0 -29 12t-12 30q0 17 12 29t29 12t29.5 -12t12.5 -29q0 -18 -12.5 -30t-29.5 -12z" />
    <glyph glyph-name="yen.sc" horiz-adv-x="462" 
d="M62 258h96l-149 249h97l151 -249h110v-14h-107v-62h107v-14h-107v-168h-90v168h-108v14h108v56l-4 6h-104v14zM327 370q0 10 29.5 70.5t29.5 66.5h70q-7 -7 -61 -72t-60 -71z" />
    <glyph glyph-name="zero.sc" horiz-adv-x="528" 
d="M251 -6q-80 4 -143 72.5t-63 182.5q0 115 63 185t143 74v-9q-61 -11 -86 -73t-25 -177q0 -114 25 -174.5t86 -71.5v-9zM277 3q61 9 86.5 70.5t25.5 175.5t-25.5 176.5t-86.5 73.5v9q81 -4 143.5 -74t62.5 -185q0 -114 -62.5 -182.5t-143.5 -72.5v9z" />
    <glyph glyph-name="one.sc" horiz-adv-x="272" 
d="M5 465l72 21v-44h-72v23zM101 492l90 19v-511h-90v492z" />
    <glyph glyph-name="two.sc" horiz-adv-x="432" 
d="M107 85q37 31 58 51.5t53.5 58.5t48.5 79.5t16 86.5q0 118 -119 118q-43 0 -85 -22v8q17 17 53.5 30t76.5 13q80 0 122.5 -37t42.5 -104q0 -147 -252 -282h-15zM77 350q-17 0 -30 13t-13 30q0 18 13 31t30 13q18 0 30.5 -13t12.5 -31q0 -17 -12.5 -30t-30.5 -13zM21 0
q3 3 19 17.5t30 28t18 19.5h306l-6 -65h-367z" />
    <glyph glyph-name="three.sc" horiz-adv-x="403" 
d="M107 4q159 16 159 137q0 62 -28 88.5t-85 26.5h-24v12h24q102 0 102 118q0 49 -24.5 72t-78.5 23q-50 0 -82 -19v7q41 38 122 38q66 0 108.5 -30t42.5 -85t-38 -87t-102 -41v-1q155 -9 155 -122q0 -49 -39.5 -82.5t-93 -47.5t-118.5 -17v10zM65 21q-17 0 -29.5 12
t-12.5 30q0 17 12.5 29.5t29.5 12.5q18 0 30 -12.5t12 -29.5q0 -18 -12 -30t-30 -12zM65 358q-17 0 -29 12t-12 29t12 29t29 12t29 -12t12 -29t-12 -29t-29 -12z" />
    <glyph glyph-name="four.sc" horiz-adv-x="463" 
d="M6 151l45 64h141v-64h-186zM222 442l59 72h32v-514h-91v442zM343 215h104l-3 -64h-101v64z" />
    <glyph glyph-name="five.sc" horiz-adv-x="391" 
d="M91 2q76 6 127.5 43.5t51.5 97.5q0 62 -34 87.5t-110 25.5q-40 0 -73 -7l4 63q47 9 94 9q197 0 197 -150q0 -80 -69.5 -126.5t-187.5 -50.5v8zM63 19q-17 0 -29.5 12.5t-12.5 30.5t12.5 30.5t29.5 12.5q18 0 30.5 -12.5t12.5 -30.5t-12.5 -30.5t-30.5 -12.5zM73 501h261
v-68h-264z" />
    <glyph glyph-name="six.sc" horiz-adv-x="473" 
d="M258 3q41 7 64 48t23 106q0 72 -24 102t-81 30q-40 0 -73 -24v9q16 18 47.5 30.5t66.5 12.5q69 0 112 -39.5t43 -111.5q0 -77 -52.5 -123.5t-125.5 -48.5v9zM236 -6q-87 4 -140 62t-53 152q0 124 87.5 206.5t215.5 92.5v-8q-94 -12 -152 -92.5t-58 -206.5
q0 -186 100 -197v-9zM366 390q-18 0 -30.5 13t-12.5 31q0 19 12.5 31.5t30.5 12.5q19 0 31.5 -12.5t12.5 -31.5q0 -18 -12.5 -31t-31.5 -13z" />
    <glyph glyph-name="seven.sc" horiz-adv-x="401" 
d="M323 396h11l-180 -396h-92zM32 501h339l-26 -72h-320z" />
    <glyph glyph-name="eight.sc" horiz-adv-x="420" 
d="M203 -6q-71 0 -119 30t-48 87q0 40 27 63.5t72 40.5l6 -6q-25 -18 -35.5 -37t-11.5 -50q-1 -53 27 -86t82 -33q114 0 114 89q0 21 -8 37t-28.5 32t-35 25t-49.5 28q-7 4 -11 6q-32 17 -42 22.5t-34 23t-33 30.5t-18 35.5t-9 49.5q0 55 45.5 91t118.5 36q67 0 107.5 -29
t40.5 -74q0 -33 -24.5 -58t-64.5 -39l-7 5q20 16 30 34.5t10 51.5q0 100 -92 100q-44 0 -70 -23t-26 -59q0 -21 7.5 -37t27.5 -32t35.5 -25.5t50.5 -28.5q33 -17 45 -24t37 -24t35 -30t19.5 -34t9.5 -45q0 -70 -49.5 -106.5t-131.5 -36.5z" />
    <glyph glyph-name="nine.sc" horiz-adv-x="473" 
d="M197 181q-70 0 -114.5 42t-44.5 113q0 77 52.5 123t125.5 48v-8q-41 -8 -64.5 -50t-23.5 -103q0 -71 26 -102.5t81 -31.5q39 0 72 24v-9q-40 -46 -110 -46zM123 2q96 12 155.5 92.5t59.5 206.5q0 94 -24 142.5t-76 55.5v8q88 -4 140.5 -60.5t52.5 -150.5q0 -126 -87 -209
t-221 -93v8zM99 24q-19 0 -31.5 13t-12.5 31q0 19 12.5 32t31.5 13t31.5 -13t12.5 -32q0 -18 -12.5 -31t-31.5 -13z" />
    <glyph glyph-name="percent.sc" horiz-adv-x="520" 
d="M131 271q-42 7 -70 38t-28 84t28 84.5t70 38.5v-8q-23 -7 -33.5 -33t-10.5 -82t10.5 -82t33.5 -33v-7zM154 278q45 14 45 115t-45 115v8q43 -7 70.5 -38t27.5 -85q0 -53 -27.5 -84t-70.5 -38v7zM366 -8q-42 7 -70 38t-28 84t28 84.5t70 38.5v-8q-45 -14 -45 -115t45 -115
v-7zM389 -1q45 14 45 115t-45 115v8q42 -7 70 -38.5t28 -84.5t-28 -84t-70 -38v7zM74 3l356 512l16 -11l-356 -512z" />
    <glyph glyph-name="perthousand.sc" horiz-adv-x="775" 
d="M131 271q-42 7 -70 38t-28 84t28 84.5t70 38.5v-8q-23 -7 -33.5 -33t-10.5 -82t10.5 -82t33.5 -33v-7zM154 278q45 14 45 115t-45 115v8q43 -7 70.5 -38t27.5 -85q0 -53 -27.5 -84t-70.5 -38v7zM366 -8q-42 7 -70 38t-28 84t28 84.5t70 38.5v-8q-45 -14 -45 -115t45 -115
v-7zM389 -1q45 14 45 115t-45 115v8q42 -7 70 -38.5t28 -84.5t-28 -84t-70 -38v7zM621 -8q-42 7 -70 38t-28 84t28 84.5t70 38.5v-8q-45 -14 -45 -115t45 -115v-7zM644 -1q45 14 45 115t-45 115v8q42 -7 70 -38.5t28 -84.5t-28 -84t-70 -38v7zM74 3l356 512l16 -11
l-356 -512z" />
    <glyph glyph-name="slash.sc" horiz-adv-x="265" 
d="M-1 -9l245 524l23 -10l-246 -524z" />
    <glyph glyph-name="backslash.sc" horiz-adv-x="265" 
d="M-1 505l22 10l246 -524l-22 -10z" />
    <glyph glyph-name="bar.sc" horiz-adv-x="174" 
d="M73 503h27v-503h-27v503z" />
    <glyph glyph-name="Cacute.pl" horiz-adv-x="570" 
d="M339 -8q-141 8 -224.5 93.5t-83.5 229.5q0 135 90 224t220 99v-10q-99 -15 -152.5 -96.5t-53.5 -216.5t52.5 -216.5t151.5 -96.5v-10zM382 2q74 19 160 83v-69q-63 -19 -160 -24v10zM536 550q-87 62 -152 78v10q94 -4 152 -22v-66zM337 670q3 7 48.5 66.5t49.5 69.5
l42 -37q-9 -6 -70.5 -54.5t-63.5 -49.5z" />
    <glyph glyph-name="acute.ucpl" horiz-adv-x="423" 
d="M159 670q3 7 48.5 66.5t49.5 69.5l42 -37q-9 -6 -70.5 -54.5t-63.5 -49.5z" />
    <glyph glyph-name="Cacute.scpl" horiz-adv-x="495" 
d="M296 -6q-120 6 -192.5 74.5t-72.5 182.5q0 107 78 179.5t188 78.5v-10q-84 -12 -127 -76t-43 -172q0 -107 42.5 -171.5t126.5 -76.5v-9zM333 3q52 13 135 76v-66q-50 -15 -135 -19v9zM462 427q-55 54 -127 72v10q92 -5 127 -17v-65zM286 533q7 17 27 71.5t35 91.5l56 -28
l-110 -138z" />
    <glyph glyph-name="acute.pl" horiz-adv-x="423" 
d="M170 479q7 17 27 71.5t35 91.5l56 -28l-110 -138z" />
    <glyph glyph-name="Nacute.pl" horiz-adv-x="615" 
d="M305 670q3 7 48.5 66.5t49.5 69.5l42 -37q-9 -6 -70.5 -54.5t-63.5 -49.5zM130 487q-48 66 -113 143h127l397 -547v-86h-57zM41 0q25 100 38 160h10q12 -73 38 -160h-86zM530 472q-19 91 -38 158h86q-17 -60 -38 -158h-10z" />
    <glyph glyph-name="Nacute.scpl" horiz-adv-x="526" 
d="M108 389q-76 93 -96 114h117l328 -424v-81h-47zM43 0q9 30 20.5 85.5t12.5 60.5h9q1 -5 12.5 -60.5t20.5 -85.5h-75zM447 358q-9 49 -33 145h75q-10 -38 -33 -145h-9zM271 533q7 17 27 71.5t35 91.5l56 -28l-110 -138z" />
    <glyph glyph-name="Oacute.pl" horiz-adv-x="692" 
d="M327 670q3 7 48.5 66.5t49.5 69.5l42 -37q-9 -6 -70.5 -54.5t-63.5 -49.5zM322 -8q-123 8 -207 102t-84 221t84 221t207 102v-9q-66 -10 -110 -59t-61 -113t-17 -142q0 -77 17 -141.5t61 -114t110 -58.5v-9zM370 1q67 9 111 58.5t60.5 114t16.5 141.5q0 78 -16.5 142
t-60.5 113t-111 59v9q123 -8 207 -102t84 -221t-84 -221t-207 -102v9z" />
    <glyph glyph-name="Oacute.scpl" horiz-adv-x="584" 
d="M272 -6q-104 6 -172.5 81t-68.5 176q0 102 68.5 176.5t172.5 80.5v-9q-53 -8 -87 -46.5t-47 -89t-13 -112.5t13 -112.5t47 -89t87 -46.5v-9zM313 3q53 8 87 46.5t46.5 88.5t12.5 113q0 46 -7.5 86t-23.5 75t-45.5 58t-69.5 29v9q104 -6 172.5 -79.5t68.5 -177.5
q0 -103 -68.5 -177t-172.5 -80v9zM274 533q7 17 27 71.5t35 91.5l56 -28l-110 -138z" />
    <glyph glyph-name="Q.sc.long" horiz-adv-x="582" 
d="M271 -6q-104 6 -172 80.5t-68 176.5t68 176.5t172 80.5v-9q-77 -11 -110 -79.5t-33 -168.5q0 -99 33 -168t110 -80v-9zM312 3q77 11 110 80t33 168q0 100 -33 168.5t-110 79.5v9q104 -6 171.5 -79.5t67.5 -177.5q0 -103 -67.5 -177t-171.5 -80v9zM702 -162
q-81 17 -205 53.5t-201 64.5v10q249 -47 418 -66z" />
    <glyph glyph-name="Sacute.pl" horiz-adv-x="464" 
d="M227 1q116 26 116 137q0 46 -25 72t-95 65l-40 21q-69 35 -104 73t-35 99q0 71 54.5 118.5t124.5 51.5v-9q-43 -4 -73 -34t-30 -71q0 -52 22.5 -77t99.5 -68l35 -18q77 -44 99 -66q44 -43 44 -114q0 -82 -60.5 -133.5t-132.5 -55.5v9zM179 -8q-97 5 -143 25v70
q66 -67 143 -86v-9zM394 558q-68 59 -123 71v9q86 -6 123 -16v-64zM232 670q3 7 48.5 66.5t49.5 69.5l42 -37q-9 -6 -70.5 -54.5t-63.5 -49.5z" />
    <glyph glyph-name="Sacute.scpl" horiz-adv-x="392" 
d="M199 3q42 10 66 33t24 72q0 34 -20.5 52t-83.5 51l-34 17q-58 31 -85 60.5t-27 83.5q0 60 43.5 96.5t104.5 40.5v-10q-36 -4 -58.5 -27.5t-22.5 -55.5q0 -37 19.5 -57.5t76.5 -50.5l29 -15q67 -32 97.5 -63t30.5 -86q0 -66 -49.5 -107t-110.5 -43v9zM157 -6
q-74 2 -123 19v66q67 -62 123 -76v-9zM335 438q-71 55 -106 61v10q66 -2 106 -13v-58zM190 533q7 17 27 71.5t35 91.5l56 -28l-110 -138z" />
    <glyph glyph-name="Y.scalt" horiz-adv-x="467" 
d="M181 190q0 119 -91 233q-51 61 -95 73v7h27q87 0 143 -56q43 -43 73.5 -108.5t30.5 -144.5v-194h-88v190zM342 383q14 28 32.5 66.5t25.5 53.5h76q-23 -22 -126 -125z" />
    <glyph glyph-name="Yacute.scalt" horiz-adv-x="467" 
d="M165 575q130 73 162 90l23 -58l-182 -40zM181 190q0 119 -91 233q-51 61 -95 73v7h27q87 0 143 -56q43 -43 73.5 -108.5t30.5 -144.5v-194h-88v190zM342 383q14 28 32.5 66.5t25.5 53.5h76q-23 -22 -126 -125z" />
    <glyph glyph-name="Ycircumflex.scalt" horiz-adv-x="467" 
d="M134 564l112 126h5l111 -126l-4 -5l-107 73h-5l-107 -73zM181 190q0 119 -91 233q-51 61 -95 73v7h27q87 0 143 -56q43 -43 73.5 -108.5t30.5 -144.5v-194h-88v190zM342 383q14 28 32.5 66.5t25.5 53.5h76q-23 -22 -126 -125z" />
    <glyph glyph-name="Ydieresis.scalt" horiz-adv-x="467" 
d="M172 576q-17 0 -28 11t-11 28q0 16 11 27.5t28 11.5q16 0 27 -11.5t11 -27.5q0 -17 -11 -28t-27 -11zM324 576q-16 0 -27 11t-11 28q0 16 11 27.5t27 11.5q17 0 28 -11.5t11 -27.5q0 -17 -11 -28t-28 -11zM181 190q0 119 -91 233q-51 61 -95 73v7h27q87 0 143 -56
q43 -43 73.5 -108.5t30.5 -144.5v-194h-88v190zM342 383q14 28 32.5 66.5t25.5 53.5h76q-23 -22 -126 -125z" />
    <glyph glyph-name="Ygrave.scalt" horiz-adv-x="467" 
d="M181 190q0 119 -91 233q-51 61 -95 73v7h27q87 0 143 -56q43 -43 73.5 -108.5t30.5 -144.5v-194h-88v190zM342 383q14 28 32.5 66.5t25.5 53.5h76q-23 -22 -126 -125zM134 607l22 58q32 -17 162 -90l-3 -8z" />
    <glyph glyph-name="Zacute.pl" horiz-adv-x="550" 
d="M48 630h246v-11q-124 -22 -253 -60zM412 630h109l-384 -630h-107zM246 9q92 14 264 65l-7 -74h-257v9zM249 670q3 7 48.5 66.5t49.5 69.5l42 -37q-9 -6 -70.5 -54.5t-63.5 -49.5z" />
    <glyph glyph-name="Zacute.scpl" horiz-adv-x="472" 
d="M41 503h206v-11q-59 -12 -211 -56zM345 503h98l-323 -503h-96zM213 9q52 9 129 31.5t98 27.5l-6 -68h-221v9zM222 533q7 17 27 71.5t35 91.5l56 -28l-110 -138z" />
    <glyph glyph-name="bullet.sc" horiz-adv-x="253" 
d="M127 188q-30 0 -50.5 21t-20.5 51t20.5 51t50.5 21t50 -21t20 -51t-20 -51t-50 -21z" />
    <glyph glyph-name="cacute.pl" horiz-adv-x="397" 
d="M229 -8q-94 0 -148.5 61t-54.5 154q0 99 67 155.5t169 65.5v-8q-67 -9 -107.5 -58.5t-40.5 -129.5q0 -78 40.5 -127t107.5 -49q75 0 124 45v-9q-51 -100 -157 -100zM325 319q-20 0 -33 13t-13 32q0 20 13 33t33 13t33 -13t13 -33t-13 -32.5t-33 -12.5zM216 479
q7 17 27 71.5t35 91.5l56 -28l-110 -138z" />
    <glyph glyph-name="cent.sc" horiz-adv-x="481" 
d="M273 -6q-24 0 -41 4l-13 -70h-16l13 72q-82 19 -132.5 86t-50.5 152q0 112 71 182.5t180 87.5v-9q-71 -15 -119 -75.5t-48 -157.5q0 -63 29.5 -114.5t84.5 -73.5l94 502h15l-94 -508q30 -8 59 -8q48 0 94 17.5t64 40.5l2 -8q-23 -48 -70.5 -84t-121.5 -36zM394 396
q-20 0 -33.5 13.5t-13.5 32.5q0 20 13.5 33t33.5 13t33 -13t13 -33t-13 -33t-33 -13z" />
    <glyph glyph-name="copyright.sc" horiz-adv-x="584" 
d="M309 7q100 8 163.5 74.5t63.5 169.5t-63.5 170t-163.5 75v13q105 -8 174 -78.5t69 -179.5t-68.5 -179t-174.5 -78v13zM319 419q75 -7 87 -11v-43q-47 35 -87 46v8zM276 -6q-107 8 -175 78t-68 179t68.5 179.5t174.5 78.5v-13q-101 -8 -164.5 -75t-63.5 -170t63.5 -169.5
t164.5 -74.5v-13zM319 92q47 11 90 47v-43q-23 -8 -90 -13v9zM123 251q0 72 47.5 118t120.5 50v-8q-51 -8 -78.5 -50.5t-27.5 -109.5q0 -69 29 -109.5t77 -49.5v-9q-72 4 -120 49t-48 119z" />
    <glyph glyph-name="degree.lin" horiz-adv-x="318" 
d="M144 415q-43 3 -72 34t-29 77t29 77t72 35v-14q-36 -3 -60 -30t-24 -68t24 -67.5t60 -30.5v-13zM174 428q36 4 60 30.5t24 67.5t-24 68t-60 30v14q43 -3 71.5 -34t28.5 -78q0 -46 -28.5 -77t-71.5 -34v13z" />
    <glyph glyph-name="divide.sc" horiz-adv-x="429" 
d="M55 272h319v-23h-319v23zM214 111q-14 0 -23 9.5t-9 23.5q0 13 9 22.5t23 9.5q13 0 22.5 -9.5t9.5 -22.5q0 -14 -9.5 -23.5t-22.5 -9.5zM214 344q-14 0 -23 9.5t-9 23.5q0 13 9 22.5t23 9.5q13 0 22.5 -9.5t9.5 -22.5q0 -14 -9.5 -23.5t-22.5 -9.5z" />
    <glyph glyph-name="f.short" horiz-adv-x="226" 
d="M61 392h-58v29h58v102q0 80 49 117.5t133 46.5v-8q-95 -16 -95 -116v-142h92v-29h-92v-392h-87v392z" />
    <glyph glyph-name="f_f.short" horiz-adv-x="453" 
d="M66 392h-59v29h59v87q0 144 182 164v-8q-96 -17 -96 -112v-131h123v100q0 26 4 41q-27 12 -27 39q0 17 12 28t29 11q13 0 24 -7q42 42 140 54v-8q-95 -16 -95 -119v-139h92v-29h-92v-392h-87v392h-123v-392h-86v392z" />
    <glyph glyph-name="florin.lin" horiz-adv-x="404" 
d="M122 416h61l10 54q26 144 175 162l-2 -8q-35 -9 -52 -35.5t-27 -83.5l-16 -89h94l-5 -26h-94l-38 -219q-17 -95 -60 -133.5t-120 -44.5l2 8q39 10 55 36t29 102l44 251h-61zM389 525q-19 0 -31.5 12t-12.5 30q0 17 12.5 29t31.5 12t31 -12t12 -29t-12 -29.5t-31 -12.5z
M26 19q-19 0 -31 12t-12 29t12 29t31 12q18 0 30 -12t12 -29t-12 -29t-30 -12z" />
    <glyph glyph-name="florin.sc" horiz-adv-x="400" 
d="M110 327h61l4 19q13 70 57.5 112t118.5 50l-3 -10q-37 -9 -54 -36t-27 -82l-10 -53h91l-4 -24h-91l-25 -140q-14 -82 -55 -123t-114 -47l2 8q20 6 33 15.5t21 29.5t11.5 34t9.5 50l31 173h-61zM368 403q-17 0 -29 11.5t-12 28.5t12 28.5t29 11.5q18 0 29.5 -11.5
t11.5 -28.5t-11.5 -28.5t-29.5 -11.5zM31 20q-17 0 -28.5 11.5t-11.5 28.5t11.5 28t28.5 11t28.5 -11t11.5 -28t-11.5 -28.5t-28.5 -11.5z" />
    <glyph glyph-name="gbreve.alt" horiz-adv-x="483" 
d="M199 9q-78 0 -124.5 51t-46.5 138q0 101 63.5 164t151.5 67v-8q-59 -9 -93 -58t-34 -137q0 -87 35 -127.5t91 -40.5q52 0 80 30v-8q-11 -26 -43 -48.5t-80 -22.5zM169 -170q175 19 175 163v407q-27 17 -61 21v8q108 -6 148 -16v-410q0 -90 -65 -133t-197 -48v8zM107 -155
q-18 0 -29.5 10.5t-11.5 27.5t11.5 27.5t29.5 10.5t29.5 -10.5t11.5 -27.5t-11.5 -27.5t-29.5 -10.5zM254 503q-42 0 -70 29t-34 79h10q12 -61 94 -61t95 61h9q-5 -49 -33.5 -78.5t-70.5 -29.5z" />
    <glyph glyph-name="gcircumflex.alt" horiz-adv-x="483" 
d="M140 510l112 126h5l111 -126l-4 -5l-107 73h-5l-107 -73zM199 9q-78 0 -124.5 51t-46.5 138q0 101 63.5 164t151.5 67v-8q-59 -9 -93 -58t-34 -137q0 -87 35 -127.5t91 -40.5q52 0 80 30v-8q-11 -26 -43 -48.5t-80 -22.5zM169 -170q175 19 175 163v407q-27 17 -61 21v8
q108 -6 148 -16v-410q0 -90 -65 -133t-197 -48v8zM107 -155q-18 0 -29.5 10.5t-11.5 27.5t11.5 27.5t29.5 10.5t29.5 -10.5t11.5 -27.5t-11.5 -27.5t-29.5 -10.5z" />
    <glyph glyph-name="gcommaaccent.alt" horiz-adv-x="483" 
d="M199 9q-78 0 -124.5 51t-46.5 138q0 101 63.5 164t151.5 67v-8q-59 -9 -93 -58t-34 -137q0 -87 35 -127.5t91 -40.5q52 0 80 30v-8q-11 -26 -43 -48.5t-80 -22.5zM169 -170q175 19 175 163v407q-27 17 -61 21v8q108 -6 148 -16v-410q0 -90 -65 -133t-197 -48v8zM107 -155
q-18 0 -29.5 10.5t-11.5 27.5t11.5 27.5t29.5 10.5t29.5 -10.5t11.5 -27.5t-11.5 -27.5t-29.5 -10.5z" />
    <glyph glyph-name="gdotaccent.alt" horiz-adv-x="483" 
d="M199 9q-78 0 -124.5 51t-46.5 138q0 101 63.5 164t151.5 67v-8q-59 -9 -93 -58t-34 -137q0 -87 35 -127.5t91 -40.5q52 0 80 30v-8q-11 -26 -43 -48.5t-80 -22.5zM169 -170q175 19 175 163v407q-27 17 -61 21v8q108 -6 148 -16v-410q0 -90 -65 -133t-197 -48v8zM107 -155
q-18 0 -29.5 10.5t-11.5 27.5t11.5 27.5t29.5 10.5t29.5 -10.5t11.5 -27.5t-11.5 -27.5t-29.5 -10.5zM254 503q-21 0 -35 13.5t-14 34.5t14 34.5t35 13.5t35 -13.5t14 -34.5t-14 -34.5t-35 -13.5z" />
    <glyph glyph-name="greater.sc" horiz-adv-x="429" 
d="M86 158l253 102l-253 103v24l282 -113v-26l-282 -114v24z" />
    <glyph glyph-name="kcommaaccent.alt" horiz-adv-x="437" 
d="M184 -186q3 14 8.5 64.5t7.5 64.5h73q-7 -15 -39.5 -64.5t-39.5 -64.5h-10zM378 0q-25 0 -37.5 7.5t-28.5 28.5q-13 14 -134 163l58 60q40 -58 144 -186q48 -56 61 -68v-5h-63zM52 676l87 12v-688h-87v676zM290 335q17 54 22 86h104q-74 -52 -120 -93z" />
    <glyph glyph-name="less.sc" horiz-adv-x="429" 
d="M61 247v26l282 114v-24l-253 -103l253 -102v-24z" />
    <glyph glyph-name="multiply.sc" horiz-adv-x="429" 
d="M214 243l-120 -120l-16 17l120 120l-120 120l16 17l120 -121l121 121l17 -17l-121 -120l121 -120l-17 -17z" />
    <glyph glyph-name="nacute.pl" 
d="M223 479q7 17 27 71.5t35 91.5l56 -28l-110 -138zM337 295q0 85 -86 85q-46 0 -89 -28v7q23 29 61.5 49.5t78.5 20.5q59 0 90.5 -33.5t31.5 -91.5v-304h-87v295zM52 418l87 11v-429h-87v418z" />
    <glyph glyph-name="numbersign.lin" horiz-adv-x="602" 
d="M25 228h109l-4 -21h-109zM69 434h110l-5 -21h-110zM245 630h25l-136 -629h-25zM205 228h151l-5 -21h-150zM249 434h152l-4 -21h-153zM466 630h25l-136 -629h-25zM427 228h111l-5 -21h-111zM471 434h111l-4 -21h-111z" />
    <glyph glyph-name="numbersign.sc" horiz-adv-x="495" 
d="M21 180h91l-5 -21h-90zM59 351h93l-5 -21h-93zM209 503h25l-113 -503h-25zM183 180h93l-5 -21h-92zM222 351h93l-5 -21h-92zM371 503h25l-113 -503h-25zM346 180h96l-4 -21h-97zM385 351h93l-4 -21h-94z" />
    <glyph glyph-name="oacute.pl" horiz-adv-x="496" 
d="M228 -8q-88 8 -145 70t-57 148t57 148.5t145 70.5v-8q-26 -7 -48 -22q-63 -49 -63 -189q0 -139 63 -188q19 -16 48 -22v-8zM268 0q29 6 48 22q64 48 64 188q0 141 -64 189q-22 15 -48 22v8q88 -8 145 -70.5t57 -148.5t-57 -148t-145 -70v8zM230 479q7 17 27 71.5t35 91.5
l56 -28l-110 -138z" />
    <glyph glyph-name="paragraph.sc" horiz-adv-x="424" 
d="M319 452h16v-452h-16v452zM207 192h16v-192h-16v192zM180 226q-64 0 -110.5 35.5t-46.5 101.5q0 64 44.5 102t112.5 38h226v-14h-183v-263h-43z" />
    </font>
</defs>
</svg>
